M48
; DRILL file KiCad 10.0.6 date 2026-09-02T15:33:47
; FORMAT={-:-/ absolute / metric / decimal}
; #@! TF.CreationDate,2026-09-02T15:33:47-05:00
; #@! TF.GenerationSoftware,Kicad,Pcbnew,10.0.6
; #@! TF.FileFunction,Plated,1,2,PTH
FMAT,2
METRIC
; #@! TA.AperFunction,Plated,PTH,ViaDrill
T1C0.300
; #@! TA.AperFunction,Plated,PTH,ComponentDrill
T2C0.750
; #@! TA.AperFunction,Plated,PTH,ComponentDrill
T3C0.800
; #@! TA.AperFunction,Plated,PTH,ComponentDrill
T4C0.900
%
G90
G05
T1
X124.5Y-76.0
X125.5Y-71.5
X126.0Y-50.5
X129.5Y-65.29
X129.5Y-66.54
X134.0Y-81.5
X134.5Y-87.0
X135.5Y-106.0
X138.308Y-64.692
X138.64Y-98.0
X139.192Y-63.808
X139.5Y-71.817
X140.5Y-70.5
X140.5Y-98.0
X141.5Y-45.15
X141.5Y-46.4
X141.5Y-81.5
X144.808Y-71.192
X146.192Y-70.808
X148.0Y-106.0
X148.5Y-86.5
X150.0Y-79.0
X151.0Y-74.0
X153.0Y-69.0
X155.875Y-77.0
X156.0Y-83.0
X156.42Y-84.5
X156.42Y-98.5
X157.125Y-77.0
X157.5Y-63.0
X157.67Y-83.0
X158.402Y-79.5
X158.808Y-71.692
X159.027Y-83.473
X159.652Y-79.5
X159.942Y-71.058
X160.5Y-69.0
X160.5Y-91.5
X161.0Y-83.0
X163.04Y-99.0
X164.78Y-89.002
X165.0Y-87.0
X165.978Y-82.522
X166.5Y-52.44
X166.5Y-60.0
X167.348Y-83.348
X168.0Y-63.5
X168.0Y-84.5
X169.732Y-82.732
X171.0Y-72.925
X171.0Y-74.625
X171.831Y-87.0
X173.081Y-87.0
X173.5Y-91.5
X173.5Y-106.0
X176.5Y-63.5
T2
X153.23Y-73.86
X154.5Y-73.86
X155.77Y-73.86
T3
X125.5Y-74.5
X125.695Y-54.34
X125.695Y-56.88
X125.695Y-59.42
X125.695Y-61.96
X125.695Y-64.5
X125.695Y-67.04
X125.695Y-69.58
X127.5Y-50.5
X130.0Y-81.5
X130.5Y-74.5
X132.0Y-81.5
X132.5Y-50.5
X133.315Y-54.34
X133.315Y-56.88
X133.315Y-59.42
X133.315Y-61.96
X133.315Y-64.5
X133.315Y-67.04
X133.315Y-69.58
X137.42Y-75.5
X137.545Y-81.5
X139.545Y-81.5
X139.84Y-42.0
X147.58Y-75.5
X148.0Y-67.5
X150.0Y-42.0
X151.5Y-79.0
X153.0Y-67.5
X155.5Y-67.5
X156.5Y-79.0
X157.5Y-42.0
X160.5Y-67.5
X160.84Y-76.5
X160.92Y-80.5
X160.92Y-84.5
X167.66Y-42.0
X167.88Y-54.19
X167.88Y-56.73
X167.88Y-59.27
X167.88Y-61.81
X171.0Y-76.5
X171.08Y-80.5
X171.08Y-84.5
X175.0Y-65.42
X175.0Y-75.58
X175.5Y-54.19
X175.5Y-56.73
X175.5Y-59.27
X175.5Y-61.81
T4
X136.725Y-47.0
X136.725Y-69.5
X139.265Y-47.0
X139.265Y-69.5
X168.46Y-47.0
X168.46Y-69.5
X171.0Y-47.0
X171.0Y-69.5
M30
