%TF.GenerationSoftware,KiCad,Pcbnew,10.0.6*%
%TF.CreationDate,2026-09-02T15:33:41-05:00*%
%TF.ProjectId,Line-Sensor-Board,4c696e65-2d53-4656-9e73-6f722d426f61,rev?*%
%TF.SameCoordinates,Original*%
%TF.FileFunction,Copper,L2,Bot*%
%TF.FilePolarity,Positive*%
%FSLAX46Y46*%
G04 Gerber Fmt 4.6, Leading zero omitted, Abs format (unit mm)*
G04 Created by KiCad (PCBNEW 10.0.6) date 2026-09-02 15:33:41*
%MOMM*%
%LPD*%
G01*
G04 APERTURE LIST*
G04 Aperture macros list*
%AMRoundRect*
0 Rectangle with rounded corners*
0 $1 Rounding radius*
0 $2 $3 $4 $5 $6 $7 $8 $9 X,Y pos of 4 corners*
0 Add a 4 corners polygon primitive as box body*
4,1,4,$2,$3,$4,$5,$6,$7,$8,$9,$2,$3,0*
0 Add four circle primitives for the rounded corners*
1,1,$1+$1,$2,$3*
1,1,$1+$1,$4,$5*
1,1,$1+$1,$6,$7*
1,1,$1+$1,$8,$9*
0 Add four rect primitives between the rounded corners*
20,1,$1+$1,$2,$3,$4,$5,0*
20,1,$1+$1,$4,$5,$6,$7,0*
20,1,$1+$1,$6,$7,$8,$9,0*
20,1,$1+$1,$8,$9,$2,$3,0*%
G04 Aperture macros list end*
%TA.AperFunction,ComponentPad*%
%ADD10C,1.600000*%
%TD*%
%TA.AperFunction,ComponentPad*%
%ADD11RoundRect,0.250000X-0.550000X-0.550000X0.550000X-0.550000X0.550000X0.550000X-0.550000X0.550000X0*%
%TD*%
%TA.AperFunction,ComponentPad*%
%ADD12R,1.050000X1.500000*%
%TD*%
%TA.AperFunction,ComponentPad*%
%ADD13O,1.050000X1.500000*%
%TD*%
%TA.AperFunction,ComponentPad*%
%ADD14R,1.800000X1.800000*%
%TD*%
%TA.AperFunction,ComponentPad*%
%ADD15C,1.800000*%
%TD*%
%TA.AperFunction,ViaPad*%
%ADD16C,0.600000*%
%TD*%
%TA.AperFunction,Conductor*%
%ADD17C,0.250000*%
%TD*%
G04 APERTURE END LIST*
D10*
%TO.P,C2,2*%
%TO.N,GND*%
X153000000Y-67500000D03*
%TO.P,C2,1*%
%TO.N,+3.3V*%
X148000000Y-67500000D03*
%TD*%
%TO.P,U1,8,V+_8*%
%TO.N,+3.3V*%
X175500000Y-54190000D03*
%TO.P,U1,7*%
%TO.N,Net-(U1B--)*%
X175500000Y-56730000D03*
%TO.P,U1,6,-_6*%
X175500000Y-59270000D03*
%TO.P,U1,5,+_5*%
%TO.N,GND*%
X175500000Y-61810000D03*
%TO.P,U1,4,V-_4*%
X167880000Y-61810000D03*
%TO.P,U1,3,+_3*%
%TO.N,/CCD_OS*%
X167880000Y-59270000D03*
%TO.P,U1,2,-_2*%
%TO.N,Net-(U1A--)*%
X167880000Y-56730000D03*
D11*
%TO.P,U1,1*%
X167880000Y-54190000D03*
%TD*%
%TO.P,U2,1*%
%TO.N,/GP2*%
X125695000Y-54340000D03*
D10*
%TO.P,U2,2*%
%TO.N,Net-(U2-Pad2)*%
X125695000Y-56880000D03*
%TO.P,U2,3*%
X125695000Y-59420000D03*
%TO.P,U2,4*%
%TO.N,/PHIM*%
X125695000Y-61960000D03*
%TO.P,U2,5*%
%TO.N,Net-(U2-Pad5)*%
X125695000Y-64500000D03*
%TO.P,U2,6*%
%TO.N,/ICG*%
X125695000Y-67040000D03*
%TO.P,U2,7,GND_7*%
%TO.N,GND*%
X125695000Y-69580000D03*
%TO.P,U2,8*%
%TO.N,Net-(U2-Pad5)*%
X133315000Y-69580000D03*
%TO.P,U2,9*%
%TO.N,/GP3*%
X133315000Y-67040000D03*
%TO.P,U2,10*%
%TO.N,Net-(U2-Pad10)*%
X133315000Y-64500000D03*
%TO.P,U2,11*%
%TO.N,/GP4*%
X133315000Y-61960000D03*
%TO.P,U2,12*%
%TO.N,/SH*%
X133315000Y-59420000D03*
%TO.P,U2,13*%
%TO.N,Net-(U2-Pad10)*%
X133315000Y-56880000D03*
%TO.P,U2,14,VCC_14*%
%TO.N,+3.3V*%
X133315000Y-54340000D03*
%TD*%
%TO.P,R7,1*%
%TO.N,Net-(Q1-B)*%
X171080000Y-84500000D03*
%TO.P,R7,2*%
%TO.N,GND*%
X160920000Y-84500000D03*
%TD*%
%TO.P,R6,1*%
%TO.N,/LED_ENABLE*%
X171080000Y-80500000D03*
%TO.P,R6,2*%
%TO.N,Net-(Q1-B)*%
X160920000Y-80500000D03*
%TD*%
%TO.P,R5,1*%
%TO.N,/LED_5V*%
X160840000Y-76500000D03*
%TO.P,R5,2*%
%TO.N,Net-(D4-A)*%
X171000000Y-76500000D03*
%TD*%
%TO.P,R4,1*%
%TO.N,/LED_5V*%
X147580000Y-75500000D03*
%TO.P,R4,2*%
%TO.N,Net-(D3-A)*%
X137420000Y-75500000D03*
%TD*%
%TO.P,R3,1*%
%TO.N,/LED_5V*%
X157500000Y-42000000D03*
%TO.P,R3,2*%
%TO.N,Net-(D2-A)*%
X167660000Y-42000000D03*
%TD*%
%TO.P,R2,1*%
%TO.N,/LED_5V*%
X150000000Y-42000000D03*
%TO.P,R2,2*%
%TO.N,Net-(D1-A)*%
X139840000Y-42000000D03*
%TD*%
%TO.P,R1,1*%
%TO.N,Net-(U1A--)*%
X175000000Y-65420000D03*
%TO.P,R1,2*%
%TO.N,/CCD_ADC*%
X175000000Y-75580000D03*
%TD*%
D12*
%TO.P,Q1,1,E_1*%
%TO.N,GND*%
X153230000Y-73860000D03*
D13*
%TO.P,Q1,2,B_2*%
%TO.N,Net-(Q1-B)*%
X154500000Y-73860000D03*
%TO.P,Q1,3,C_3*%
%TO.N,/LED_CATHODES*%
X155770000Y-73860000D03*
%TD*%
D14*
%TO.P,D4,1,K_1*%
%TO.N,/LED_CATHODES*%
X168460000Y-69500000D03*
D15*
%TO.P,D4,2,A_2*%
%TO.N,Net-(D4-A)*%
X171000000Y-69500000D03*
%TD*%
D14*
%TO.P,D3,1,K_1*%
%TO.N,/LED_CATHODES*%
X136725000Y-69500000D03*
D15*
%TO.P,D3,2,A_2*%
%TO.N,Net-(D3-A)*%
X139265000Y-69500000D03*
%TD*%
D14*
%TO.P,D2,1,K_1*%
%TO.N,/LED_CATHODES*%
X168460000Y-47000000D03*
D15*
%TO.P,D2,2,A_2*%
%TO.N,Net-(D2-A)*%
X171000000Y-47000000D03*
%TD*%
D14*
%TO.P,D1,1,K_1*%
%TO.N,/LED_CATHODES*%
X136725000Y-47000000D03*
D15*
%TO.P,D1,2,A_2*%
%TO.N,Net-(D1-A)*%
X139265000Y-47000000D03*
%TD*%
D11*
%TO.P,C7,1*%
%TO.N,/LED_5V*%
X137544888Y-81500000D03*
D10*
%TO.P,C7,2*%
%TO.N,GND*%
X139544888Y-81500000D03*
%TD*%
%TO.P,C6,1*%
%TO.N,+3.3V*%
X155500000Y-67500000D03*
%TO.P,C6,2*%
%TO.N,GND*%
X160500000Y-67500000D03*
%TD*%
%TO.P,C5,1*%
%TO.N,+3.3V*%
X132500000Y-50500000D03*
%TO.P,C5,2*%
%TO.N,GND*%
X127500000Y-50500000D03*
%TD*%
%TO.P,C4,1*%
%TO.N,+3.3V*%
X130500000Y-74500000D03*
%TO.P,C4,2*%
%TO.N,GND*%
X125500000Y-74500000D03*
%TD*%
D11*
%TO.P,C3,1*%
%TO.N,+3.3V*%
X130000000Y-81500000D03*
D10*
%TO.P,C3,2*%
%TO.N,GND*%
X132000000Y-81500000D03*
%TD*%
%TO.P,C1,1*%
%TO.N,/CCD_ADC*%
X156500000Y-79000000D03*
%TO.P,C1,2*%
%TO.N,GND*%
X151500000Y-79000000D03*
%TD*%
D16*
%TO.N,GND*%
X160500000Y-91500000D03*
X173500000Y-91500000D03*
X173500000Y-106000000D03*
X148000000Y-106000000D03*
X135500000Y-106000000D03*
X134500000Y-87000000D03*
X148500000Y-86500000D03*
X157500000Y-63000000D03*
%TO.N,Net-(U2-Pad5)*%
X129500000Y-65290000D03*
X129500000Y-66540000D03*
%TO.N,GND*%
X125500000Y-71500000D03*
X161000000Y-83000000D03*
X176500000Y-63500000D03*
X168000000Y-63500000D03*
X151000000Y-74000000D03*
X150000000Y-79000000D03*
X134000000Y-81500000D03*
X141500000Y-81500000D03*
X124500000Y-76000000D03*
X126000000Y-50500000D03*
%TO.N,Net-(D3-A)*%
X139500000Y-71816942D03*
X140500000Y-70500000D03*
%TO.N,Net-(D4-A)*%
X171000000Y-72925000D03*
X171000000Y-74625000D03*
%TO.N,Net-(D1-A)*%
X141500000Y-45150000D03*
X141500000Y-46400000D03*
%TO.N,Net-(Q1-B)*%
X169731942Y-82731942D03*
X165978058Y-82521942D03*
X159651942Y-79500000D03*
X158401942Y-79500000D03*
X157125000Y-77000000D03*
X155875000Y-77000000D03*
%TO.N,/LED_CATHODES*%
X144808058Y-71191942D03*
X146191942Y-70808058D03*
X158808058Y-71691942D03*
X159941942Y-71058058D03*
X166500000Y-52440000D03*
X166500000Y-60000000D03*
%TO.N,/LED_5V*%
X173080860Y-87000000D03*
X171830860Y-87000000D03*
X168000000Y-84500000D03*
X167348058Y-83348058D03*
X159026942Y-83473058D03*
X156420000Y-84500000D03*
%TO.N,+3.3V*%
X163040000Y-99000000D03*
X156420000Y-98500000D03*
X140500000Y-98000000D03*
X138640000Y-98000000D03*
%TO.N,/ICG*%
X139191942Y-63808058D03*
X138308058Y-64691942D03*
%TO.N,/LED_ENABLE*%
X164780000Y-89001942D03*
X165000000Y-87000000D03*
%TO.N,/GP4*%
X156000000Y-83000000D03*
X157670000Y-83000000D03*
%TO.N,GND*%
X153000000Y-69000000D03*
X160500000Y-69000000D03*
%TD*%
%TO.N,Net-(U2-Pad5)*%
D17*
X129500000Y-66540000D02*
X129500000Y-65290000D01*
%TO.N,Net-(D3-A)*%
X139500000Y-71500000D02*
X139500000Y-71816942D01*
X140500000Y-70500000D02*
X139500000Y-71500000D01*
%TO.N,Net-(D4-A)*%
X171000000Y-72925000D02*
X171000000Y-74625000D01*
%TO.N,Net-(D1-A)*%
X141500000Y-46400000D02*
X141500000Y-45150000D01*
%TO.N,Net-(Q1-B)*%
X169500000Y-82500000D02*
X169731942Y-82731942D01*
X165978058Y-82521942D02*
X166000000Y-82500000D01*
X166000000Y-82500000D02*
X169500000Y-82500000D01*
X158401942Y-79500000D02*
X159651942Y-79500000D01*
X155875000Y-77000000D02*
X157125000Y-77000000D01*
%TO.N,/LED_CATHODES*%
X145191942Y-70808058D02*
X144808058Y-71191942D01*
X146191942Y-70808058D02*
X145191942Y-70808058D01*
X159441942Y-71058058D02*
X158808058Y-71691942D01*
X159941942Y-71058058D02*
X159441942Y-71058058D01*
X166500000Y-52440000D02*
X166500000Y-60000000D01*
%TO.N,/LED_5V*%
X171830860Y-87000000D02*
X173080860Y-87000000D01*
X167348058Y-83848058D02*
X168000000Y-84500000D01*
X167348058Y-83348058D02*
X167348058Y-83848058D01*
X158000000Y-84500000D02*
X159026942Y-83473058D01*
X156420000Y-84500000D02*
X158000000Y-84500000D01*
%TO.N,+3.3V*%
X159500000Y-97500000D02*
X161540000Y-97500000D01*
X156420000Y-98500000D02*
X158500000Y-98500000D01*
X158500000Y-98500000D02*
X159500000Y-97500000D01*
X161540000Y-97500000D02*
X163040000Y-99000000D01*
X138640000Y-98000000D02*
X140500000Y-98000000D01*
%TO.N,/ICG*%
X138308058Y-64691942D02*
X139191942Y-63808058D01*
%TO.N,/LED_ENABLE*%
X164780000Y-87220000D02*
X165000000Y-87000000D01*
X164780000Y-89001942D02*
X164780000Y-87220000D01*
%TO.N,/GP4*%
X157670000Y-83000000D02*
X156000000Y-83000000D01*
%TD*%
%TA.AperFunction,Conductor*%
%TO.N,GND*%
G36*
X177503736Y-35500726D02*
G01*
X177793796Y-35518271D01*
X177808657Y-35520075D01*
X178029507Y-35560548D01*
X178091900Y-35591994D01*
X178094836Y-35594836D01*
X179905162Y-37405162D01*
X179938647Y-37466485D01*
X179939450Y-37470491D01*
X179979923Y-37691340D01*
X179981728Y-37706205D01*
X179999274Y-37996263D01*
X179999500Y-38003750D01*
X179999500Y-95343186D01*
X179979815Y-95410225D01*
X179927011Y-95455980D01*
X179857853Y-95465924D01*
X179794297Y-95436899D01*
X179775182Y-95416071D01*
X179680109Y-95285214D01*
X179680105Y-95285209D01*
X179529786Y-95134890D01*
X179357820Y-95009951D01*
X179168414Y-94913444D01*
X179168413Y-94913443D01*
X179168412Y-94913443D01*
X178966243Y-94847754D01*
X178966241Y-94847753D01*
X178966240Y-94847753D01*
X178804957Y-94822208D01*
X178756287Y-94814500D01*
X178543713Y-94814500D01*
X178495042Y-94822208D01*
X178333760Y-94847753D01*
X178131585Y-94913444D01*
X177942179Y-95009951D01*
X177770213Y-95134890D01*
X177619890Y-95285213D01*
X177494951Y-95457179D01*
X177398444Y-95646585D01*
X177332753Y-95848760D01*
X177299500Y-96058713D01*
X177299500Y-96271286D01*
X177332753Y-96481239D01*
X177398444Y-96683414D01*
X177494951Y-96872820D01*
X177619890Y-97044786D01*
X177770213Y-97195109D01*
X177942179Y-97320048D01*
X177942181Y-97320049D01*
X177942184Y-97320051D01*
X178131588Y-97416557D01*
X178333757Y-97482246D01*
X178543713Y-97515500D01*
X178543714Y-97515500D01*
X178756286Y-97515500D01*
X178756287Y-97515500D01*
X178966243Y-97482246D01*
X179168412Y-97416557D01*
X179357816Y-97320051D01*
X179398349Y-97290602D01*
X179529786Y-97195109D01*
X179529788Y-97195106D01*
X179529792Y-97195104D01*
X179680104Y-97044792D01*
X179775182Y-96913926D01*
X179830511Y-96871262D01*
X179900124Y-96865283D01*
X179961920Y-96897888D01*
X179996277Y-96958727D01*
X179999500Y-96986813D01*
X179999500Y-100793186D01*
X179979815Y-100860225D01*
X179927011Y-100905980D01*
X179857853Y-100915924D01*
X179794297Y-100886899D01*
X179775182Y-100866071D01*
X179680109Y-100735214D01*
X179680105Y-100735209D01*
X179529786Y-100584890D01*
X179357820Y-100459951D01*
X179168414Y-100363444D01*
X179168413Y-100363443D01*
X179168412Y-100363443D01*
X178966243Y-100297754D01*
X178966241Y-100297753D01*
X178966240Y-100297753D01*
X178804957Y-100272208D01*
X178756287Y-100264500D01*
X178543713Y-100264500D01*
X178495042Y-100272208D01*
X178333760Y-100297753D01*
X178131585Y-100363444D01*
X177942179Y-100459951D01*
X177770213Y-100584890D01*
X177619890Y-100735213D01*
X177494951Y-100907179D01*
X177398444Y-101096585D01*
X177332753Y-101298760D01*
X177299500Y-101508713D01*
X177299500Y-101721286D01*
X177332730Y-101931096D01*
X177332754Y-101931243D01*
X177381344Y-102080788D01*
X177398444Y-102133414D01*
X177494951Y-102322820D01*
X177619890Y-102494786D01*
X177770213Y-102645109D01*
X177942179Y-102770048D01*
X177942181Y-102770049D01*
X177942184Y-102770051D01*
X178131588Y-102866557D01*
X178333757Y-102932246D01*
X178543713Y-102965500D01*
X178543714Y-102965500D01*
X178756286Y-102965500D01*
X178756287Y-102965500D01*
X178966243Y-102932246D01*
X179168412Y-102866557D01*
X179357816Y-102770051D01*
X179379789Y-102754086D01*
X179529786Y-102645109D01*
X179529788Y-102645106D01*
X179529792Y-102645104D01*
X179680104Y-102494792D01*
X179775182Y-102363926D01*
X179830511Y-102321262D01*
X179900124Y-102315283D01*
X179961920Y-102347888D01*
X179996277Y-102408727D01*
X179999500Y-102436813D01*
X179999500Y-117496249D01*
X179999274Y-117503736D01*
X179981728Y-117793794D01*
X179979923Y-117808659D01*
X179939451Y-118029506D01*
X179908004Y-118091899D01*
X179905163Y-118094835D01*
X178094835Y-119905163D01*
X178033512Y-119938648D01*
X178029506Y-119939451D01*
X177808659Y-119979923D01*
X177793794Y-119981728D01*
X177503736Y-119999274D01*
X177496249Y-119999500D01*
X123050862Y-119999500D01*
X122983823Y-119979815D01*
X122963181Y-119963181D01*
X120536819Y-117536819D01*
X120503334Y-117475496D01*
X120500500Y-117449138D01*
X120500500Y-115378711D01*
X123149500Y-115378711D01*
X123149500Y-115621288D01*
X123181161Y-115861785D01*
X123243947Y-116096104D01*
X123336773Y-116320205D01*
X123336776Y-116320212D01*
X123458064Y-116530289D01*
X123458066Y-116530292D01*
X123458067Y-116530293D01*
X123605733Y-116722736D01*
X123605739Y-116722743D01*
X123777256Y-116894260D01*
X123777262Y-116894265D01*
X123969711Y-117041936D01*
X124179788Y-117163224D01*
X124403900Y-117256054D01*
X124638211Y-117318838D01*
X124818586Y-117342584D01*
X124878711Y-117350500D01*
X124878712Y-117350500D01*
X125121289Y-117350500D01*
X125169388Y-117344167D01*
X125361789Y-117318838D01*
X125596100Y-117256054D01*
X125820212Y-117163224D01*
X126030289Y-117041936D01*
X126222738Y-116894265D01*
X126394265Y-116722738D01*
X126541936Y-116530289D01*
X126663224Y-116320212D01*
X126756054Y-116096100D01*
X126818838Y-115861789D01*
X126850500Y-115621288D01*
X126850500Y-115378712D01*
X126850500Y-115378711D01*
X173649500Y-115378711D01*
X173649500Y-115621288D01*
X173681161Y-115861785D01*
X173743947Y-116096104D01*
X173836773Y-116320205D01*
X173836776Y-116320212D01*
X173958064Y-116530289D01*
X173958066Y-116530292D01*
X173958067Y-116530293D01*
X174105733Y-116722736D01*
X174105739Y-116722743D01*
X174277256Y-116894260D01*
X174277262Y-116894265D01*
X174469711Y-117041936D01*
X174679788Y-117163224D01*
X174903900Y-117256054D01*
X175138211Y-117318838D01*
X175318586Y-117342584D01*
X175378711Y-117350500D01*
X175378712Y-117350500D01*
X175621289Y-117350500D01*
X175669388Y-117344167D01*
X175861789Y-117318838D01*
X176096100Y-117256054D01*
X176320212Y-117163224D01*
X176530289Y-117041936D01*
X176722738Y-116894265D01*
X176894265Y-116722738D01*
X177041936Y-116530289D01*
X177163224Y-116320212D01*
X177256054Y-116096100D01*
X177318838Y-115861789D01*
X177350500Y-115621288D01*
X177350500Y-115378712D01*
X177318838Y-115138211D01*
X177256054Y-114903900D01*
X177163224Y-114679788D01*
X177041936Y-114469711D01*
X176894265Y-114277262D01*
X176894260Y-114277256D01*
X176722743Y-114105739D01*
X176722736Y-114105733D01*
X176530293Y-113958067D01*
X176530292Y-113958066D01*
X176530289Y-113958064D01*
X176320212Y-113836776D01*
X176320205Y-113836773D01*
X176096104Y-113743947D01*
X175861785Y-113681161D01*
X175621289Y-113649500D01*
X175621288Y-113649500D01*
X175378712Y-113649500D01*
X175378711Y-113649500D01*
X175138214Y-113681161D01*
X174903895Y-113743947D01*
X174679794Y-113836773D01*
X174679785Y-113836777D01*
X174469706Y-113958067D01*
X174277263Y-114105733D01*
X174277256Y-114105739D01*
X174105739Y-114277256D01*
X174105733Y-114277263D01*
X173958067Y-114469706D01*
X173836777Y-114679785D01*
X173836773Y-114679794D01*
X173743947Y-114903895D01*
X173681161Y-115138214D01*
X173649500Y-115378711D01*
X126850500Y-115378711D01*
X126818838Y-115138211D01*
X126756054Y-114903900D01*
X126663224Y-114679788D01*
X126541936Y-114469711D01*
X126394265Y-114277262D01*
X126394260Y-114277256D01*
X126222743Y-114105739D01*
X126222736Y-114105733D01*
X126030293Y-113958067D01*
X126030292Y-113958066D01*
X126030289Y-113958064D01*
X125820212Y-113836776D01*
X125820205Y-113836773D01*
X125596104Y-113743947D01*
X125361785Y-113681161D01*
X125121289Y-113649500D01*
X125121288Y-113649500D01*
X124878712Y-113649500D01*
X124878711Y-113649500D01*
X124638214Y-113681161D01*
X124403895Y-113743947D01*
X124179794Y-113836773D01*
X124179785Y-113836777D01*
X123969706Y-113958067D01*
X123777263Y-114105733D01*
X123777256Y-114105739D01*
X123605739Y-114277256D01*
X123605733Y-114277263D01*
X123458067Y-114469706D01*
X123336777Y-114679785D01*
X123336773Y-114679794D01*
X123243947Y-114903895D01*
X123181161Y-115138214D01*
X123149500Y-115378711D01*
X120500500Y-115378711D01*
X120500500Y-101222486D01*
X174444500Y-101222486D01*
X174444500Y-101407513D01*
X174473445Y-101590265D01*
X174530619Y-101766232D01*
X174530620Y-101766235D01*
X174614622Y-101931096D01*
X174723379Y-102080787D01*
X174854213Y-102211621D01*
X175003904Y-102320378D01*
X175084763Y-102361577D01*
X175168764Y-102404379D01*
X175168767Y-102404380D01*
X175256750Y-102432967D01*
X175344736Y-102461555D01*
X175527486Y-102490500D01*
X175527487Y-102490500D01*
X175712513Y-102490500D01*
X175712514Y-102490500D01*
X175895264Y-102461555D01*
X176071235Y-102404379D01*
X176236096Y-102320378D01*
X176385787Y-102211621D01*
X176516621Y-102080787D01*
X176625378Y-101931096D01*
X176709379Y-101766235D01*
X176766555Y-101590264D01*
X176795500Y-101407514D01*
X176795500Y-101222486D01*
X176766555Y-101039736D01*
X176723485Y-100907179D01*
X176709380Y-100863767D01*
X176709379Y-100863764D01*
X176625377Y-100698903D01*
X176516621Y-100549213D01*
X176385787Y-100418379D01*
X176236096Y-100309622D01*
X176212802Y-100297753D01*
X176071235Y-100225620D01*
X176071232Y-100225619D01*
X175895265Y-100168445D01*
X175803889Y-100153972D01*
X175712514Y-100139500D01*
X175527486Y-100139500D01*
X175466569Y-100149148D01*
X175344734Y-100168445D01*
X175168767Y-100225619D01*
X175168764Y-100225620D01*
X175003903Y-100309622D01*
X174929826Y-100363443D01*
X174854213Y-100418379D01*
X174854211Y-100418381D01*
X174854210Y-100418381D01*
X174723381Y-100549210D01*
X174723381Y-100549211D01*
X174723379Y-100549213D01*
X174697458Y-100584890D01*
X174614622Y-100698903D01*
X174530620Y-100863764D01*
X174530619Y-100863767D01*
X174473445Y-101039734D01*
X174444500Y-101222486D01*
X120500500Y-101222486D01*
X120500500Y-97921153D01*
X137839500Y-97921153D01*
X137839500Y-98078846D01*
X137870261Y-98233489D01*
X137870264Y-98233501D01*
X137930602Y-98379172D01*
X137930609Y-98379185D01*
X138018210Y-98510288D01*
X138018213Y-98510292D01*
X138129707Y-98621786D01*
X138129711Y-98621789D01*
X138260814Y-98709390D01*
X138260827Y-98709397D01*
X138398683Y-98766498D01*
X138406503Y-98769737D01*
X138561153Y-98800499D01*
X138561156Y-98800500D01*
X138561158Y-98800500D01*
X138718844Y-98800500D01*
X138718845Y-98800499D01*
X138873497Y-98769737D01*
X139019179Y-98709394D01*
X139113459Y-98646398D01*
X139180136Y-98625520D01*
X139182350Y-98625500D01*
X139957650Y-98625500D01*
X140024689Y-98645185D01*
X140026541Y-98646398D01*
X140120821Y-98709394D01*
X140120823Y-98709395D01*
X140120827Y-98709397D01*
X140258683Y-98766498D01*
X140266503Y-98769737D01*
X140421153Y-98800499D01*
X140421156Y-98800500D01*
X140421158Y-98800500D01*
X140578844Y-98800500D01*
X140578845Y-98800499D01*
X140733497Y-98769737D01*
X140879179Y-98709394D01*
X141010289Y-98621789D01*
X141121789Y-98510289D01*
X141181348Y-98421153D01*
X155619500Y-98421153D01*
X155619500Y-98578846D01*
X155650261Y-98733489D01*
X155650264Y-98733501D01*
X155710602Y-98879172D01*
X155710609Y-98879185D01*
X155798210Y-99010288D01*
X155798213Y-99010292D01*
X155909707Y-99121786D01*
X155909711Y-99121789D01*
X156040814Y-99209390D01*
X156040827Y-99209397D01*
X156186498Y-99269735D01*
X156186503Y-99269737D01*
X156341153Y-99300499D01*
X156341156Y-99300500D01*
X156341158Y-99300500D01*
X156498844Y-99300500D01*
X156498845Y-99300499D01*
X156653497Y-99269737D01*
X156799179Y-99209394D01*
X156893459Y-99146398D01*
X156960136Y-99125520D01*
X156962350Y-99125500D01*
X158561607Y-99125500D01*
X158622029Y-99113481D01*
X158682452Y-99101463D01*
X158682455Y-99101461D01*
X158682458Y-99101461D01*
X158715787Y-99087654D01*
X158715786Y-99087654D01*
X158715792Y-99087652D01*
X158796286Y-99054312D01*
X158862169Y-99010289D01*
X158898733Y-98985858D01*
X158985858Y-98898733D01*
X158985858Y-98898731D01*
X158996066Y-98888524D01*
X158996067Y-98888521D01*
X159722772Y-98161819D01*
X159784095Y-98128334D01*
X159810453Y-98125500D01*
X161229548Y-98125500D01*
X161296587Y-98145185D01*
X161317229Y-98161819D01*
X162214205Y-99058796D01*
X162247690Y-99120119D01*
X162248141Y-99122286D01*
X162270261Y-99233489D01*
X162270264Y-99233501D01*
X162330602Y-99379172D01*
X162330609Y-99379185D01*
X162418210Y-99510288D01*
X162418213Y-99510292D01*
X162529707Y-99621786D01*
X162529711Y-99621789D01*
X162660814Y-99709390D01*
X162660827Y-99709397D01*
X162806498Y-99769735D01*
X162806503Y-99769737D01*
X162961153Y-99800499D01*
X162961156Y-99800500D01*
X162961158Y-99800500D01*
X163118844Y-99800500D01*
X163118845Y-99800499D01*
X163273497Y-99769737D01*
X163419179Y-99709394D01*
X163550289Y-99621789D01*
X163661789Y-99510289D01*
X163749394Y-99379179D01*
X163809737Y-99233497D01*
X163840500Y-99078842D01*
X163840500Y-98921158D01*
X163840500Y-98921155D01*
X163840499Y-98921153D01*
X163809738Y-98766510D01*
X163809737Y-98766503D01*
X163786080Y-98709390D01*
X163749397Y-98620827D01*
X163749390Y-98620814D01*
X163661789Y-98489711D01*
X163661786Y-98489707D01*
X163550292Y-98378213D01*
X163550288Y-98378210D01*
X163419185Y-98290609D01*
X163419172Y-98290602D01*
X163273501Y-98230264D01*
X163273489Y-98230261D01*
X163162286Y-98208141D01*
X163100375Y-98175756D01*
X163098796Y-98174205D01*
X162032928Y-97108338D01*
X162032925Y-97108334D01*
X162032925Y-97108335D01*
X162025858Y-97101268D01*
X162025858Y-97101267D01*
X161938733Y-97014142D01*
X161938732Y-97014141D01*
X161938731Y-97014140D01*
X161887509Y-96979915D01*
X161836286Y-96945688D01*
X161836283Y-96945686D01*
X161836280Y-96945685D01*
X161755792Y-96912347D01*
X161722453Y-96898537D01*
X161712427Y-96896543D01*
X161662029Y-96886518D01*
X161601610Y-96874500D01*
X161601607Y-96874500D01*
X161601606Y-96874500D01*
X159567741Y-96874500D01*
X159567721Y-96874499D01*
X159561607Y-96874499D01*
X159438394Y-96874499D01*
X159337597Y-96894548D01*
X159337592Y-96894548D01*
X159317548Y-96898536D01*
X159317545Y-96898537D01*
X159274824Y-96916234D01*
X159274821Y-96916235D01*
X159203714Y-96945688D01*
X159203712Y-96945689D01*
X159101267Y-97014141D01*
X159101263Y-97014144D01*
X158277229Y-97838181D01*
X158215906Y-97871666D01*
X158189548Y-97874500D01*
X156962350Y-97874500D01*
X156895311Y-97854815D01*
X156893459Y-97853602D01*
X156799184Y-97790609D01*
X156799172Y-97790602D01*
X156653501Y-97730264D01*
X156653489Y-97730261D01*
X156498845Y-97699500D01*
X156498842Y-97699500D01*
X156341158Y-97699500D01*
X156341155Y-97699500D01*
X156186510Y-97730261D01*
X156186498Y-97730264D01*
X156040827Y-97790602D01*
X156040814Y-97790609D01*
X155909711Y-97878210D01*
X155909707Y-97878213D01*
X155798213Y-97989707D01*
X155798210Y-97989711D01*
X155710609Y-98120814D01*
X155710602Y-98120827D01*
X155650264Y-98266498D01*
X155650261Y-98266510D01*
X155619500Y-98421153D01*
X141181348Y-98421153D01*
X141209394Y-98379179D01*
X141269737Y-98233497D01*
X141300500Y-98078842D01*
X141300500Y-97921158D01*
X141300500Y-97921155D01*
X141300499Y-97921153D01*
X141274531Y-97790606D01*
X141269737Y-97766503D01*
X141269735Y-97766498D01*
X141209397Y-97620827D01*
X141209390Y-97620814D01*
X141121789Y-97489711D01*
X141121786Y-97489707D01*
X141010292Y-97378213D01*
X141010288Y-97378210D01*
X140879185Y-97290609D01*
X140879172Y-97290602D01*
X140733501Y-97230264D01*
X140733489Y-97230261D01*
X140578845Y-97199500D01*
X140578842Y-97199500D01*
X140421158Y-97199500D01*
X140421155Y-97199500D01*
X140266510Y-97230261D01*
X140266498Y-97230264D01*
X140120827Y-97290602D01*
X140120815Y-97290609D01*
X140026541Y-97353602D01*
X139959864Y-97374480D01*
X139957650Y-97374500D01*
X139182350Y-97374500D01*
X139115311Y-97354815D01*
X139113459Y-97353602D01*
X139019184Y-97290609D01*
X139019172Y-97290602D01*
X138873501Y-97230264D01*
X138873489Y-97230261D01*
X138718845Y-97199500D01*
X138718842Y-97199500D01*
X138561158Y-97199500D01*
X138561155Y-97199500D01*
X138406510Y-97230261D01*
X138406498Y-97230264D01*
X138260827Y-97290602D01*
X138260814Y-97290609D01*
X138129711Y-97378210D01*
X138129707Y-97378213D01*
X138018213Y-97489707D01*
X138018210Y-97489711D01*
X137930609Y-97620814D01*
X137930602Y-97620827D01*
X137870264Y-97766498D01*
X137870261Y-97766510D01*
X137839500Y-97921153D01*
X120500500Y-97921153D01*
X120500500Y-96372486D01*
X174444500Y-96372486D01*
X174444500Y-96557513D01*
X174473445Y-96740265D01*
X174530619Y-96916232D01*
X174530620Y-96916234D01*
X174580507Y-97014142D01*
X174614622Y-97081096D01*
X174723379Y-97230787D01*
X174854213Y-97361621D01*
X175003904Y-97470378D01*
X175084763Y-97511577D01*
X175168764Y-97554379D01*
X175168767Y-97554380D01*
X175256750Y-97582967D01*
X175344736Y-97611555D01*
X175527486Y-97640500D01*
X175527487Y-97640500D01*
X175712513Y-97640500D01*
X175712514Y-97640500D01*
X175895264Y-97611555D01*
X176071235Y-97554379D01*
X176236096Y-97470378D01*
X176385787Y-97361621D01*
X176516621Y-97230787D01*
X176625378Y-97081096D01*
X176687728Y-96958727D01*
X176709380Y-96916234D01*
X176709380Y-96916232D01*
X176719034Y-96886519D01*
X176766555Y-96740264D01*
X176795500Y-96557514D01*
X176795500Y-96372486D01*
X176766555Y-96189736D01*
X176737967Y-96101750D01*
X176709380Y-96013767D01*
X176709379Y-96013764D01*
X176625377Y-95848903D01*
X176625271Y-95848757D01*
X176516621Y-95699213D01*
X176385787Y-95568379D01*
X176236096Y-95459622D01*
X176191500Y-95436899D01*
X176071235Y-95375620D01*
X176071232Y-95375619D01*
X175895265Y-95318445D01*
X175803889Y-95303972D01*
X175712514Y-95289500D01*
X175527486Y-95289500D01*
X175466569Y-95299148D01*
X175344734Y-95318445D01*
X175168767Y-95375619D01*
X175168764Y-95375620D01*
X175003903Y-95459622D01*
X174918499Y-95521672D01*
X174854213Y-95568379D01*
X174854211Y-95568381D01*
X174854210Y-95568381D01*
X174723381Y-95699210D01*
X174723381Y-95699211D01*
X174723379Y-95699213D01*
X174676672Y-95763499D01*
X174614622Y-95848903D01*
X174530620Y-96013764D01*
X174530619Y-96013767D01*
X174473445Y-96189734D01*
X174444500Y-96372486D01*
X120500500Y-96372486D01*
X120500500Y-88923095D01*
X163979500Y-88923095D01*
X163979500Y-89080788D01*
X164010261Y-89235431D01*
X164010264Y-89235443D01*
X164070602Y-89381114D01*
X164070609Y-89381127D01*
X164158210Y-89512230D01*
X164158213Y-89512234D01*
X164269707Y-89623728D01*
X164269711Y-89623731D01*
X164400814Y-89711332D01*
X164400827Y-89711339D01*
X164546498Y-89771677D01*
X164546503Y-89771679D01*
X164701153Y-89802441D01*
X164701156Y-89802442D01*
X164701158Y-89802442D01*
X164858844Y-89802442D01*
X164858845Y-89802441D01*
X165013497Y-89771679D01*
X165159179Y-89711336D01*
X165290289Y-89623731D01*
X165401789Y-89512231D01*
X165489394Y-89381121D01*
X165549737Y-89235439D01*
X165580500Y-89080784D01*
X165580500Y-88923100D01*
X165580500Y-88923097D01*
X165580499Y-88923095D01*
X165549738Y-88768452D01*
X165549737Y-88768445D01*
X165489394Y-88622763D01*
X165426397Y-88528481D01*
X165405520Y-88461805D01*
X165405500Y-88459592D01*
X165405500Y-87758085D01*
X165425185Y-87691046D01*
X165460606Y-87654985D01*
X165510289Y-87621789D01*
X165621789Y-87510289D01*
X165709394Y-87379179D01*
X165769737Y-87233497D01*
X165800500Y-87078842D01*
X165800500Y-86921158D01*
X165800500Y-86921155D01*
X165800499Y-86921153D01*
X171030360Y-86921153D01*
X171030360Y-87078846D01*
X171061121Y-87233489D01*
X171061124Y-87233501D01*
X171121462Y-87379172D01*
X171121469Y-87379185D01*
X171209070Y-87510288D01*
X171209073Y-87510292D01*
X171320567Y-87621786D01*
X171320571Y-87621789D01*
X171451674Y-87709390D01*
X171451687Y-87709397D01*
X171569232Y-87758085D01*
X171597363Y-87769737D01*
X171752013Y-87800499D01*
X171752016Y-87800500D01*
X171752018Y-87800500D01*
X171909704Y-87800500D01*
X171909705Y-87800499D01*
X172064357Y-87769737D01*
X172210039Y-87709394D01*
X172304319Y-87646398D01*
X172370996Y-87625520D01*
X172373210Y-87625500D01*
X172538510Y-87625500D01*
X172605549Y-87645185D01*
X172607401Y-87646398D01*
X172701681Y-87709394D01*
X172701683Y-87709395D01*
X172701687Y-87709397D01*
X172819232Y-87758085D01*
X172847363Y-87769737D01*
X173002013Y-87800499D01*
X173002016Y-87800500D01*
X173002018Y-87800500D01*
X173159704Y-87800500D01*
X173159705Y-87800499D01*
X173314357Y-87769737D01*
X173460039Y-87709394D01*
X173591149Y-87621789D01*
X173702649Y-87510289D01*
X173790254Y-87379179D01*
X173850597Y-87233497D01*
X173881360Y-87078842D01*
X173881360Y-86921158D01*
X173881360Y-86921155D01*
X173881359Y-86921153D01*
X173850598Y-86766510D01*
X173850597Y-86766503D01*
X173850595Y-86766498D01*
X173790257Y-86620827D01*
X173790250Y-86620814D01*
X173702649Y-86489711D01*
X173702646Y-86489707D01*
X173591152Y-86378213D01*
X173591148Y-86378210D01*
X173460045Y-86290609D01*
X173460032Y-86290602D01*
X173314361Y-86230264D01*
X173314349Y-86230261D01*
X173159705Y-86199500D01*
X173159702Y-86199500D01*
X173002018Y-86199500D01*
X173002015Y-86199500D01*
X172847370Y-86230261D01*
X172847358Y-86230264D01*
X172701687Y-86290602D01*
X172701675Y-86290609D01*
X172607401Y-86353602D01*
X172540724Y-86374480D01*
X172538510Y-86374500D01*
X172373210Y-86374500D01*
X172306171Y-86354815D01*
X172304319Y-86353602D01*
X172210044Y-86290609D01*
X172210032Y-86290602D01*
X172064361Y-86230264D01*
X172064349Y-86230261D01*
X171909705Y-86199500D01*
X171909702Y-86199500D01*
X171752018Y-86199500D01*
X171752015Y-86199500D01*
X171597370Y-86230261D01*
X171597358Y-86230264D01*
X171451687Y-86290602D01*
X171451674Y-86290609D01*
X171320571Y-86378210D01*
X171320567Y-86378213D01*
X171209073Y-86489707D01*
X171209070Y-86489711D01*
X171121469Y-86620814D01*
X171121462Y-86620827D01*
X171061124Y-86766498D01*
X171061121Y-86766510D01*
X171030360Y-86921153D01*
X165800499Y-86921153D01*
X165769738Y-86766510D01*
X165769737Y-86766503D01*
X165769735Y-86766498D01*
X165709397Y-86620827D01*
X165709390Y-86620814D01*
X165621789Y-86489711D01*
X165621786Y-86489707D01*
X165510292Y-86378213D01*
X165510288Y-86378210D01*
X165379185Y-86290609D01*
X165379172Y-86290602D01*
X165233501Y-86230264D01*
X165233489Y-86230261D01*
X165078845Y-86199500D01*
X165078842Y-86199500D01*
X164921158Y-86199500D01*
X164921155Y-86199500D01*
X164766510Y-86230261D01*
X164766498Y-86230264D01*
X164620827Y-86290602D01*
X164620814Y-86290609D01*
X164489711Y-86378210D01*
X164489707Y-86378213D01*
X164378213Y-86489707D01*
X164378210Y-86489711D01*
X164290609Y-86620814D01*
X164290602Y-86620827D01*
X164230264Y-86766498D01*
X164230261Y-86766510D01*
X164199500Y-86921153D01*
X164199500Y-86962273D01*
X164190061Y-87009726D01*
X164178539Y-87037541D01*
X164178535Y-87037553D01*
X164154500Y-87158389D01*
X164154500Y-88459592D01*
X164134815Y-88526631D01*
X164133602Y-88528483D01*
X164070609Y-88622757D01*
X164070602Y-88622770D01*
X164010264Y-88768440D01*
X164010261Y-88768452D01*
X163979500Y-88923095D01*
X120500500Y-88923095D01*
X120500500Y-82921153D01*
X155199500Y-82921153D01*
X155199500Y-83078846D01*
X155230261Y-83233489D01*
X155230264Y-83233501D01*
X155290602Y-83379172D01*
X155290609Y-83379185D01*
X155378210Y-83510288D01*
X155378213Y-83510292D01*
X155489707Y-83621786D01*
X155489711Y-83621789D01*
X155620814Y-83709390D01*
X155620827Y-83709397D01*
X155772130Y-83772068D01*
X155771127Y-83774487D01*
X155820056Y-83806538D01*
X155848525Y-83870344D01*
X155837979Y-83939413D01*
X155813321Y-83974599D01*
X155798214Y-83989705D01*
X155798210Y-83989711D01*
X155710609Y-84120814D01*
X155710602Y-84120827D01*
X155650264Y-84266498D01*
X155650261Y-84266510D01*
X155619500Y-84421153D01*
X155619500Y-84578846D01*
X155650261Y-84733489D01*
X155650264Y-84733501D01*
X155710602Y-84879172D01*
X155710609Y-84879185D01*
X155798210Y-85010288D01*
X155798213Y-85010292D01*
X155909707Y-85121786D01*
X155909711Y-85121789D01*
X156040814Y-85209390D01*
X156040827Y-85209397D01*
X156186498Y-85269735D01*
X156186503Y-85269737D01*
X156341153Y-85300499D01*
X156341156Y-85300500D01*
X156341158Y-85300500D01*
X156498844Y-85300500D01*
X156498845Y-85300499D01*
X156653497Y-85269737D01*
X156799179Y-85209394D01*
X156893459Y-85146398D01*
X156960136Y-85125520D01*
X156962350Y-85125500D01*
X158061607Y-85125500D01*
X158122029Y-85113481D01*
X158182452Y-85101463D01*
X158182455Y-85101461D01*
X158182458Y-85101461D01*
X158215787Y-85087654D01*
X158215786Y-85087654D01*
X158215792Y-85087652D01*
X158296286Y-85054312D01*
X158362169Y-85010289D01*
X158398733Y-84985858D01*
X158485858Y-84898733D01*
X158485859Y-84898731D01*
X158492925Y-84891665D01*
X158492928Y-84891661D01*
X159085739Y-84298849D01*
X159147060Y-84265366D01*
X159149070Y-84264947D01*
X159260439Y-84242795D01*
X159406121Y-84182452D01*
X159447725Y-84154652D01*
X159514402Y-84133774D01*
X159581782Y-84152258D01*
X159628473Y-84204236D01*
X159639651Y-84273205D01*
X159639090Y-84277152D01*
X159620000Y-84397682D01*
X159620000Y-84602317D01*
X159652009Y-84804417D01*
X159715244Y-84999031D01*
X159808141Y-85181350D01*
X159808147Y-85181359D01*
X159840523Y-85225921D01*
X159840524Y-85225922D01*
X160520000Y-84546446D01*
X160520000Y-84552661D01*
X160547259Y-84654394D01*
X160599920Y-84745606D01*
X160674394Y-84820080D01*
X160765606Y-84872741D01*
X160867339Y-84900000D01*
X160873553Y-84900000D01*
X160194076Y-85579474D01*
X160238650Y-85611859D01*
X160420968Y-85704755D01*
X160615582Y-85767990D01*
X160817683Y-85800000D01*
X161022317Y-85800000D01*
X161224417Y-85767990D01*
X161419031Y-85704755D01*
X161601349Y-85611859D01*
X161645921Y-85579474D01*
X160966447Y-84900000D01*
X160972661Y-84900000D01*
X161074394Y-84872741D01*
X161165606Y-84820080D01*
X161240080Y-84745606D01*
X161292741Y-84654394D01*
X161320000Y-84552661D01*
X161320000Y-84546448D01*
X161999474Y-85225922D01*
X161999474Y-85225921D01*
X162031859Y-85181349D01*
X162124755Y-84999031D01*
X162187990Y-84804417D01*
X162220000Y-84602317D01*
X162220000Y-84397682D01*
X162187990Y-84195582D01*
X162124755Y-84000968D01*
X162031859Y-83818650D01*
X161999474Y-83774077D01*
X161999474Y-83774076D01*
X161320000Y-84453551D01*
X161320000Y-84447339D01*
X161292741Y-84345606D01*
X161240080Y-84254394D01*
X161165606Y-84179920D01*
X161074394Y-84127259D01*
X160972661Y-84100000D01*
X160966446Y-84100000D01*
X161645922Y-83420524D01*
X161645921Y-83420523D01*
X161601359Y-83388147D01*
X161601350Y-83388141D01*
X161419031Y-83295244D01*
X161224417Y-83232009D01*
X161022317Y-83200000D01*
X160817683Y-83200000D01*
X160615582Y-83232009D01*
X160420968Y-83295244D01*
X160238644Y-83388143D01*
X160194077Y-83420523D01*
X160194077Y-83420524D01*
X160873554Y-84100000D01*
X160867339Y-84100000D01*
X160765606Y-84127259D01*
X160674394Y-84179920D01*
X160599920Y-84254394D01*
X160547259Y-84345606D01*
X160520000Y-84447339D01*
X160520000Y-84453553D01*
X159839617Y-83773170D01*
X159838414Y-83770968D01*
X159836260Y-83769680D01*
X159821753Y-83740456D01*
X159806132Y-83711847D01*
X159805966Y-83708650D01*
X159805195Y-83707097D01*
X159805312Y-83696055D01*
X159804054Y-83671821D01*
X159804641Y-83666527D01*
X159827442Y-83551900D01*
X159827442Y-83394216D01*
X159827442Y-83394213D01*
X159827441Y-83394211D01*
X159824451Y-83379179D01*
X159796679Y-83239561D01*
X159793272Y-83231336D01*
X159736339Y-83093885D01*
X159736332Y-83093872D01*
X159648731Y-82962769D01*
X159648728Y-82962765D01*
X159537234Y-82851271D01*
X159537230Y-82851268D01*
X159406127Y-82763667D01*
X159406114Y-82763660D01*
X159260443Y-82703322D01*
X159260431Y-82703319D01*
X159105787Y-82672558D01*
X159105784Y-82672558D01*
X158948100Y-82672558D01*
X158948097Y-82672558D01*
X158793452Y-82703319D01*
X158793440Y-82703322D01*
X158647769Y-82763660D01*
X158647753Y-82763669D01*
X158609538Y-82789203D01*
X158542860Y-82810080D01*
X158475480Y-82791594D01*
X158428791Y-82739615D01*
X158426105Y-82733594D01*
X158379394Y-82620821D01*
X158379392Y-82620818D01*
X158379390Y-82620814D01*
X158302606Y-82505899D01*
X158291789Y-82489711D01*
X158291786Y-82489707D01*
X158245174Y-82443095D01*
X165177558Y-82443095D01*
X165177558Y-82600788D01*
X165208319Y-82755431D01*
X165208322Y-82755443D01*
X165268660Y-82901114D01*
X165268667Y-82901127D01*
X165356268Y-83032230D01*
X165356271Y-83032234D01*
X165467765Y-83143728D01*
X165467769Y-83143731D01*
X165598872Y-83231332D01*
X165598885Y-83231339D01*
X165744556Y-83291677D01*
X165744561Y-83291679D01*
X165899211Y-83322441D01*
X165899214Y-83322442D01*
X165899216Y-83322442D01*
X166056902Y-83322442D01*
X166056903Y-83322441D01*
X166211555Y-83291679D01*
X166357237Y-83231336D01*
X166357242Y-83231332D01*
X166362612Y-83228463D01*
X166363577Y-83230269D01*
X166421314Y-83212175D01*
X166488699Y-83230643D01*
X166535402Y-83282611D01*
X166547558Y-83336155D01*
X166547558Y-83426904D01*
X166578319Y-83581547D01*
X166578322Y-83581559D01*
X166638660Y-83727230D01*
X166638667Y-83727242D01*
X166701660Y-83821517D01*
X166722538Y-83888194D01*
X166722558Y-83890408D01*
X166722558Y-83909669D01*
X166746593Y-84030502D01*
X166746598Y-84030519D01*
X166793743Y-84144339D01*
X166793748Y-84144348D01*
X166819210Y-84182453D01*
X166819211Y-84182454D01*
X166862199Y-84246790D01*
X166862202Y-84246794D01*
X166953644Y-84338236D01*
X166953666Y-84338256D01*
X167174205Y-84558795D01*
X167207690Y-84620118D01*
X167208141Y-84622285D01*
X167230261Y-84733489D01*
X167230264Y-84733501D01*
X167290602Y-84879172D01*
X167290609Y-84879185D01*
X167378210Y-85010288D01*
X167378213Y-85010292D01*
X167489707Y-85121786D01*
X167489711Y-85121789D01*
X167620814Y-85209390D01*
X167620827Y-85209397D01*
X167766498Y-85269735D01*
X167766503Y-85269737D01*
X167921153Y-85300499D01*
X167921156Y-85300500D01*
X167921158Y-85300500D01*
X168078844Y-85300500D01*
X168078845Y-85300499D01*
X168233497Y-85269737D01*
X168379179Y-85209394D01*
X168510289Y-85121789D01*
X168621789Y-85010289D01*
X168709394Y-84879179D01*
X168769737Y-84733497D01*
X168800500Y-84578842D01*
X168800500Y-84421158D01*
X168800500Y-84421155D01*
X168800499Y-84421153D01*
X168795830Y-84397682D01*
X168769737Y-84266503D01*
X168759917Y-84242795D01*
X168709397Y-84120827D01*
X168709390Y-84120814D01*
X168621789Y-83989711D01*
X168621786Y-83989707D01*
X168510292Y-83878213D01*
X168510288Y-83878210D01*
X168379185Y-83790609D01*
X168379172Y-83790602D01*
X168233501Y-83730264D01*
X168233491Y-83730261D01*
X168215361Y-83726655D01*
X168153450Y-83694270D01*
X168118876Y-83633554D01*
X168117936Y-83580846D01*
X168148558Y-83426902D01*
X168148558Y-83269213D01*
X168147961Y-83263151D01*
X168150410Y-83262909D01*
X168155681Y-83204087D01*
X168198550Y-83148914D01*
X168264442Y-83125677D01*
X168271066Y-83125500D01*
X168965876Y-83125500D01*
X169032915Y-83145185D01*
X169068978Y-83180609D01*
X169110152Y-83242230D01*
X169110155Y-83242234D01*
X169221649Y-83353728D01*
X169221653Y-83353731D01*
X169352756Y-83441332D01*
X169352769Y-83441339D01*
X169498440Y-83501677D01*
X169498445Y-83501679D01*
X169653095Y-83532441D01*
X169653098Y-83532442D01*
X169653100Y-83532442D01*
X169810786Y-83532442D01*
X169874191Y-83519829D01*
X169926341Y-83509456D01*
X169995931Y-83515683D01*
X170051109Y-83558545D01*
X170074354Y-83624435D01*
X170058287Y-83692432D01*
X170050851Y-83703957D01*
X169967714Y-83818387D01*
X169874781Y-84000776D01*
X169811522Y-84195465D01*
X169779500Y-84397648D01*
X169779500Y-84602351D01*
X169811522Y-84804534D01*
X169874781Y-84999223D01*
X169919837Y-85087649D01*
X169967585Y-85181359D01*
X169967715Y-85181613D01*
X170088028Y-85347213D01*
X170232786Y-85491971D01*
X170353226Y-85579474D01*
X170398390Y-85612287D01*
X170514607Y-85671503D01*
X170580776Y-85705218D01*
X170580778Y-85705218D01*
X170580781Y-85705220D01*
X170685137Y-85739127D01*
X170775465Y-85768477D01*
X170876557Y-85784488D01*
X170977648Y-85800500D01*
X170977649Y-85800500D01*
X171182351Y-85800500D01*
X171182352Y-85800500D01*
X171384534Y-85768477D01*
X171579219Y-85705220D01*
X171761610Y-85612287D01*
X171854590Y-85544732D01*
X171927213Y-85491971D01*
X171927215Y-85491968D01*
X171927219Y-85491966D01*
X172071966Y-85347219D01*
X172071968Y-85347215D01*
X172071971Y-85347213D01*
X172128259Y-85269738D01*
X172192287Y-85181610D01*
X172285220Y-84999219D01*
X172348477Y-84804534D01*
X172380500Y-84602352D01*
X172380500Y-84397648D01*
X172360639Y-84272254D01*
X172348477Y-84195465D01*
X172294877Y-84030502D01*
X172285220Y-84000781D01*
X172285218Y-84000778D01*
X172285218Y-84000776D01*
X172222767Y-83878211D01*
X172192287Y-83818390D01*
X172160092Y-83774077D01*
X172071971Y-83652786D01*
X171927213Y-83508028D01*
X171761613Y-83387715D01*
X171761612Y-83387714D01*
X171761610Y-83387713D01*
X171694911Y-83353728D01*
X171579223Y-83294781D01*
X171384534Y-83231522D01*
X171209995Y-83203878D01*
X171182352Y-83199500D01*
X170977648Y-83199500D01*
X170910254Y-83210174D01*
X170775464Y-83231523D01*
X170775461Y-83231523D01*
X170586003Y-83293083D01*
X170516162Y-83295078D01*
X170456329Y-83258998D01*
X170425501Y-83196297D01*
X170433466Y-83126883D01*
X170438948Y-83116755D01*
X170438463Y-83116496D01*
X170441332Y-83111126D01*
X170441336Y-83111121D01*
X170501679Y-82965439D01*
X170532442Y-82810784D01*
X170532442Y-82653100D01*
X170532442Y-82653097D01*
X170532441Y-82653095D01*
X170526020Y-82620814D01*
X170501679Y-82498445D01*
X170478755Y-82443100D01*
X170441339Y-82352769D01*
X170441332Y-82352756D01*
X170353731Y-82221653D01*
X170353728Y-82221649D01*
X170242234Y-82110155D01*
X170242230Y-82110152D01*
X170111127Y-82022551D01*
X170111114Y-82022544D01*
X169965443Y-81962206D01*
X169965431Y-81962203D01*
X169810787Y-81931442D01*
X169810784Y-81931442D01*
X169786556Y-81931442D01*
X169739104Y-81922003D01*
X169715792Y-81912347D01*
X169682453Y-81898537D01*
X169672427Y-81896543D01*
X169622029Y-81886518D01*
X169561610Y-81874500D01*
X169561607Y-81874500D01*
X169561606Y-81874500D01*
X166487570Y-81874500D01*
X166420531Y-81854815D01*
X166418680Y-81853602D01*
X166357238Y-81812548D01*
X166357235Y-81812546D01*
X166211559Y-81752206D01*
X166211547Y-81752203D01*
X166056903Y-81721442D01*
X166056900Y-81721442D01*
X165899216Y-81721442D01*
X165899213Y-81721442D01*
X165744568Y-81752203D01*
X165744556Y-81752206D01*
X165598885Y-81812544D01*
X165598872Y-81812551D01*
X165467769Y-81900152D01*
X165467765Y-81900155D01*
X165356271Y-82011649D01*
X165356268Y-82011653D01*
X165268667Y-82142756D01*
X165268660Y-82142769D01*
X165208322Y-82288440D01*
X165208319Y-82288452D01*
X165177558Y-82443095D01*
X158245174Y-82443095D01*
X158180292Y-82378213D01*
X158180288Y-82378210D01*
X158049185Y-82290609D01*
X158049172Y-82290602D01*
X157903501Y-82230264D01*
X157903489Y-82230261D01*
X157748845Y-82199500D01*
X157748842Y-82199500D01*
X157591158Y-82199500D01*
X157591155Y-82199500D01*
X157436510Y-82230261D01*
X157436498Y-82230264D01*
X157290827Y-82290602D01*
X157290815Y-82290609D01*
X157196541Y-82353602D01*
X157129864Y-82374480D01*
X157127650Y-82374500D01*
X156542350Y-82374500D01*
X156475311Y-82354815D01*
X156473459Y-82353602D01*
X156379184Y-82290609D01*
X156379172Y-82290602D01*
X156233501Y-82230264D01*
X156233489Y-82230261D01*
X156078845Y-82199500D01*
X156078842Y-82199500D01*
X155921158Y-82199500D01*
X155921155Y-82199500D01*
X155766510Y-82230261D01*
X155766498Y-82230264D01*
X155620827Y-82290602D01*
X155620814Y-82290609D01*
X155489711Y-82378210D01*
X155489707Y-82378213D01*
X155378213Y-82489707D01*
X155378210Y-82489711D01*
X155290609Y-82620814D01*
X155290602Y-82620827D01*
X155230264Y-82766498D01*
X155230261Y-82766510D01*
X155199500Y-82921153D01*
X120500500Y-82921153D01*
X120500500Y-80899983D01*
X128699500Y-80899983D01*
X128699500Y-82100001D01*
X128699501Y-82100018D01*
X128710000Y-82202796D01*
X128710001Y-82202799D01*
X128765185Y-82369331D01*
X128765187Y-82369336D01*
X128800069Y-82425888D01*
X128857288Y-82518656D01*
X128981344Y-82642712D01*
X129130666Y-82734814D01*
X129297203Y-82789999D01*
X129399991Y-82800500D01*
X130600008Y-82800499D01*
X130702797Y-82789999D01*
X130869334Y-82734814D01*
X131018656Y-82642712D01*
X131087879Y-82573489D01*
X131149202Y-82540004D01*
X131218894Y-82544988D01*
X131248446Y-82560853D01*
X131318646Y-82611857D01*
X131500968Y-82704755D01*
X131695582Y-82767990D01*
X131897683Y-82800000D01*
X132102317Y-82800000D01*
X132304417Y-82767990D01*
X132499031Y-82704755D01*
X132681349Y-82611859D01*
X132725921Y-82579474D01*
X132046447Y-81900000D01*
X132052661Y-81900000D01*
X132154394Y-81872741D01*
X132245606Y-81820080D01*
X132320080Y-81745606D01*
X132372741Y-81654394D01*
X132400000Y-81552661D01*
X132400000Y-81546447D01*
X133079474Y-82225921D01*
X133111859Y-82181349D01*
X133204755Y-81999031D01*
X133267990Y-81804417D01*
X133300000Y-81602317D01*
X133300000Y-81397682D01*
X133267990Y-81195582D01*
X133204754Y-81000965D01*
X133180381Y-80953130D01*
X133180380Y-80953129D01*
X133153301Y-80899983D01*
X136244388Y-80899983D01*
X136244388Y-82100001D01*
X136244389Y-82100018D01*
X136254888Y-82202796D01*
X136254889Y-82202799D01*
X136310073Y-82369331D01*
X136310075Y-82369336D01*
X136344957Y-82425888D01*
X136402176Y-82518656D01*
X136526232Y-82642712D01*
X136675554Y-82734814D01*
X136842091Y-82789999D01*
X136944879Y-82800500D01*
X138144896Y-82800499D01*
X138247685Y-82789999D01*
X138414222Y-82734814D01*
X138563544Y-82642712D01*
X138632767Y-82573489D01*
X138694090Y-82540004D01*
X138763782Y-82544988D01*
X138793334Y-82560853D01*
X138863534Y-82611857D01*
X139045856Y-82704755D01*
X139240470Y-82767990D01*
X139442571Y-82800000D01*
X139647205Y-82800000D01*
X139693971Y-82792593D01*
X139849305Y-82767990D01*
X140043919Y-82704755D01*
X140226237Y-82611859D01*
X140270809Y-82579474D01*
X139591335Y-81900000D01*
X139597549Y-81900000D01*
X139699282Y-81872741D01*
X139790494Y-81820080D01*
X139864968Y-81745606D01*
X139917629Y-81654394D01*
X139944888Y-81552661D01*
X139944888Y-81546447D01*
X140624362Y-82225921D01*
X140656747Y-82181349D01*
X140749643Y-81999031D01*
X140812878Y-81804417D01*
X140844888Y-81602317D01*
X140844888Y-81397682D01*
X140812878Y-81195582D01*
X140749643Y-81000968D01*
X140656747Y-80818650D01*
X140624362Y-80774077D01*
X140624362Y-80774076D01*
X139944888Y-81453551D01*
X139944888Y-81447339D01*
X139917629Y-81345606D01*
X139864968Y-81254394D01*
X139790494Y-81179920D01*
X139699282Y-81127259D01*
X139597549Y-81100000D01*
X139591334Y-81100000D01*
X140270810Y-80420524D01*
X140270809Y-80420523D01*
X140226247Y-80388147D01*
X140226238Y-80388141D01*
X140043919Y-80295244D01*
X139849305Y-80232009D01*
X139647205Y-80200000D01*
X139442571Y-80200000D01*
X139240470Y-80232009D01*
X139045856Y-80295244D01*
X138863539Y-80388139D01*
X138793332Y-80439148D01*
X138727525Y-80462627D01*
X138659471Y-80446801D01*
X138632766Y-80426510D01*
X138563545Y-80357289D01*
X138563544Y-80357288D01*
X138462954Y-80295244D01*
X138414224Y-80265187D01*
X138414219Y-80265185D01*
X138412750Y-80264698D01*
X138247685Y-80210001D01*
X138247683Y-80210000D01*
X138144898Y-80199500D01*
X136944886Y-80199500D01*
X136944869Y-80199501D01*
X136842091Y-80210000D01*
X136842088Y-80210001D01*
X136675556Y-80265185D01*
X136675551Y-80265187D01*
X136526230Y-80357289D01*
X136402177Y-80481342D01*
X136310075Y-80630663D01*
X136310074Y-80630666D01*
X136254889Y-80797203D01*
X136254889Y-80797204D01*
X136254888Y-80797204D01*
X136244388Y-80899983D01*
X133153301Y-80899983D01*
X133111859Y-80818650D01*
X133079474Y-80774077D01*
X133079474Y-80774076D01*
X132400000Y-81453551D01*
X132400000Y-81447339D01*
X132372741Y-81345606D01*
X132320080Y-81254394D01*
X132245606Y-81179920D01*
X132154394Y-81127259D01*
X132052661Y-81100000D01*
X132046446Y-81100000D01*
X132725922Y-80420524D01*
X132725921Y-80420523D01*
X132681359Y-80388147D01*
X132681350Y-80388141D01*
X132499031Y-80295244D01*
X132304417Y-80232009D01*
X132102317Y-80200000D01*
X131897683Y-80200000D01*
X131695582Y-80232009D01*
X131500968Y-80295244D01*
X131318651Y-80388139D01*
X131248444Y-80439148D01*
X131182637Y-80462627D01*
X131114583Y-80446801D01*
X131087878Y-80426510D01*
X131018657Y-80357289D01*
X131018656Y-80357288D01*
X130918066Y-80295244D01*
X130869336Y-80265187D01*
X130869331Y-80265185D01*
X130867862Y-80264698D01*
X130702797Y-80210001D01*
X130702795Y-80210000D01*
X130600010Y-80199500D01*
X129399998Y-80199500D01*
X129399981Y-80199501D01*
X129297203Y-80210000D01*
X129297200Y-80210001D01*
X129130668Y-80265185D01*
X129130663Y-80265187D01*
X128981342Y-80357289D01*
X128857289Y-80481342D01*
X128765187Y-80630663D01*
X128765186Y-80630666D01*
X128710001Y-80797203D01*
X128710001Y-80797204D01*
X128710000Y-80797204D01*
X128699500Y-80899983D01*
X120500500Y-80899983D01*
X120500500Y-78897682D01*
X150200000Y-78897682D01*
X150200000Y-79102317D01*
X150232009Y-79304417D01*
X150295244Y-79499031D01*
X150388141Y-79681350D01*
X150388147Y-79681359D01*
X150420523Y-79725921D01*
X150420524Y-79725922D01*
X151100000Y-79046446D01*
X151100000Y-79052661D01*
X151127259Y-79154394D01*
X151179920Y-79245606D01*
X151254394Y-79320080D01*
X151345606Y-79372741D01*
X151447339Y-79400000D01*
X151453553Y-79400000D01*
X150774076Y-80079474D01*
X150818650Y-80111859D01*
X151000968Y-80204755D01*
X151195582Y-80267990D01*
X151397683Y-80300000D01*
X151602317Y-80300000D01*
X151804417Y-80267990D01*
X151999031Y-80204755D01*
X152181349Y-80111859D01*
X152225921Y-80079474D01*
X151546447Y-79400000D01*
X151552661Y-79400000D01*
X151654394Y-79372741D01*
X151745606Y-79320080D01*
X151820080Y-79245606D01*
X151872741Y-79154394D01*
X151900000Y-79052661D01*
X151900000Y-79046448D01*
X152579474Y-79725922D01*
X152579474Y-79725921D01*
X152611859Y-79681349D01*
X152704755Y-79499031D01*
X152767990Y-79304417D01*
X152800000Y-79102317D01*
X152800000Y-78897682D01*
X152767990Y-78695582D01*
X152704755Y-78500968D01*
X152611859Y-78318650D01*
X152579474Y-78274077D01*
X152579474Y-78274076D01*
X151900000Y-78953551D01*
X151900000Y-78947339D01*
X151872741Y-78845606D01*
X151820080Y-78754394D01*
X151745606Y-78679920D01*
X151654394Y-78627259D01*
X151552661Y-78600000D01*
X151546446Y-78600000D01*
X152225922Y-77920524D01*
X152225921Y-77920523D01*
X152181359Y-77888147D01*
X152181350Y-77888141D01*
X151999031Y-77795244D01*
X151804417Y-77732009D01*
X151602317Y-77700000D01*
X151397683Y-77700000D01*
X151195582Y-77732009D01*
X151000968Y-77795244D01*
X150818644Y-77888143D01*
X150774077Y-77920523D01*
X150774077Y-77920524D01*
X151453554Y-78600000D01*
X151447339Y-78600000D01*
X151345606Y-78627259D01*
X151254394Y-78679920D01*
X151179920Y-78754394D01*
X151127259Y-78845606D01*
X151100000Y-78947339D01*
X151100000Y-78953553D01*
X150420524Y-78274077D01*
X150420523Y-78274077D01*
X150388143Y-78318644D01*
X150295244Y-78500968D01*
X150232009Y-78695582D01*
X150200000Y-78897682D01*
X120500500Y-78897682D01*
X120500500Y-76921153D01*
X155074500Y-76921153D01*
X155074500Y-77078846D01*
X155105261Y-77233489D01*
X155105264Y-77233501D01*
X155165602Y-77379172D01*
X155165609Y-77379185D01*
X155253210Y-77510288D01*
X155253213Y-77510292D01*
X155364707Y-77621786D01*
X155364711Y-77621789D01*
X155495814Y-77709390D01*
X155495827Y-77709397D01*
X155638461Y-77768477D01*
X155641503Y-77769737D01*
X155641512Y-77769738D01*
X155642188Y-77769944D01*
X155642507Y-77770153D01*
X155647130Y-77772068D01*
X155646766Y-77772944D01*
X155700628Y-77808240D01*
X155729086Y-77872051D01*
X155718528Y-77941119D01*
X155679083Y-77988923D01*
X155652784Y-78008030D01*
X155508028Y-78152786D01*
X155387715Y-78318386D01*
X155294781Y-78500776D01*
X155231522Y-78695465D01*
X155199500Y-78897648D01*
X155199500Y-79102351D01*
X155231522Y-79304534D01*
X155294781Y-79499223D01*
X155299271Y-79508034D01*
X155387585Y-79681359D01*
X155387715Y-79681613D01*
X155508028Y-79847213D01*
X155652786Y-79991971D01*
X155773226Y-80079474D01*
X155818390Y-80112287D01*
X155885337Y-80146398D01*
X156000776Y-80205218D01*
X156000778Y-80205218D01*
X156000781Y-80205220D01*
X156083229Y-80232009D01*
X156195465Y-80268477D01*
X156296557Y-80284488D01*
X156397648Y-80300500D01*
X156397649Y-80300500D01*
X156602351Y-80300500D01*
X156602352Y-80300500D01*
X156804534Y-80268477D01*
X156999219Y-80205220D01*
X157181610Y-80112287D01*
X157347219Y-79991966D01*
X157491966Y-79847219D01*
X157491971Y-79847211D01*
X157493321Y-79845862D01*
X157554644Y-79812377D01*
X157624336Y-79817361D01*
X157680270Y-79859232D01*
X157690359Y-79875086D01*
X157692545Y-79879176D01*
X157780152Y-80010288D01*
X157780155Y-80010292D01*
X157891649Y-80121786D01*
X157891653Y-80121789D01*
X158022756Y-80209390D01*
X158022769Y-80209397D01*
X158157455Y-80265185D01*
X158168445Y-80269737D01*
X158320586Y-80300000D01*
X158323095Y-80300499D01*
X158323098Y-80300500D01*
X158323100Y-80300500D01*
X158480786Y-80300500D01*
X158480787Y-80300499D01*
X158635439Y-80269737D01*
X158781121Y-80209394D01*
X158875401Y-80146398D01*
X158942078Y-80125520D01*
X158944292Y-80125500D01*
X159109592Y-80125500D01*
X159176631Y-80145185D01*
X159178483Y-80146398D01*
X159272763Y-80209394D01*
X159272765Y-80209395D01*
X159272769Y-80209397D01*
X159360172Y-80245599D01*
X159418445Y-80269737D01*
X159519694Y-80289876D01*
X159581602Y-80322260D01*
X159616176Y-80382976D01*
X159619500Y-80411493D01*
X159619500Y-80602351D01*
X159651522Y-80804534D01*
X159714781Y-80999223D01*
X159807715Y-81181613D01*
X159928028Y-81347213D01*
X160072786Y-81491971D01*
X160206467Y-81589094D01*
X160238390Y-81612287D01*
X160321030Y-81654394D01*
X160420776Y-81705218D01*
X160420778Y-81705218D01*
X160420781Y-81705220D01*
X160525137Y-81739127D01*
X160615465Y-81768477D01*
X160716557Y-81784488D01*
X160817648Y-81800500D01*
X160817649Y-81800500D01*
X161022351Y-81800500D01*
X161022352Y-81800500D01*
X161224534Y-81768477D01*
X161419219Y-81705220D01*
X161601610Y-81612287D01*
X161694590Y-81544732D01*
X161767213Y-81491971D01*
X161767215Y-81491968D01*
X161767219Y-81491966D01*
X161911966Y-81347219D01*
X161911968Y-81347215D01*
X161911971Y-81347213D01*
X161993103Y-81235542D01*
X162032287Y-81181610D01*
X162125220Y-80999219D01*
X162188477Y-80804534D01*
X162220500Y-80602352D01*
X162220500Y-80397648D01*
X169779500Y-80397648D01*
X169779500Y-80602351D01*
X169811522Y-80804534D01*
X169874781Y-80999223D01*
X169967715Y-81181613D01*
X170088028Y-81347213D01*
X170232786Y-81491971D01*
X170366467Y-81589094D01*
X170398390Y-81612287D01*
X170481030Y-81654394D01*
X170580776Y-81705218D01*
X170580778Y-81705218D01*
X170580781Y-81705220D01*
X170685137Y-81739127D01*
X170775465Y-81768477D01*
X170876557Y-81784488D01*
X170977648Y-81800500D01*
X170977649Y-81800500D01*
X171182351Y-81800500D01*
X171182352Y-81800500D01*
X171384534Y-81768477D01*
X171579219Y-81705220D01*
X171761610Y-81612287D01*
X171854590Y-81544732D01*
X171927213Y-81491971D01*
X171927215Y-81491968D01*
X171927219Y-81491966D01*
X172071966Y-81347219D01*
X172071968Y-81347215D01*
X172071971Y-81347213D01*
X172153103Y-81235542D01*
X172192287Y-81181610D01*
X172285220Y-80999219D01*
X172348477Y-80804534D01*
X172380500Y-80602352D01*
X172380500Y-80397648D01*
X172350779Y-80210000D01*
X172348477Y-80195465D01*
X172285218Y-80000776D01*
X172251503Y-79934607D01*
X172192287Y-79818390D01*
X172184556Y-79807749D01*
X172071971Y-79652786D01*
X171927213Y-79508028D01*
X171761613Y-79387715D01*
X171761612Y-79387714D01*
X171761610Y-79387713D01*
X171694567Y-79353553D01*
X171579223Y-79294781D01*
X171384534Y-79231522D01*
X171209995Y-79203878D01*
X171182352Y-79199500D01*
X170977648Y-79199500D01*
X170953329Y-79203351D01*
X170775465Y-79231522D01*
X170580776Y-79294781D01*
X170398386Y-79387715D01*
X170232786Y-79508028D01*
X170088028Y-79652786D01*
X169967715Y-79818386D01*
X169874781Y-80000776D01*
X169811522Y-80195465D01*
X169779500Y-80397648D01*
X162220500Y-80397648D01*
X162190779Y-80210000D01*
X162188477Y-80195465D01*
X162125218Y-80000776D01*
X162091503Y-79934607D01*
X162032287Y-79818390D01*
X162024556Y-79807749D01*
X161911971Y-79652786D01*
X161767213Y-79508028D01*
X161601613Y-79387715D01*
X161601612Y-79387714D01*
X161601610Y-79387713D01*
X161534567Y-79353553D01*
X161419223Y-79294781D01*
X161224534Y-79231522D01*
X161049995Y-79203878D01*
X161022352Y-79199500D01*
X160817648Y-79199500D01*
X160750254Y-79210174D01*
X160615464Y-79231523D01*
X160540910Y-79255747D01*
X160471068Y-79257742D01*
X160411236Y-79221661D01*
X160388031Y-79185268D01*
X160361339Y-79120827D01*
X160361332Y-79120814D01*
X160273731Y-78989711D01*
X160273728Y-78989707D01*
X160162234Y-78878213D01*
X160162230Y-78878210D01*
X160031127Y-78790609D01*
X160031114Y-78790602D01*
X159885443Y-78730264D01*
X159885431Y-78730261D01*
X159730787Y-78699500D01*
X159730784Y-78699500D01*
X159573100Y-78699500D01*
X159573097Y-78699500D01*
X159418452Y-78730261D01*
X159418440Y-78730264D01*
X159272769Y-78790602D01*
X159272757Y-78790609D01*
X159178483Y-78853602D01*
X159111806Y-78874480D01*
X159109592Y-78874500D01*
X158944292Y-78874500D01*
X158877253Y-78854815D01*
X158875401Y-78853602D01*
X158781126Y-78790609D01*
X158781114Y-78790602D01*
X158635443Y-78730264D01*
X158635431Y-78730261D01*
X158480787Y-78699500D01*
X158480784Y-78699500D01*
X158323100Y-78699500D01*
X158323097Y-78699500D01*
X158168452Y-78730261D01*
X158168440Y-78730264D01*
X158022769Y-78790602D01*
X158022758Y-78790608D01*
X157967499Y-78827531D01*
X157900821Y-78848408D01*
X157833441Y-78829923D01*
X157786751Y-78777943D01*
X157776137Y-78743832D01*
X157768477Y-78695466D01*
X157705220Y-78500781D01*
X157705218Y-78500778D01*
X157705218Y-78500776D01*
X157612419Y-78318650D01*
X157612287Y-78318390D01*
X157580092Y-78274077D01*
X157491971Y-78152786D01*
X157347217Y-78008032D01*
X157320917Y-77988924D01*
X157278252Y-77933594D01*
X157272273Y-77863980D01*
X157304879Y-77802185D01*
X157353163Y-77772776D01*
X157352870Y-77772068D01*
X157357424Y-77770181D01*
X157357816Y-77769943D01*
X157358485Y-77769739D01*
X157358497Y-77769737D01*
X157504179Y-77709394D01*
X157635289Y-77621789D01*
X157746789Y-77510289D01*
X157834394Y-77379179D01*
X157894737Y-77233497D01*
X157925500Y-77078842D01*
X157925500Y-76921158D01*
X157925500Y-76921155D01*
X157925499Y-76921153D01*
X157894737Y-76766503D01*
X157863995Y-76692284D01*
X157834397Y-76620827D01*
X157834390Y-76620814D01*
X157746789Y-76489711D01*
X157746786Y-76489707D01*
X157654727Y-76397648D01*
X159539500Y-76397648D01*
X159539500Y-76602351D01*
X159571522Y-76804534D01*
X159634781Y-76999223D01*
X159727715Y-77181613D01*
X159848028Y-77347213D01*
X159992786Y-77491971D01*
X160147749Y-77604556D01*
X160158390Y-77612287D01*
X160274607Y-77671503D01*
X160340776Y-77705218D01*
X160340778Y-77705218D01*
X160340781Y-77705220D01*
X160417557Y-77730166D01*
X160535465Y-77768477D01*
X160636557Y-77784488D01*
X160737648Y-77800500D01*
X160737649Y-77800500D01*
X160942351Y-77800500D01*
X160942352Y-77800500D01*
X161144534Y-77768477D01*
X161339219Y-77705220D01*
X161521610Y-77612287D01*
X161614590Y-77544732D01*
X161687213Y-77491971D01*
X161687215Y-77491968D01*
X161687219Y-77491966D01*
X161831966Y-77347219D01*
X161831968Y-77347215D01*
X161831971Y-77347213D01*
X161914595Y-77233489D01*
X161952287Y-77181610D01*
X162045220Y-76999219D01*
X162108477Y-76804534D01*
X162140500Y-76602352D01*
X162140500Y-76397648D01*
X169699500Y-76397648D01*
X169699500Y-76602351D01*
X169731522Y-76804534D01*
X169794781Y-76999223D01*
X169887715Y-77181613D01*
X170008028Y-77347213D01*
X170152786Y-77491971D01*
X170307749Y-77604556D01*
X170318390Y-77612287D01*
X170434607Y-77671503D01*
X170500776Y-77705218D01*
X170500778Y-77705218D01*
X170500781Y-77705220D01*
X170577557Y-77730166D01*
X170695465Y-77768477D01*
X170796557Y-77784488D01*
X170897648Y-77800500D01*
X170897649Y-77800500D01*
X171102351Y-77800500D01*
X171102352Y-77800500D01*
X171304534Y-77768477D01*
X171499219Y-77705220D01*
X171681610Y-77612287D01*
X171774590Y-77544732D01*
X171847213Y-77491971D01*
X171847215Y-77491968D01*
X171847219Y-77491966D01*
X171991966Y-77347219D01*
X171991968Y-77347215D01*
X171991971Y-77347213D01*
X172074595Y-77233489D01*
X172112287Y-77181610D01*
X172205220Y-76999219D01*
X172268477Y-76804534D01*
X172300500Y-76602352D01*
X172300500Y-76397648D01*
X172296834Y-76374500D01*
X172268477Y-76195465D01*
X172205218Y-76000776D01*
X172145989Y-75884534D01*
X172112287Y-75818390D01*
X172098926Y-75800000D01*
X171991971Y-75652786D01*
X171847213Y-75508028D01*
X171805398Y-75477648D01*
X173699500Y-75477648D01*
X173699500Y-75682351D01*
X173731522Y-75884534D01*
X173794781Y-76079223D01*
X173846951Y-76181610D01*
X173871741Y-76230264D01*
X173887715Y-76261613D01*
X174008028Y-76427213D01*
X174152786Y-76571971D01*
X174307749Y-76684556D01*
X174318390Y-76692287D01*
X174434607Y-76751503D01*
X174500776Y-76785218D01*
X174500778Y-76785218D01*
X174500781Y-76785220D01*
X174605137Y-76819127D01*
X174695465Y-76848477D01*
X174796557Y-76864488D01*
X174897648Y-76880500D01*
X174897649Y-76880500D01*
X175102351Y-76880500D01*
X175102352Y-76880500D01*
X175304534Y-76848477D01*
X175499219Y-76785220D01*
X175681610Y-76692287D01*
X175779985Y-76620814D01*
X175847213Y-76571971D01*
X175847215Y-76571968D01*
X175847219Y-76571966D01*
X175991966Y-76427219D01*
X175991968Y-76427215D01*
X175991971Y-76427213D01*
X176091223Y-76290602D01*
X176112287Y-76261610D01*
X176205220Y-76079219D01*
X176268477Y-75884534D01*
X176300500Y-75682352D01*
X176300500Y-75477648D01*
X176286256Y-75387715D01*
X176268477Y-75275465D01*
X176214714Y-75110000D01*
X176205220Y-75080781D01*
X176205218Y-75080778D01*
X176205218Y-75080776D01*
X176147342Y-74967190D01*
X176112287Y-74898390D01*
X176083306Y-74858501D01*
X175991971Y-74732786D01*
X175847213Y-74588028D01*
X175681613Y-74467715D01*
X175681612Y-74467714D01*
X175681610Y-74467713D01*
X175624653Y-74438691D01*
X175499223Y-74374781D01*
X175304534Y-74311522D01*
X175129995Y-74283878D01*
X175102352Y-74279500D01*
X174897648Y-74279500D01*
X174873329Y-74283351D01*
X174695465Y-74311522D01*
X174500776Y-74374781D01*
X174318386Y-74467715D01*
X174152786Y-74588028D01*
X174008028Y-74732786D01*
X173887715Y-74898386D01*
X173794781Y-75080776D01*
X173731522Y-75275465D01*
X173699500Y-75477648D01*
X171805398Y-75477648D01*
X171681614Y-75387715D01*
X171676328Y-75385021D01*
X171626828Y-75359800D01*
X171576033Y-75311827D01*
X171559238Y-75244006D01*
X171581775Y-75177871D01*
X171595438Y-75161639D01*
X171621789Y-75135289D01*
X171709394Y-75004179D01*
X171710802Y-75000781D01*
X171753213Y-74898390D01*
X171769737Y-74858497D01*
X171800500Y-74703842D01*
X171800500Y-74546158D01*
X171800500Y-74546155D01*
X171800499Y-74546153D01*
X171791319Y-74500001D01*
X171769737Y-74391503D01*
X171766682Y-74384127D01*
X171709397Y-74245828D01*
X171709396Y-74245827D01*
X171709394Y-74245821D01*
X171646397Y-74151539D01*
X171625520Y-74084863D01*
X171625500Y-74082650D01*
X171625500Y-73467350D01*
X171645185Y-73400311D01*
X171646398Y-73398459D01*
X171688212Y-73335880D01*
X171709394Y-73304179D01*
X171769737Y-73158497D01*
X171800500Y-73003842D01*
X171800500Y-72846158D01*
X171800500Y-72846155D01*
X171800499Y-72846153D01*
X171781932Y-72752812D01*
X171769737Y-72691503D01*
X171735771Y-72609500D01*
X171709397Y-72545827D01*
X171709390Y-72545814D01*
X171621789Y-72414711D01*
X171621786Y-72414707D01*
X171510292Y-72303213D01*
X171510288Y-72303210D01*
X171379185Y-72215609D01*
X171379172Y-72215602D01*
X171233501Y-72155264D01*
X171233489Y-72155261D01*
X171078845Y-72124500D01*
X171078842Y-72124500D01*
X170921158Y-72124500D01*
X170921155Y-72124500D01*
X170766510Y-72155261D01*
X170766498Y-72155264D01*
X170620827Y-72215602D01*
X170620814Y-72215609D01*
X170489711Y-72303210D01*
X170489707Y-72303213D01*
X170378213Y-72414707D01*
X170378210Y-72414711D01*
X170290609Y-72545814D01*
X170290602Y-72545827D01*
X170230264Y-72691498D01*
X170230261Y-72691510D01*
X170199500Y-72846153D01*
X170199500Y-73003846D01*
X170230261Y-73158489D01*
X170230264Y-73158501D01*
X170290602Y-73304172D01*
X170290609Y-73304184D01*
X170353602Y-73398459D01*
X170374480Y-73465136D01*
X170374500Y-73467350D01*
X170374500Y-74082650D01*
X170354815Y-74149689D01*
X170353626Y-74151503D01*
X170334639Y-74179920D01*
X170290609Y-74245815D01*
X170290602Y-74245828D01*
X170230264Y-74391498D01*
X170230261Y-74391510D01*
X170199500Y-74546153D01*
X170199500Y-74703846D01*
X170230261Y-74858489D01*
X170230264Y-74858501D01*
X170290602Y-75004172D01*
X170290609Y-75004185D01*
X170378210Y-75135288D01*
X170378213Y-75135292D01*
X170404556Y-75161635D01*
X170438041Y-75222958D01*
X170433057Y-75292650D01*
X170391185Y-75348583D01*
X170373170Y-75359801D01*
X170318386Y-75387715D01*
X170152786Y-75508028D01*
X170008028Y-75652786D01*
X169887715Y-75818386D01*
X169794781Y-76000776D01*
X169731522Y-76195465D01*
X169699500Y-76397648D01*
X162140500Y-76397648D01*
X162136834Y-76374500D01*
X162108477Y-76195465D01*
X162045218Y-76000776D01*
X161985989Y-75884534D01*
X161952287Y-75818390D01*
X161938926Y-75800000D01*
X161831971Y-75652786D01*
X161687213Y-75508028D01*
X161521613Y-75387715D01*
X161521612Y-75387714D01*
X161521610Y-75387713D01*
X161444813Y-75348583D01*
X161339223Y-75294781D01*
X161144534Y-75231522D01*
X160969995Y-75203878D01*
X160942352Y-75199500D01*
X160737648Y-75199500D01*
X160713329Y-75203351D01*
X160535465Y-75231522D01*
X160340776Y-75294781D01*
X160158386Y-75387715D01*
X159992786Y-75508028D01*
X159848028Y-75652786D01*
X159727715Y-75818386D01*
X159634781Y-76000776D01*
X159571522Y-76195465D01*
X159539500Y-76397648D01*
X157654727Y-76397648D01*
X157635292Y-76378213D01*
X157635288Y-76378210D01*
X157504185Y-76290609D01*
X157504172Y-76290602D01*
X157358501Y-76230264D01*
X157358489Y-76230261D01*
X157203845Y-76199500D01*
X157203842Y-76199500D01*
X157046158Y-76199500D01*
X157046155Y-76199500D01*
X156891510Y-76230261D01*
X156891498Y-76230264D01*
X156745827Y-76290602D01*
X156745815Y-76290609D01*
X156651541Y-76353602D01*
X156584864Y-76374480D01*
X156582650Y-76374500D01*
X156417350Y-76374500D01*
X156350311Y-76354815D01*
X156348459Y-76353602D01*
X156254184Y-76290609D01*
X156254172Y-76290602D01*
X156108501Y-76230264D01*
X156108489Y-76230261D01*
X155953845Y-76199500D01*
X155953842Y-76199500D01*
X155796158Y-76199500D01*
X155796155Y-76199500D01*
X155641510Y-76230261D01*
X155641498Y-76230264D01*
X155495827Y-76290602D01*
X155495814Y-76290609D01*
X155364711Y-76378210D01*
X155364707Y-76378213D01*
X155253213Y-76489707D01*
X155253210Y-76489711D01*
X155165609Y-76620814D01*
X155165602Y-76620827D01*
X155105264Y-76766498D01*
X155105261Y-76766510D01*
X155074500Y-76921153D01*
X120500500Y-76921153D01*
X120500500Y-74397682D01*
X124200000Y-74397682D01*
X124200000Y-74602317D01*
X124232009Y-74804417D01*
X124295244Y-74999031D01*
X124388141Y-75181350D01*
X124388147Y-75181359D01*
X124420523Y-75225921D01*
X124420524Y-75225922D01*
X125100000Y-74546446D01*
X125100000Y-74552661D01*
X125127259Y-74654394D01*
X125179920Y-74745606D01*
X125254394Y-74820080D01*
X125345606Y-74872741D01*
X125447339Y-74900000D01*
X125453553Y-74900000D01*
X124774076Y-75579474D01*
X124818650Y-75611859D01*
X125000968Y-75704755D01*
X125195582Y-75767990D01*
X125397683Y-75800000D01*
X125602317Y-75800000D01*
X125804417Y-75767990D01*
X125999031Y-75704755D01*
X126181349Y-75611859D01*
X126225921Y-75579474D01*
X125546447Y-74900000D01*
X125552661Y-74900000D01*
X125654394Y-74872741D01*
X125745606Y-74820080D01*
X125820080Y-74745606D01*
X125872741Y-74654394D01*
X125900000Y-74552661D01*
X125900000Y-74546447D01*
X126579474Y-75225921D01*
X126611859Y-75181349D01*
X126704755Y-74999031D01*
X126767990Y-74804417D01*
X126800000Y-74602317D01*
X126800000Y-74397682D01*
X126799995Y-74397648D01*
X129199500Y-74397648D01*
X129199500Y-74602351D01*
X129231522Y-74804534D01*
X129294781Y-74999223D01*
X129358691Y-75124653D01*
X129387712Y-75181609D01*
X129387715Y-75181613D01*
X129508028Y-75347213D01*
X129652786Y-75491971D01*
X129807749Y-75604556D01*
X129818390Y-75612287D01*
X129897864Y-75652781D01*
X130000776Y-75705218D01*
X130000778Y-75705218D01*
X130000781Y-75705220D01*
X130105137Y-75739127D01*
X130195465Y-75768477D01*
X130296557Y-75784488D01*
X130397648Y-75800500D01*
X130397649Y-75800500D01*
X130602351Y-75800500D01*
X130602352Y-75800500D01*
X130804534Y-75768477D01*
X130999219Y-75705220D01*
X131181610Y-75612287D01*
X131274590Y-75544732D01*
X131347213Y-75491971D01*
X131347215Y-75491968D01*
X131347219Y-75491966D01*
X131441537Y-75397648D01*
X136119500Y-75397648D01*
X136119500Y-75602351D01*
X136151522Y-75804534D01*
X136214781Y-75999223D01*
X136307715Y-76181613D01*
X136428028Y-76347213D01*
X136572786Y-76491971D01*
X136727749Y-76604556D01*
X136738390Y-76612287D01*
X136854607Y-76671503D01*
X136920776Y-76705218D01*
X136920778Y-76705218D01*
X136920781Y-76705220D01*
X137025137Y-76739127D01*
X137115465Y-76768477D01*
X137216557Y-76784488D01*
X137317648Y-76800500D01*
X137317649Y-76800500D01*
X137522351Y-76800500D01*
X137522352Y-76800500D01*
X137724534Y-76768477D01*
X137919219Y-76705220D01*
X138101610Y-76612287D01*
X138194590Y-76544732D01*
X138267213Y-76491971D01*
X138267215Y-76491968D01*
X138267219Y-76491966D01*
X138411966Y-76347219D01*
X138411968Y-76347215D01*
X138411971Y-76347213D01*
X138496938Y-76230264D01*
X138532287Y-76181610D01*
X138625220Y-75999219D01*
X138688477Y-75804534D01*
X138720500Y-75602352D01*
X138720500Y-75397648D01*
X146279500Y-75397648D01*
X146279500Y-75602351D01*
X146311522Y-75804534D01*
X146374781Y-75999223D01*
X146467715Y-76181613D01*
X146588028Y-76347213D01*
X146732786Y-76491971D01*
X146887749Y-76604556D01*
X146898390Y-76612287D01*
X147014607Y-76671503D01*
X147080776Y-76705218D01*
X147080778Y-76705218D01*
X147080781Y-76705220D01*
X147185137Y-76739127D01*
X147275465Y-76768477D01*
X147376557Y-76784488D01*
X147477648Y-76800500D01*
X147477649Y-76800500D01*
X147682351Y-76800500D01*
X147682352Y-76800500D01*
X147884534Y-76768477D01*
X148079219Y-76705220D01*
X148261610Y-76612287D01*
X148354590Y-76544732D01*
X148427213Y-76491971D01*
X148427215Y-76491968D01*
X148427219Y-76491966D01*
X148571966Y-76347219D01*
X148571968Y-76347215D01*
X148571971Y-76347213D01*
X148656938Y-76230264D01*
X148692287Y-76181610D01*
X148785220Y-75999219D01*
X148848477Y-75804534D01*
X148880500Y-75602352D01*
X148880500Y-75397648D01*
X148853301Y-75225921D01*
X148848477Y-75195465D01*
X148818627Y-75103596D01*
X148785220Y-75000781D01*
X148785218Y-75000778D01*
X148785218Y-75000776D01*
X148730845Y-74894064D01*
X148692287Y-74818390D01*
X148639407Y-74745606D01*
X148571971Y-74652786D01*
X148427213Y-74508028D01*
X148261613Y-74387715D01*
X148261612Y-74387714D01*
X148261610Y-74387713D01*
X148204653Y-74358691D01*
X148079223Y-74294781D01*
X147884534Y-74231522D01*
X147709995Y-74203878D01*
X147682352Y-74199500D01*
X147477648Y-74199500D01*
X147453329Y-74203351D01*
X147275465Y-74231522D01*
X147080776Y-74294781D01*
X146898386Y-74387715D01*
X146732786Y-74508028D01*
X146588028Y-74652786D01*
X146467715Y-74818386D01*
X146374781Y-75000776D01*
X146311522Y-75195465D01*
X146279500Y-75397648D01*
X138720500Y-75397648D01*
X138693301Y-75225921D01*
X138688477Y-75195465D01*
X138658627Y-75103596D01*
X138625220Y-75000781D01*
X138625218Y-75000778D01*
X138625218Y-75000776D01*
X138570845Y-74894064D01*
X138532287Y-74818390D01*
X138479407Y-74745606D01*
X138411971Y-74652786D01*
X138267213Y-74508028D01*
X138101613Y-74387715D01*
X138101612Y-74387714D01*
X138101610Y-74387713D01*
X138044653Y-74358691D01*
X137919223Y-74294781D01*
X137724534Y-74231522D01*
X137549995Y-74203878D01*
X137522352Y-74199500D01*
X137317648Y-74199500D01*
X137293329Y-74203351D01*
X137115465Y-74231522D01*
X136920776Y-74294781D01*
X136738386Y-74387715D01*
X136572786Y-74508028D01*
X136428028Y-74652786D01*
X136307715Y-74818386D01*
X136214781Y-75000776D01*
X136151522Y-75195465D01*
X136119500Y-75397648D01*
X131441537Y-75397648D01*
X131491966Y-75347219D01*
X131612287Y-75181610D01*
X131705220Y-74999219D01*
X131768477Y-74804534D01*
X131800500Y-74602352D01*
X131800500Y-74397648D01*
X131781787Y-74279500D01*
X131768477Y-74195465D01*
X131736469Y-74096957D01*
X131705220Y-74000781D01*
X131612287Y-73818390D01*
X131580092Y-73774077D01*
X131491971Y-73652786D01*
X131347213Y-73508028D01*
X131181613Y-73387715D01*
X131181612Y-73387714D01*
X131181610Y-73387713D01*
X131124653Y-73358691D01*
X130999223Y-73294781D01*
X130804534Y-73231522D01*
X130629995Y-73203878D01*
X130602352Y-73199500D01*
X130397648Y-73199500D01*
X130373329Y-73203351D01*
X130195465Y-73231522D01*
X130000776Y-73294781D01*
X129818386Y-73387715D01*
X129652786Y-73508028D01*
X129508028Y-73652786D01*
X129387715Y-73818386D01*
X129294781Y-74000776D01*
X129231522Y-74195465D01*
X129199500Y-74397648D01*
X126799995Y-74397648D01*
X126767990Y-74195582D01*
X126704755Y-74000968D01*
X126611859Y-73818650D01*
X126579474Y-73774077D01*
X126579474Y-73774076D01*
X125900000Y-74453551D01*
X125900000Y-74447339D01*
X125872741Y-74345606D01*
X125820080Y-74254394D01*
X125745606Y-74179920D01*
X125654394Y-74127259D01*
X125552661Y-74100000D01*
X125546446Y-74100000D01*
X126225922Y-73420524D01*
X126225921Y-73420523D01*
X126181359Y-73388147D01*
X126181350Y-73388141D01*
X125999031Y-73295244D01*
X125804417Y-73232009D01*
X125602317Y-73200000D01*
X125397683Y-73200000D01*
X125195582Y-73232009D01*
X125000968Y-73295244D01*
X124818644Y-73388143D01*
X124774077Y-73420523D01*
X124774077Y-73420524D01*
X125453554Y-74100000D01*
X125447339Y-74100000D01*
X125345606Y-74127259D01*
X125254394Y-74179920D01*
X125179920Y-74254394D01*
X125127259Y-74345606D01*
X125100000Y-74447339D01*
X125100000Y-74453553D01*
X124420524Y-73774077D01*
X124420523Y-73774077D01*
X124388143Y-73818644D01*
X124295244Y-74000968D01*
X124232009Y-74195582D01*
X124200000Y-74397682D01*
X120500500Y-74397682D01*
X120500500Y-73062155D01*
X152205000Y-73062155D01*
X152205000Y-73610000D01*
X152949670Y-73610000D01*
X152929925Y-73629745D01*
X152880556Y-73715255D01*
X152855000Y-73810630D01*
X152855000Y-73909370D01*
X152880556Y-74004745D01*
X152929925Y-74090255D01*
X152949670Y-74110000D01*
X152205000Y-74110000D01*
X152205000Y-74657844D01*
X152211401Y-74717372D01*
X152211403Y-74717379D01*
X152261645Y-74852086D01*
X152261649Y-74852093D01*
X152347809Y-74967187D01*
X152347812Y-74967190D01*
X152462906Y-75053350D01*
X152462913Y-75053354D01*
X152597620Y-75103596D01*
X152597627Y-75103598D01*
X152657155Y-75109999D01*
X152657172Y-75110000D01*
X152980000Y-75110000D01*
X152980000Y-74140330D01*
X152999745Y-74160075D01*
X153085255Y-74209444D01*
X153180630Y-74235000D01*
X153279370Y-74235000D01*
X153374745Y-74209444D01*
X153460255Y-74160075D01*
X153474500Y-74145830D01*
X153474500Y-74186003D01*
X153476405Y-74195582D01*
X153477617Y-74201671D01*
X153480000Y-74225865D01*
X153480000Y-75110000D01*
X153802828Y-75110000D01*
X153802844Y-75109999D01*
X153862372Y-75103598D01*
X153862376Y-75103597D01*
X153997089Y-75053352D01*
X153997896Y-75052748D01*
X153998845Y-75052393D01*
X154004876Y-75049101D01*
X154005349Y-75049967D01*
X154063360Y-75028329D01*
X154119661Y-75037451D01*
X154200873Y-75071091D01*
X154364288Y-75103596D01*
X154398992Y-75110499D01*
X154398996Y-75110500D01*
X154398997Y-75110500D01*
X154601004Y-75110500D01*
X154601005Y-75110499D01*
X154799127Y-75071091D01*
X154985756Y-74993786D01*
X155066110Y-74940094D01*
X155132786Y-74919217D01*
X155200166Y-74937701D01*
X155203865Y-74940078D01*
X155284244Y-74993786D01*
X155470873Y-75071091D01*
X155634288Y-75103596D01*
X155668992Y-75110499D01*
X155668996Y-75110500D01*
X155668997Y-75110500D01*
X155871004Y-75110500D01*
X155871005Y-75110499D01*
X156069127Y-75071091D01*
X156255756Y-74993786D01*
X156423718Y-74881558D01*
X156566558Y-74738718D01*
X156678786Y-74570756D01*
X156756091Y-74384127D01*
X156795500Y-74186003D01*
X156795500Y-73533997D01*
X156756091Y-73335873D01*
X156678786Y-73149244D01*
X156678784Y-73149241D01*
X156678782Y-73149237D01*
X156566558Y-72981281D01*
X156423718Y-72838441D01*
X156255762Y-72726217D01*
X156255752Y-72726212D01*
X156069127Y-72648909D01*
X156069119Y-72648907D01*
X155871007Y-72609500D01*
X155871003Y-72609500D01*
X155668997Y-72609500D01*
X155668992Y-72609500D01*
X155470880Y-72648907D01*
X155470872Y-72648909D01*
X155284244Y-72726213D01*
X155203891Y-72779904D01*
X155137213Y-72800782D01*
X155069833Y-72782297D01*
X155066109Y-72779904D01*
X154985755Y-72726213D01*
X154799127Y-72648909D01*
X154799119Y-72648907D01*
X154601007Y-72609500D01*
X154601003Y-72609500D01*
X154398997Y-72609500D01*
X154398992Y-72609500D01*
X154200880Y-72648907D01*
X154200868Y-72648910D01*
X154119661Y-72682547D01*
X154050191Y-72690016D01*
X154005140Y-72670405D01*
X154004872Y-72670897D01*
X153999374Y-72667894D01*
X153997895Y-72667251D01*
X153997086Y-72666645D01*
X153862379Y-72616403D01*
X153862372Y-72616401D01*
X153802844Y-72610000D01*
X153480000Y-72610000D01*
X153480000Y-73494134D01*
X153477617Y-73518326D01*
X153474500Y-73533997D01*
X153474500Y-73574170D01*
X153460255Y-73559925D01*
X153374745Y-73510556D01*
X153279370Y-73485000D01*
X153180630Y-73485000D01*
X153085255Y-73510556D01*
X152999745Y-73559925D01*
X152980000Y-73579670D01*
X152980000Y-72610000D01*
X152657155Y-72610000D01*
X152597627Y-72616401D01*
X152597620Y-72616403D01*
X152462913Y-72666645D01*
X152462906Y-72666649D01*
X152347812Y-72752809D01*
X152347809Y-72752812D01*
X152261649Y-72867906D01*
X152261645Y-72867913D01*
X152211403Y-73002620D01*
X152211401Y-73002627D01*
X152205000Y-73062155D01*
X120500500Y-73062155D01*
X120500500Y-53739983D01*
X124394500Y-53739983D01*
X124394500Y-54940001D01*
X124394501Y-54940018D01*
X124405000Y-55042796D01*
X124405001Y-55042799D01*
X124410481Y-55059336D01*
X124460186Y-55209334D01*
X124552288Y-55358656D01*
X124676344Y-55482712D01*
X124825666Y-55574814D01*
X124907570Y-55601954D01*
X124965015Y-55641727D01*
X124991838Y-55706243D01*
X124979523Y-55775018D01*
X124941451Y-55819978D01*
X124847787Y-55888028D01*
X124847782Y-55888032D01*
X124703028Y-56032786D01*
X124582715Y-56198386D01*
X124489781Y-56380776D01*
X124426522Y-56575465D01*
X124394500Y-56777648D01*
X124394500Y-56982351D01*
X124426522Y-57184534D01*
X124489781Y-57379223D01*
X124582715Y-57561613D01*
X124703028Y-57727213D01*
X124847786Y-57871971D01*
X125002749Y-57984556D01*
X125013390Y-57992287D01*
X125104840Y-58038883D01*
X125106080Y-58039515D01*
X125156876Y-58087490D01*
X125173671Y-58155311D01*
X125151134Y-58221446D01*
X125106080Y-58260485D01*
X125013386Y-58307715D01*
X124847786Y-58428028D01*
X124703028Y-58572786D01*
X124582715Y-58738386D01*
X124489781Y-58920776D01*
X124426522Y-59115465D01*
X124394500Y-59317648D01*
X124394500Y-59522352D01*
X124398878Y-59549995D01*
X124426522Y-59724534D01*
X124489781Y-59919223D01*
X124582715Y-60101613D01*
X124703028Y-60267213D01*
X124847786Y-60411971D01*
X124983112Y-60510289D01*
X125013390Y-60532287D01*
X125088387Y-60570500D01*
X125106080Y-60579515D01*
X125156876Y-60627490D01*
X125173671Y-60695311D01*
X125151134Y-60761446D01*
X125106080Y-60800485D01*
X125013386Y-60847715D01*
X124847786Y-60968028D01*
X124703028Y-61112786D01*
X124582715Y-61278386D01*
X124489781Y-61460776D01*
X124426522Y-61655465D01*
X124394500Y-61857648D01*
X124394500Y-62062351D01*
X124426522Y-62264534D01*
X124489781Y-62459223D01*
X124528862Y-62535922D01*
X124582712Y-62641609D01*
X124582715Y-62641613D01*
X124703028Y-62807213D01*
X124847786Y-62951971D01*
X125002749Y-63064556D01*
X125013390Y-63072287D01*
X125065164Y-63098667D01*
X125106080Y-63119515D01*
X125156876Y-63167490D01*
X125173671Y-63235311D01*
X125151134Y-63301446D01*
X125106080Y-63340485D01*
X125013386Y-63387715D01*
X124847786Y-63508028D01*
X124703028Y-63652786D01*
X124582715Y-63818386D01*
X124489781Y-64000776D01*
X124426522Y-64195465D01*
X124394500Y-64397648D01*
X124394500Y-64602352D01*
X124396202Y-64613095D01*
X124426522Y-64804534D01*
X124489781Y-64999223D01*
X124582715Y-65181613D01*
X124703028Y-65347213D01*
X124847786Y-65491971D01*
X125002749Y-65604556D01*
X125013390Y-65612287D01*
X125104840Y-65658883D01*
X125106080Y-65659515D01*
X125156876Y-65707490D01*
X125173671Y-65775311D01*
X125151134Y-65841446D01*
X125106080Y-65880485D01*
X125013386Y-65927715D01*
X124847786Y-66048028D01*
X124703028Y-66192786D01*
X124582715Y-66358386D01*
X124489781Y-66540776D01*
X124426522Y-66735465D01*
X124397702Y-66917429D01*
X124394500Y-66937648D01*
X124394500Y-67142352D01*
X124397578Y-67161786D01*
X124426522Y-67344534D01*
X124489781Y-67539223D01*
X124582715Y-67721613D01*
X124703028Y-67887213D01*
X124847786Y-68031971D01*
X125013385Y-68152284D01*
X125013387Y-68152285D01*
X125013390Y-68152287D01*
X125106080Y-68199515D01*
X125106630Y-68199795D01*
X125157426Y-68247770D01*
X125174221Y-68315591D01*
X125151684Y-68381725D01*
X125106630Y-68420765D01*
X125013644Y-68468143D01*
X124969077Y-68500523D01*
X124969077Y-68500524D01*
X125648554Y-69180000D01*
X125642339Y-69180000D01*
X125540606Y-69207259D01*
X125449394Y-69259920D01*
X125374920Y-69334394D01*
X125322259Y-69425606D01*
X125295000Y-69527339D01*
X125295000Y-69533553D01*
X124615524Y-68854077D01*
X124615523Y-68854077D01*
X124583143Y-68898644D01*
X124490244Y-69080968D01*
X124427009Y-69275582D01*
X124395000Y-69477682D01*
X124395000Y-69682317D01*
X124427009Y-69884417D01*
X124490244Y-70079031D01*
X124583141Y-70261350D01*
X124583147Y-70261359D01*
X124615523Y-70305921D01*
X124615524Y-70305922D01*
X125295000Y-69626446D01*
X125295000Y-69632661D01*
X125322259Y-69734394D01*
X125374920Y-69825606D01*
X125449394Y-69900080D01*
X125540606Y-69952741D01*
X125642339Y-69980000D01*
X125648553Y-69980000D01*
X124969076Y-70659474D01*
X125013650Y-70691859D01*
X125195968Y-70784755D01*
X125390582Y-70847990D01*
X125592683Y-70880000D01*
X125797317Y-70880000D01*
X125999417Y-70847990D01*
X126194031Y-70784755D01*
X126376349Y-70691859D01*
X126420921Y-70659474D01*
X125741447Y-69980000D01*
X125747661Y-69980000D01*
X125849394Y-69952741D01*
X125940606Y-69900080D01*
X126015080Y-69825606D01*
X126067741Y-69734394D01*
X126095000Y-69632661D01*
X126095000Y-69626447D01*
X126774474Y-70305921D01*
X126806859Y-70261349D01*
X126899755Y-70079031D01*
X126962990Y-69884417D01*
X126995000Y-69682317D01*
X126995000Y-69477682D01*
X126962990Y-69275582D01*
X126899755Y-69080968D01*
X126806859Y-68898650D01*
X126774474Y-68854077D01*
X126774474Y-68854076D01*
X126095000Y-69533551D01*
X126095000Y-69527339D01*
X126067741Y-69425606D01*
X126015080Y-69334394D01*
X125940606Y-69259920D01*
X125849394Y-69207259D01*
X125747661Y-69180000D01*
X125741446Y-69180000D01*
X126420922Y-68500524D01*
X126420921Y-68500523D01*
X126376359Y-68468147D01*
X126376350Y-68468141D01*
X126283369Y-68420765D01*
X126232573Y-68372790D01*
X126215778Y-68304969D01*
X126238315Y-68238835D01*
X126283370Y-68199795D01*
X126283920Y-68199515D01*
X126376610Y-68152287D01*
X126503591Y-68060031D01*
X126542213Y-68031971D01*
X126542215Y-68031968D01*
X126542219Y-68031966D01*
X126686966Y-67887219D01*
X126686968Y-67887215D01*
X126686971Y-67887213D01*
X126747125Y-67804417D01*
X126807287Y-67721610D01*
X126900220Y-67539219D01*
X126963477Y-67344534D01*
X126995500Y-67142352D01*
X126995500Y-66937648D01*
X126976611Y-66818390D01*
X126963477Y-66735465D01*
X126925584Y-66618844D01*
X126900220Y-66540781D01*
X126900218Y-66540778D01*
X126900218Y-66540776D01*
X126859647Y-66461153D01*
X126807287Y-66358390D01*
X126799556Y-66347749D01*
X126686971Y-66192786D01*
X126542213Y-66048028D01*
X126376614Y-65927715D01*
X126359947Y-65919223D01*
X126283917Y-65880483D01*
X126233123Y-65832511D01*
X126216328Y-65764690D01*
X126238865Y-65698555D01*
X126283917Y-65659516D01*
X126376610Y-65612287D01*
X126397770Y-65596913D01*
X126542213Y-65491971D01*
X126542215Y-65491968D01*
X126542219Y-65491966D01*
X126686966Y-65347219D01*
X126686968Y-65347215D01*
X126686971Y-65347213D01*
X126785823Y-65211153D01*
X128699500Y-65211153D01*
X128699500Y-65368846D01*
X128730261Y-65523489D01*
X128730264Y-65523501D01*
X128790602Y-65669172D01*
X128790609Y-65669184D01*
X128853602Y-65763459D01*
X128874480Y-65830136D01*
X128874500Y-65832350D01*
X128874500Y-65997650D01*
X128854815Y-66064689D01*
X128853602Y-66066541D01*
X128790609Y-66160815D01*
X128790602Y-66160828D01*
X128730264Y-66306498D01*
X128730261Y-66306510D01*
X128699500Y-66461153D01*
X128699500Y-66618846D01*
X128730261Y-66773489D01*
X128730264Y-66773501D01*
X128790602Y-66919172D01*
X128790609Y-66919185D01*
X128878210Y-67050288D01*
X128878213Y-67050292D01*
X128989707Y-67161786D01*
X128989711Y-67161789D01*
X129120814Y-67249390D01*
X129120827Y-67249397D01*
X129266498Y-67309735D01*
X129266503Y-67309737D01*
X129421153Y-67340499D01*
X129421156Y-67340500D01*
X129421158Y-67340500D01*
X129578844Y-67340500D01*
X129578845Y-67340499D01*
X129733497Y-67309737D01*
X129879179Y-67249394D01*
X130010289Y-67161789D01*
X130121789Y-67050289D01*
X130209394Y-66919179D01*
X130269737Y-66773497D01*
X130300500Y-66618842D01*
X130300500Y-66461158D01*
X130300500Y-66461155D01*
X130300499Y-66461153D01*
X130280057Y-66358386D01*
X130269737Y-66306503D01*
X130209394Y-66160821D01*
X130146397Y-66066539D01*
X130125520Y-65999863D01*
X130125500Y-65997650D01*
X130125500Y-65832350D01*
X130145185Y-65765311D01*
X130146398Y-65763459D01*
X130172407Y-65724534D01*
X130209394Y-65669179D01*
X130269737Y-65523497D01*
X130300500Y-65368842D01*
X130300500Y-65211158D01*
X130300500Y-65211155D01*
X130300499Y-65211153D01*
X130294622Y-65181610D01*
X130269737Y-65056503D01*
X130246011Y-64999223D01*
X130209397Y-64910827D01*
X130209390Y-64910814D01*
X130121789Y-64779711D01*
X130121786Y-64779707D01*
X130010292Y-64668213D01*
X130010288Y-64668210D01*
X129879185Y-64580609D01*
X129879172Y-64580602D01*
X129733501Y-64520264D01*
X129733489Y-64520261D01*
X129578845Y-64489500D01*
X129578842Y-64489500D01*
X129421158Y-64489500D01*
X129421155Y-64489500D01*
X129266510Y-64520261D01*
X129266498Y-64520264D01*
X129120827Y-64580602D01*
X129120814Y-64580609D01*
X128989711Y-64668210D01*
X128989707Y-64668213D01*
X128878213Y-64779707D01*
X128878210Y-64779711D01*
X128790609Y-64910814D01*
X128790602Y-64910827D01*
X128730264Y-65056498D01*
X128730261Y-65056510D01*
X128699500Y-65211153D01*
X126785823Y-65211153D01*
X126807286Y-65181611D01*
X126824019Y-65148772D01*
X126824019Y-65148771D01*
X126840990Y-65115465D01*
X126900220Y-64999219D01*
X126963477Y-64804534D01*
X126995500Y-64602352D01*
X126995500Y-64397648D01*
X126981256Y-64307715D01*
X126963477Y-64195465D01*
X126922760Y-64070152D01*
X126900220Y-64000781D01*
X126900218Y-64000778D01*
X126900218Y-64000776D01*
X126860182Y-63922203D01*
X126807287Y-63818390D01*
X126799556Y-63807749D01*
X126686971Y-63652786D01*
X126542213Y-63508028D01*
X126376614Y-63387715D01*
X126370006Y-63384348D01*
X126283917Y-63340483D01*
X126233123Y-63292511D01*
X126216328Y-63224690D01*
X126238865Y-63158555D01*
X126283917Y-63119516D01*
X126376610Y-63072287D01*
X126465703Y-63007558D01*
X126542213Y-62951971D01*
X126542215Y-62951968D01*
X126542219Y-62951966D01*
X126686966Y-62807219D01*
X126686968Y-62807215D01*
X126686971Y-62807213D01*
X126739732Y-62734590D01*
X126807287Y-62641610D01*
X126900220Y-62459219D01*
X126963477Y-62264534D01*
X126995500Y-62062352D01*
X126995500Y-61857648D01*
X126963477Y-61655466D01*
X126900220Y-61460781D01*
X126900218Y-61460778D01*
X126900218Y-61460776D01*
X126823886Y-61310968D01*
X126807287Y-61278390D01*
X126799556Y-61267749D01*
X126686971Y-61112786D01*
X126542213Y-60968028D01*
X126376614Y-60847715D01*
X126370006Y-60844348D01*
X126283917Y-60800483D01*
X126233123Y-60752511D01*
X126216328Y-60684690D01*
X126238865Y-60618555D01*
X126283917Y-60579516D01*
X126376610Y-60532287D01*
X126463945Y-60468835D01*
X126542213Y-60411971D01*
X126542215Y-60411968D01*
X126542219Y-60411966D01*
X126686966Y-60267219D01*
X126686968Y-60267215D01*
X126686971Y-60267213D01*
X126795946Y-60117219D01*
X126807287Y-60101610D01*
X126900220Y-59919219D01*
X126963477Y-59724534D01*
X126995500Y-59522352D01*
X126995500Y-59317648D01*
X126963477Y-59115466D01*
X126900220Y-58920781D01*
X126900218Y-58920778D01*
X126900218Y-58920776D01*
X126866503Y-58854607D01*
X126807287Y-58738390D01*
X126799556Y-58727749D01*
X126686971Y-58572786D01*
X126542213Y-58428028D01*
X126376614Y-58307715D01*
X126370006Y-58304348D01*
X126283917Y-58260483D01*
X126233123Y-58212511D01*
X126216328Y-58144690D01*
X126238865Y-58078555D01*
X126283917Y-58039516D01*
X126376610Y-57992287D01*
X126397770Y-57976913D01*
X126542213Y-57871971D01*
X126542215Y-57871968D01*
X126542219Y-57871966D01*
X126686966Y-57727219D01*
X126686968Y-57727215D01*
X126686971Y-57727213D01*
X126795946Y-57577219D01*
X126807287Y-57561610D01*
X126900220Y-57379219D01*
X126963477Y-57184534D01*
X126995500Y-56982352D01*
X126995500Y-56777648D01*
X126963477Y-56575466D01*
X126900220Y-56380781D01*
X126900218Y-56380778D01*
X126900218Y-56380776D01*
X126866503Y-56314607D01*
X126807287Y-56198390D01*
X126799556Y-56187749D01*
X126686971Y-56032786D01*
X126542219Y-55888034D01*
X126534989Y-55882781D01*
X126448547Y-55819978D01*
X126405882Y-55764649D01*
X126399903Y-55695036D01*
X126432508Y-55633240D01*
X126482426Y-55601955D01*
X126564334Y-55574814D01*
X126713656Y-55482712D01*
X126837712Y-55358656D01*
X126929814Y-55209334D01*
X126984999Y-55042797D01*
X126995500Y-54940009D01*
X126995499Y-54237648D01*
X132014500Y-54237648D01*
X132014500Y-54442351D01*
X132046522Y-54644534D01*
X132109781Y-54839223D01*
X132202715Y-55021613D01*
X132323028Y-55187213D01*
X132467786Y-55331971D01*
X132595576Y-55424814D01*
X132633390Y-55452287D01*
X132694139Y-55483240D01*
X132726080Y-55499515D01*
X132776876Y-55547490D01*
X132793671Y-55615311D01*
X132771134Y-55681446D01*
X132726080Y-55720485D01*
X132633386Y-55767715D01*
X132467786Y-55888028D01*
X132323028Y-56032786D01*
X132202715Y-56198386D01*
X132109781Y-56380776D01*
X132046522Y-56575465D01*
X132014500Y-56777648D01*
X132014500Y-56982351D01*
X132046522Y-57184534D01*
X132109781Y-57379223D01*
X132202715Y-57561613D01*
X132323028Y-57727213D01*
X132467786Y-57871971D01*
X132622749Y-57984556D01*
X132633390Y-57992287D01*
X132724840Y-58038883D01*
X132726080Y-58039515D01*
X132776876Y-58087490D01*
X132793671Y-58155311D01*
X132771134Y-58221446D01*
X132726080Y-58260485D01*
X132633386Y-58307715D01*
X132467786Y-58428028D01*
X132323028Y-58572786D01*
X132202715Y-58738386D01*
X132109781Y-58920776D01*
X132046522Y-59115465D01*
X132014500Y-59317648D01*
X132014500Y-59522352D01*
X132018878Y-59549995D01*
X132046522Y-59724534D01*
X132109781Y-59919223D01*
X132202715Y-60101613D01*
X132323028Y-60267213D01*
X132467786Y-60411971D01*
X132603112Y-60510289D01*
X132633390Y-60532287D01*
X132708387Y-60570500D01*
X132726080Y-60579515D01*
X132776876Y-60627490D01*
X132793671Y-60695311D01*
X132771134Y-60761446D01*
X132726080Y-60800485D01*
X132633386Y-60847715D01*
X132467786Y-60968028D01*
X132323028Y-61112786D01*
X132202715Y-61278386D01*
X132109781Y-61460776D01*
X132046522Y-61655465D01*
X132014500Y-61857648D01*
X132014500Y-62062351D01*
X132046522Y-62264534D01*
X132109781Y-62459223D01*
X132148862Y-62535922D01*
X132202712Y-62641609D01*
X132202715Y-62641613D01*
X132323028Y-62807213D01*
X132467786Y-62951971D01*
X132622749Y-63064556D01*
X132633390Y-63072287D01*
X132685164Y-63098667D01*
X132726080Y-63119515D01*
X132776876Y-63167490D01*
X132793671Y-63235311D01*
X132771134Y-63301446D01*
X132726080Y-63340485D01*
X132633386Y-63387715D01*
X132467786Y-63508028D01*
X132323028Y-63652786D01*
X132202715Y-63818386D01*
X132109781Y-64000776D01*
X132046522Y-64195465D01*
X132014500Y-64397648D01*
X132014500Y-64602352D01*
X132016202Y-64613095D01*
X132046522Y-64804534D01*
X132109781Y-64999223D01*
X132202715Y-65181613D01*
X132323028Y-65347213D01*
X132467786Y-65491971D01*
X132622749Y-65604556D01*
X132633390Y-65612287D01*
X132724840Y-65658883D01*
X132726080Y-65659515D01*
X132776876Y-65707490D01*
X132793671Y-65775311D01*
X132771134Y-65841446D01*
X132726080Y-65880485D01*
X132633386Y-65927715D01*
X132467786Y-66048028D01*
X132323028Y-66192786D01*
X132202715Y-66358386D01*
X132109781Y-66540776D01*
X132046522Y-66735465D01*
X132017702Y-66917429D01*
X132014500Y-66937648D01*
X132014500Y-67142352D01*
X132017578Y-67161786D01*
X132046522Y-67344534D01*
X132109781Y-67539223D01*
X132202715Y-67721613D01*
X132323028Y-67887213D01*
X132467786Y-68031971D01*
X132599440Y-68127621D01*
X132633390Y-68152287D01*
X132724840Y-68198883D01*
X132726080Y-68199515D01*
X132776876Y-68247490D01*
X132793671Y-68315311D01*
X132771134Y-68381446D01*
X132726080Y-68420485D01*
X132633386Y-68467715D01*
X132467786Y-68588028D01*
X132323028Y-68732786D01*
X132202715Y-68898386D01*
X132109781Y-69080776D01*
X132046522Y-69275465D01*
X132014500Y-69477648D01*
X132014500Y-69682351D01*
X132046522Y-69884534D01*
X132109781Y-70079223D01*
X132162424Y-70182538D01*
X132202585Y-70261359D01*
X132202715Y-70261613D01*
X132323028Y-70427213D01*
X132467786Y-70571971D01*
X132618748Y-70681649D01*
X132633390Y-70692287D01*
X132714277Y-70733501D01*
X132815776Y-70785218D01*
X132815778Y-70785218D01*
X132815781Y-70785220D01*
X132854791Y-70797895D01*
X133010465Y-70848477D01*
X133111557Y-70864488D01*
X133212648Y-70880500D01*
X133212649Y-70880500D01*
X133417351Y-70880500D01*
X133417352Y-70880500D01*
X133619534Y-70848477D01*
X133814219Y-70785220D01*
X133996610Y-70692287D01*
X134089590Y-70624732D01*
X134162213Y-70571971D01*
X134162219Y-70571966D01*
X134230440Y-70503745D01*
X134306966Y-70427219D01*
X134306968Y-70427215D01*
X134306971Y-70427213D01*
X134389016Y-70314286D01*
X134427287Y-70261610D01*
X134520220Y-70079219D01*
X134583477Y-69884534D01*
X134615500Y-69682352D01*
X134615500Y-69477648D01*
X134601583Y-69389778D01*
X134583477Y-69275465D01*
X134549874Y-69172047D01*
X134520220Y-69080781D01*
X134520218Y-69080778D01*
X134520218Y-69080776D01*
X134486503Y-69014607D01*
X134427287Y-68898390D01*
X134395092Y-68854077D01*
X134306971Y-68732786D01*
X134162213Y-68588028D01*
X134112810Y-68552135D01*
X135324500Y-68552135D01*
X135324500Y-70447870D01*
X135324501Y-70447876D01*
X135330908Y-70507483D01*
X135381202Y-70642328D01*
X135381206Y-70642335D01*
X135467452Y-70757544D01*
X135467455Y-70757547D01*
X135582664Y-70843793D01*
X135582671Y-70843797D01*
X135717517Y-70894091D01*
X135717516Y-70894091D01*
X135724444Y-70894835D01*
X135777127Y-70900500D01*
X137672872Y-70900499D01*
X137732483Y-70894091D01*
X137867331Y-70843796D01*
X137982546Y-70757546D01*
X138068796Y-70642331D01*
X138068798Y-70642326D01*
X138098601Y-70562420D01*
X138140471Y-70506486D01*
X138205936Y-70482068D01*
X138274209Y-70496919D01*
X138302464Y-70518071D01*
X138352636Y-70568243D01*
X138352641Y-70568247D01*
X138454603Y-70642326D01*
X138530978Y-70697815D01*
X138659375Y-70763237D01*
X138727393Y-70797895D01*
X138727396Y-70797896D01*
X138937048Y-70866015D01*
X138966319Y-70870651D01*
X139029454Y-70900580D01*
X139066386Y-70959891D01*
X139065388Y-71029753D01*
X139034603Y-71080805D01*
X139014146Y-71101261D01*
X138990332Y-71136902D01*
X138990331Y-71136902D01*
X138945690Y-71203709D01*
X138945686Y-71203715D01*
X138930051Y-71241464D01*
X138903174Y-71281689D01*
X138893317Y-71291547D01*
X138878208Y-71306656D01*
X138790609Y-71437756D01*
X138790602Y-71437769D01*
X138730264Y-71583440D01*
X138730261Y-71583452D01*
X138699500Y-71738095D01*
X138699500Y-71895788D01*
X138730261Y-72050431D01*
X138730264Y-72050443D01*
X138790602Y-72196114D01*
X138790609Y-72196127D01*
X138878210Y-72327230D01*
X138878213Y-72327234D01*
X138989707Y-72438728D01*
X138989711Y-72438731D01*
X139120814Y-72526332D01*
X139120827Y-72526339D01*
X139266498Y-72586677D01*
X139266503Y-72586679D01*
X139383745Y-72610000D01*
X139421153Y-72617441D01*
X139421156Y-72617442D01*
X139421158Y-72617442D01*
X139578844Y-72617442D01*
X139578845Y-72617441D01*
X139733497Y-72586679D01*
X139879179Y-72526336D01*
X140010289Y-72438731D01*
X140121789Y-72327231D01*
X140209394Y-72196121D01*
X140269737Y-72050439D01*
X140300500Y-71895784D01*
X140300500Y-71738100D01*
X140287878Y-71674646D01*
X140294105Y-71605057D01*
X140321812Y-71562777D01*
X140558797Y-71325791D01*
X140620118Y-71292308D01*
X140622128Y-71291889D01*
X140733497Y-71269737D01*
X140879179Y-71209394D01*
X141010289Y-71121789D01*
X141018983Y-71113095D01*
X144007558Y-71113095D01*
X144007558Y-71270788D01*
X144038319Y-71425431D01*
X144038322Y-71425443D01*
X144098660Y-71571114D01*
X144098667Y-71571127D01*
X144186268Y-71702230D01*
X144186271Y-71702234D01*
X144297765Y-71813728D01*
X144297769Y-71813731D01*
X144428872Y-71901332D01*
X144428885Y-71901339D01*
X144574556Y-71961677D01*
X144574561Y-71961679D01*
X144729211Y-71992441D01*
X144729214Y-71992442D01*
X144729216Y-71992442D01*
X144886902Y-71992442D01*
X144886903Y-71992441D01*
X145041555Y-71961679D01*
X145187237Y-71901336D01*
X145318347Y-71813731D01*
X145429847Y-71702231D01*
X145489406Y-71613095D01*
X158007558Y-71613095D01*
X158007558Y-71770788D01*
X158038319Y-71925431D01*
X158038322Y-71925443D01*
X158098660Y-72071114D01*
X158098667Y-72071127D01*
X158186268Y-72202230D01*
X158186271Y-72202234D01*
X158297765Y-72313728D01*
X158297769Y-72313731D01*
X158428872Y-72401332D01*
X158428885Y-72401339D01*
X158519159Y-72438731D01*
X158574561Y-72461679D01*
X158729211Y-72492441D01*
X158729214Y-72492442D01*
X158729216Y-72492442D01*
X158886902Y-72492442D01*
X158886903Y-72492441D01*
X159041555Y-72461679D01*
X159187237Y-72401336D01*
X159318347Y-72313731D01*
X159429847Y-72202231D01*
X159517452Y-72071121D01*
X159577795Y-71925439D01*
X159577797Y-71925431D01*
X159579565Y-71919604D01*
X159581426Y-71920168D01*
X159609639Y-71866225D01*
X159670352Y-71831646D01*
X159723069Y-71830704D01*
X159863097Y-71858558D01*
X159863100Y-71858558D01*
X160020786Y-71858558D01*
X160020787Y-71858557D01*
X160175439Y-71827795D01*
X160321121Y-71767452D01*
X160452231Y-71679847D01*
X160563731Y-71568347D01*
X160651336Y-71437237D01*
X160711679Y-71291555D01*
X160742442Y-71136900D01*
X160742442Y-70979216D01*
X160742442Y-70979213D01*
X160742441Y-70979211D01*
X160726701Y-70900083D01*
X160711679Y-70824561D01*
X160673961Y-70733501D01*
X160651339Y-70678885D01*
X160651332Y-70678872D01*
X160563731Y-70547769D01*
X160563728Y-70547765D01*
X160452234Y-70436271D01*
X160452230Y-70436268D01*
X160321127Y-70348667D01*
X160321114Y-70348660D01*
X160175443Y-70288322D01*
X160175431Y-70288319D01*
X160020787Y-70257558D01*
X160020784Y-70257558D01*
X159863100Y-70257558D01*
X159863097Y-70257558D01*
X159708452Y-70288319D01*
X159708440Y-70288322D01*
X159562769Y-70348660D01*
X159562757Y-70348667D01*
X159468483Y-70411660D01*
X159401806Y-70432538D01*
X159399592Y-70432558D01*
X159380331Y-70432558D01*
X159319913Y-70444576D01*
X159276685Y-70453174D01*
X159259488Y-70456595D01*
X159145658Y-70503745D01*
X159043560Y-70571966D01*
X159043518Y-70571994D01*
X159043208Y-70572200D01*
X158749261Y-70866147D01*
X158687938Y-70899632D01*
X158685772Y-70900083D01*
X158574566Y-70922203D01*
X158574556Y-70922206D01*
X158428885Y-70982544D01*
X158428872Y-70982551D01*
X158297769Y-71070152D01*
X158297765Y-71070155D01*
X158186271Y-71181649D01*
X158186268Y-71181653D01*
X158098667Y-71312756D01*
X158098660Y-71312769D01*
X158038322Y-71458440D01*
X158038319Y-71458452D01*
X158007558Y-71613095D01*
X145489406Y-71613095D01*
X145517452Y-71571121D01*
X145541058Y-71514130D01*
X145584896Y-71459729D01*
X145651190Y-71437663D01*
X145718890Y-71454941D01*
X145724480Y-71458463D01*
X145812763Y-71517452D01*
X145812765Y-71517453D01*
X145812769Y-71517455D01*
X145942330Y-71571120D01*
X145958445Y-71577795D01*
X146113095Y-71608557D01*
X146113098Y-71608558D01*
X146113100Y-71608558D01*
X146270786Y-71608558D01*
X146270787Y-71608557D01*
X146425439Y-71577795D01*
X146571121Y-71517452D01*
X146576088Y-71514133D01*
X146591395Y-71503906D01*
X146659376Y-71458482D01*
X146702231Y-71429847D01*
X146813731Y-71318347D01*
X146901336Y-71187237D01*
X146961679Y-71041555D01*
X146992442Y-70886900D01*
X146992442Y-70729216D01*
X146992442Y-70729213D01*
X146992441Y-70729211D01*
X146962531Y-70578844D01*
X146961679Y-70574561D01*
X146961677Y-70574556D01*
X146901339Y-70428885D01*
X146901332Y-70428872D01*
X146813731Y-70297769D01*
X146813728Y-70297765D01*
X146702234Y-70186271D01*
X146702230Y-70186268D01*
X146571127Y-70098667D01*
X146571114Y-70098660D01*
X146425443Y-70038322D01*
X146425431Y-70038319D01*
X146270787Y-70007558D01*
X146270784Y-70007558D01*
X146113100Y-70007558D01*
X146113097Y-70007558D01*
X145958452Y-70038319D01*
X145958440Y-70038322D01*
X145812769Y-70098660D01*
X145812757Y-70098667D01*
X145718483Y-70161660D01*
X145651806Y-70182538D01*
X145649592Y-70182558D01*
X145253549Y-70182558D01*
X145130335Y-70182558D01*
X145083505Y-70191873D01*
X145083504Y-70191872D01*
X145009496Y-70206593D01*
X145009483Y-70206597D01*
X144977204Y-70219967D01*
X144962339Y-70226125D01*
X144943274Y-70234022D01*
X144895655Y-70253746D01*
X144885499Y-70260533D01*
X144885391Y-70260605D01*
X144793212Y-70322197D01*
X144793206Y-70322201D01*
X144749258Y-70366149D01*
X144687935Y-70399633D01*
X144685771Y-70400083D01*
X144574566Y-70422203D01*
X144574556Y-70422206D01*
X144428885Y-70482544D01*
X144428872Y-70482551D01*
X144297769Y-70570152D01*
X144297765Y-70570155D01*
X144186271Y-70681649D01*
X144186268Y-70681653D01*
X144098667Y-70812756D01*
X144098660Y-70812769D01*
X144038322Y-70958440D01*
X144038319Y-70958452D01*
X144007558Y-71113095D01*
X141018983Y-71113095D01*
X141051273Y-71080805D01*
X141112752Y-71019327D01*
X141121786Y-71010292D01*
X141121789Y-71010289D01*
X141209394Y-70879179D01*
X141269737Y-70733497D01*
X141300500Y-70578842D01*
X141300500Y-70421158D01*
X141300500Y-70421155D01*
X141300499Y-70421153D01*
X141289558Y-70366149D01*
X141269737Y-70266503D01*
X141253012Y-70226125D01*
X141209397Y-70120827D01*
X141209390Y-70120814D01*
X141121789Y-69989711D01*
X141121786Y-69989707D01*
X141010292Y-69878213D01*
X141010288Y-69878210D01*
X140879185Y-69790609D01*
X140879172Y-69790602D01*
X140741731Y-69733673D01*
X140687327Y-69689832D01*
X140665262Y-69623538D01*
X140665500Y-69612473D01*
X140665500Y-69389778D01*
X140647413Y-69275582D01*
X140631015Y-69172049D01*
X140562895Y-68962394D01*
X140562895Y-68962393D01*
X140507704Y-68854077D01*
X140462815Y-68765978D01*
X140351153Y-68612287D01*
X140333247Y-68587641D01*
X140333243Y-68587636D01*
X140177363Y-68431756D01*
X140177358Y-68431752D01*
X139999025Y-68302187D01*
X139999024Y-68302186D01*
X139999022Y-68302185D01*
X139892228Y-68247770D01*
X139802606Y-68202104D01*
X139802603Y-68202103D01*
X139592952Y-68133985D01*
X139484086Y-68116742D01*
X139375222Y-68099500D01*
X139154778Y-68099500D01*
X139082201Y-68110995D01*
X138937047Y-68133985D01*
X138727396Y-68202103D01*
X138727393Y-68202104D01*
X138530974Y-68302187D01*
X138352641Y-68431752D01*
X138352636Y-68431756D01*
X138302463Y-68481929D01*
X138241140Y-68515413D01*
X138171448Y-68510428D01*
X138115515Y-68468557D01*
X138098601Y-68437580D01*
X138068797Y-68357671D01*
X138068793Y-68357664D01*
X137982547Y-68242455D01*
X137982544Y-68242452D01*
X137867335Y-68156206D01*
X137867328Y-68156202D01*
X137732482Y-68105908D01*
X137732483Y-68105908D01*
X137672883Y-68099501D01*
X137672881Y-68099500D01*
X137672873Y-68099500D01*
X137672864Y-68099500D01*
X135777129Y-68099500D01*
X135777123Y-68099501D01*
X135717516Y-68105908D01*
X135582671Y-68156202D01*
X135582664Y-68156206D01*
X135467455Y-68242452D01*
X135467452Y-68242455D01*
X135381206Y-68357664D01*
X135381202Y-68357671D01*
X135330908Y-68492517D01*
X135324501Y-68552116D01*
X135324500Y-68552135D01*
X134112810Y-68552135D01*
X133996614Y-68467715D01*
X133990006Y-68464348D01*
X133903917Y-68420483D01*
X133853123Y-68372511D01*
X133836328Y-68304690D01*
X133858865Y-68238555D01*
X133903917Y-68199516D01*
X133996610Y-68152287D01*
X134030560Y-68127621D01*
X134162213Y-68031971D01*
X134162215Y-68031968D01*
X134162219Y-68031966D01*
X134306966Y-67887219D01*
X134306968Y-67887215D01*
X134306971Y-67887213D01*
X134367125Y-67804417D01*
X134427287Y-67721610D01*
X134520220Y-67539219D01*
X134566219Y-67397648D01*
X146699500Y-67397648D01*
X146699500Y-67602351D01*
X146731522Y-67804534D01*
X146794781Y-67999223D01*
X146825765Y-68060031D01*
X146887585Y-68181359D01*
X146887715Y-68181613D01*
X147008028Y-68347213D01*
X147152786Y-68491971D01*
X147284467Y-68587641D01*
X147318390Y-68612287D01*
X147434607Y-68671503D01*
X147500776Y-68705218D01*
X147500778Y-68705218D01*
X147500781Y-68705220D01*
X147605137Y-68739127D01*
X147695465Y-68768477D01*
X147796557Y-68784488D01*
X147897648Y-68800500D01*
X147897649Y-68800500D01*
X148102351Y-68800500D01*
X148102352Y-68800500D01*
X148304534Y-68768477D01*
X148499219Y-68705220D01*
X148681610Y-68612287D01*
X148814947Y-68515413D01*
X148847213Y-68491971D01*
X148847215Y-68491968D01*
X148847219Y-68491966D01*
X148991966Y-68347219D01*
X148991968Y-68347215D01*
X148991971Y-68347213D01*
X149068081Y-68242455D01*
X149112287Y-68181610D01*
X149205220Y-67999219D01*
X149268477Y-67804534D01*
X149300500Y-67602352D01*
X149300500Y-67397682D01*
X151700000Y-67397682D01*
X151700000Y-67602317D01*
X151732009Y-67804417D01*
X151795244Y-67999031D01*
X151888141Y-68181350D01*
X151888147Y-68181359D01*
X151920523Y-68225921D01*
X151920524Y-68225922D01*
X152600000Y-67546446D01*
X152600000Y-67552661D01*
X152627259Y-67654394D01*
X152679920Y-67745606D01*
X152754394Y-67820080D01*
X152845606Y-67872741D01*
X152947339Y-67900000D01*
X152953553Y-67900000D01*
X152274076Y-68579474D01*
X152318650Y-68611859D01*
X152500968Y-68704755D01*
X152695582Y-68767990D01*
X152897683Y-68800000D01*
X153102317Y-68800000D01*
X153304417Y-68767990D01*
X153499031Y-68704755D01*
X153681349Y-68611859D01*
X153725921Y-68579474D01*
X153046447Y-67900000D01*
X153052661Y-67900000D01*
X153154394Y-67872741D01*
X153245606Y-67820080D01*
X153320080Y-67745606D01*
X153372741Y-67654394D01*
X153400000Y-67552661D01*
X153400000Y-67546447D01*
X154079474Y-68225921D01*
X154111859Y-68181349D01*
X154139233Y-68127624D01*
X154187207Y-68076827D01*
X154255028Y-68060031D01*
X154321163Y-68082567D01*
X154360203Y-68127621D01*
X154387713Y-68181611D01*
X154508028Y-68347213D01*
X154652786Y-68491971D01*
X154784467Y-68587641D01*
X154818390Y-68612287D01*
X154934607Y-68671503D01*
X155000776Y-68705218D01*
X155000778Y-68705218D01*
X155000781Y-68705220D01*
X155105137Y-68739127D01*
X155195465Y-68768477D01*
X155296557Y-68784488D01*
X155397648Y-68800500D01*
X155397649Y-68800500D01*
X155602351Y-68800500D01*
X155602352Y-68800500D01*
X155804534Y-68768477D01*
X155999219Y-68705220D01*
X156181610Y-68612287D01*
X156314947Y-68515413D01*
X156347213Y-68491971D01*
X156347215Y-68491968D01*
X156347219Y-68491966D01*
X156491966Y-68347219D01*
X156491968Y-68347215D01*
X156491971Y-68347213D01*
X156568081Y-68242455D01*
X156612287Y-68181610D01*
X156705220Y-67999219D01*
X156768477Y-67804534D01*
X156800500Y-67602352D01*
X156800500Y-67397682D01*
X159200000Y-67397682D01*
X159200000Y-67602317D01*
X159232009Y-67804417D01*
X159295244Y-67999031D01*
X159388141Y-68181350D01*
X159388147Y-68181359D01*
X159420523Y-68225921D01*
X159420524Y-68225922D01*
X160100000Y-67546446D01*
X160100000Y-67552661D01*
X160127259Y-67654394D01*
X160179920Y-67745606D01*
X160254394Y-67820080D01*
X160345606Y-67872741D01*
X160447339Y-67900000D01*
X160453553Y-67900000D01*
X159774076Y-68579474D01*
X159818650Y-68611859D01*
X160000968Y-68704755D01*
X160195582Y-68767990D01*
X160397683Y-68800000D01*
X160602317Y-68800000D01*
X160804417Y-68767990D01*
X160999031Y-68704755D01*
X161181349Y-68611859D01*
X161225921Y-68579474D01*
X161225921Y-68579473D01*
X161198583Y-68552135D01*
X167059500Y-68552135D01*
X167059500Y-70447870D01*
X167059501Y-70447876D01*
X167065908Y-70507483D01*
X167116202Y-70642328D01*
X167116206Y-70642335D01*
X167202452Y-70757544D01*
X167202455Y-70757547D01*
X167317664Y-70843793D01*
X167317671Y-70843797D01*
X167452517Y-70894091D01*
X167452516Y-70894091D01*
X167459444Y-70894835D01*
X167512127Y-70900500D01*
X169407872Y-70900499D01*
X169467483Y-70894091D01*
X169602331Y-70843796D01*
X169717546Y-70757546D01*
X169803796Y-70642331D01*
X169803798Y-70642326D01*
X169833601Y-70562420D01*
X169875471Y-70506486D01*
X169940936Y-70482068D01*
X170009209Y-70496919D01*
X170037464Y-70518071D01*
X170087636Y-70568243D01*
X170087641Y-70568247D01*
X170189603Y-70642326D01*
X170265978Y-70697815D01*
X170394375Y-70763237D01*
X170462393Y-70797895D01*
X170462396Y-70797896D01*
X170508172Y-70812769D01*
X170672049Y-70866015D01*
X170889778Y-70900500D01*
X170889779Y-70900500D01*
X171110221Y-70900500D01*
X171110222Y-70900500D01*
X171327951Y-70866015D01*
X171537606Y-70797895D01*
X171734022Y-70697815D01*
X171912365Y-70568242D01*
X172068242Y-70412365D01*
X172197815Y-70234022D01*
X172297895Y-70037606D01*
X172366015Y-69827951D01*
X172400500Y-69610222D01*
X172400500Y-69389778D01*
X172366015Y-69172049D01*
X172297895Y-68962394D01*
X172297895Y-68962393D01*
X172242704Y-68854077D01*
X172197815Y-68765978D01*
X172086153Y-68612287D01*
X172068247Y-68587641D01*
X172068243Y-68587636D01*
X171912363Y-68431756D01*
X171912358Y-68431752D01*
X171734025Y-68302187D01*
X171734024Y-68302186D01*
X171734022Y-68302185D01*
X171627228Y-68247770D01*
X171537606Y-68202104D01*
X171537603Y-68202103D01*
X171327952Y-68133985D01*
X171219086Y-68116742D01*
X171110222Y-68099500D01*
X170889778Y-68099500D01*
X170817201Y-68110995D01*
X170672047Y-68133985D01*
X170462396Y-68202103D01*
X170462393Y-68202104D01*
X170265974Y-68302187D01*
X170087641Y-68431752D01*
X170087636Y-68431756D01*
X170037463Y-68481929D01*
X169976140Y-68515413D01*
X169906448Y-68510428D01*
X169850515Y-68468557D01*
X169833601Y-68437580D01*
X169803797Y-68357671D01*
X169803793Y-68357664D01*
X169717547Y-68242455D01*
X169717544Y-68242452D01*
X169602335Y-68156206D01*
X169602328Y-68156202D01*
X169467482Y-68105908D01*
X169467483Y-68105908D01*
X169407883Y-68099501D01*
X169407881Y-68099500D01*
X169407873Y-68099500D01*
X169407864Y-68099500D01*
X167512129Y-68099500D01*
X167512123Y-68099501D01*
X167452516Y-68105908D01*
X167317671Y-68156202D01*
X167317664Y-68156206D01*
X167202455Y-68242452D01*
X167202452Y-68242455D01*
X167116206Y-68357664D01*
X167116202Y-68357671D01*
X167065908Y-68492517D01*
X167059501Y-68552116D01*
X167059500Y-68552135D01*
X161198583Y-68552135D01*
X160546447Y-67900000D01*
X160552661Y-67900000D01*
X160654394Y-67872741D01*
X160745606Y-67820080D01*
X160820080Y-67745606D01*
X160872741Y-67654394D01*
X160900000Y-67552661D01*
X160900000Y-67546448D01*
X161579474Y-68225922D01*
X161579474Y-68225921D01*
X161611859Y-68181349D01*
X161704755Y-67999031D01*
X161767990Y-67804417D01*
X161800000Y-67602317D01*
X161800000Y-67397682D01*
X161767990Y-67195582D01*
X161704755Y-67000968D01*
X161611859Y-66818650D01*
X161579474Y-66774077D01*
X161579474Y-66774076D01*
X160900000Y-67453551D01*
X160900000Y-67447339D01*
X160872741Y-67345606D01*
X160820080Y-67254394D01*
X160745606Y-67179920D01*
X160654394Y-67127259D01*
X160552661Y-67100000D01*
X160546446Y-67100000D01*
X161225922Y-66420524D01*
X161225921Y-66420523D01*
X161181359Y-66388147D01*
X161181350Y-66388141D01*
X160999031Y-66295244D01*
X160804417Y-66232009D01*
X160602317Y-66200000D01*
X160397683Y-66200000D01*
X160195582Y-66232009D01*
X160000968Y-66295244D01*
X159818644Y-66388143D01*
X159774077Y-66420523D01*
X159774077Y-66420524D01*
X160453554Y-67100000D01*
X160447339Y-67100000D01*
X160345606Y-67127259D01*
X160254394Y-67179920D01*
X160179920Y-67254394D01*
X160127259Y-67345606D01*
X160100000Y-67447339D01*
X160100000Y-67453553D01*
X159420524Y-66774077D01*
X159420523Y-66774077D01*
X159388143Y-66818644D01*
X159295244Y-67000968D01*
X159232009Y-67195582D01*
X159200000Y-67397682D01*
X156800500Y-67397682D01*
X156800500Y-67397648D01*
X156792087Y-67344534D01*
X156768477Y-67195465D01*
X156721306Y-67050288D01*
X156705220Y-67000781D01*
X156705218Y-67000778D01*
X156705218Y-67000776D01*
X156662750Y-66917429D01*
X156612287Y-66818390D01*
X156580092Y-66774077D01*
X156491971Y-66652786D01*
X156347213Y-66508028D01*
X156181613Y-66387715D01*
X156181612Y-66387714D01*
X156181610Y-66387713D01*
X156124053Y-66358386D01*
X155999223Y-66294781D01*
X155804534Y-66231522D01*
X155629995Y-66203878D01*
X155602352Y-66199500D01*
X155397648Y-66199500D01*
X155373329Y-66203351D01*
X155195465Y-66231522D01*
X155000776Y-66294781D01*
X154818386Y-66387715D01*
X154652786Y-66508028D01*
X154508028Y-66652786D01*
X154387714Y-66818386D01*
X154360203Y-66872379D01*
X154312227Y-66923174D01*
X154244406Y-66939968D01*
X154178272Y-66917429D01*
X154139234Y-66872376D01*
X154111861Y-66818652D01*
X154079474Y-66774077D01*
X154079474Y-66774076D01*
X153400000Y-67453551D01*
X153400000Y-67447339D01*
X153372741Y-67345606D01*
X153320080Y-67254394D01*
X153245606Y-67179920D01*
X153154394Y-67127259D01*
X153052661Y-67100000D01*
X153046446Y-67100000D01*
X153725922Y-66420524D01*
X153725921Y-66420523D01*
X153681359Y-66388147D01*
X153681350Y-66388141D01*
X153499031Y-66295244D01*
X153304417Y-66232009D01*
X153102317Y-66200000D01*
X152897683Y-66200000D01*
X152695582Y-66232009D01*
X152500968Y-66295244D01*
X152318644Y-66388143D01*
X152274077Y-66420523D01*
X152274077Y-66420524D01*
X152953554Y-67100000D01*
X152947339Y-67100000D01*
X152845606Y-67127259D01*
X152754394Y-67179920D01*
X152679920Y-67254394D01*
X152627259Y-67345606D01*
X152600000Y-67447339D01*
X152600000Y-67453553D01*
X151920524Y-66774077D01*
X151920523Y-66774077D01*
X151888143Y-66818644D01*
X151795244Y-67000968D01*
X151732009Y-67195582D01*
X151700000Y-67397682D01*
X149300500Y-67397682D01*
X149300500Y-67397648D01*
X149292087Y-67344534D01*
X149268477Y-67195465D01*
X149221306Y-67050288D01*
X149205220Y-67000781D01*
X149205218Y-67000778D01*
X149205218Y-67000776D01*
X149162750Y-66917429D01*
X149112287Y-66818390D01*
X149080092Y-66774077D01*
X148991971Y-66652786D01*
X148847213Y-66508028D01*
X148681613Y-66387715D01*
X148681612Y-66387714D01*
X148681610Y-66387713D01*
X148624053Y-66358386D01*
X148499223Y-66294781D01*
X148304534Y-66231522D01*
X148129995Y-66203878D01*
X148102352Y-66199500D01*
X147897648Y-66199500D01*
X147873329Y-66203351D01*
X147695465Y-66231522D01*
X147500776Y-66294781D01*
X147318386Y-66387715D01*
X147152786Y-66508028D01*
X147008028Y-66652786D01*
X146887715Y-66818386D01*
X146794781Y-67000776D01*
X146731522Y-67195465D01*
X146699500Y-67397648D01*
X134566219Y-67397648D01*
X134583477Y-67344534D01*
X134615500Y-67142352D01*
X134615500Y-66937648D01*
X134596611Y-66818390D01*
X134583477Y-66735465D01*
X134545584Y-66618844D01*
X134520220Y-66540781D01*
X134520218Y-66540778D01*
X134520218Y-66540776D01*
X134479647Y-66461153D01*
X134427287Y-66358390D01*
X134419556Y-66347749D01*
X134306971Y-66192786D01*
X134162213Y-66048028D01*
X133996614Y-65927715D01*
X133979947Y-65919223D01*
X133903917Y-65880483D01*
X133853123Y-65832511D01*
X133836328Y-65764690D01*
X133858865Y-65698555D01*
X133903917Y-65659516D01*
X133996610Y-65612287D01*
X134017770Y-65596913D01*
X134162213Y-65491971D01*
X134162215Y-65491968D01*
X134162219Y-65491966D01*
X134306966Y-65347219D01*
X134306968Y-65347215D01*
X134306971Y-65347213D01*
X134405821Y-65211155D01*
X134427287Y-65181610D01*
X134520220Y-64999219D01*
X134583477Y-64804534D01*
X134613798Y-64613095D01*
X137507558Y-64613095D01*
X137507558Y-64770788D01*
X137538319Y-64925431D01*
X137538322Y-64925443D01*
X137598660Y-65071114D01*
X137598667Y-65071127D01*
X137686268Y-65202230D01*
X137686271Y-65202234D01*
X137797765Y-65313728D01*
X137797769Y-65313731D01*
X137928872Y-65401332D01*
X137928885Y-65401339D01*
X138074556Y-65461677D01*
X138074561Y-65461679D01*
X138226823Y-65491966D01*
X138229211Y-65492441D01*
X138229214Y-65492442D01*
X138229216Y-65492442D01*
X138386902Y-65492442D01*
X138386903Y-65492441D01*
X138541555Y-65461679D01*
X138687237Y-65401336D01*
X138818347Y-65313731D01*
X138929847Y-65202231D01*
X139017452Y-65071121D01*
X139077795Y-64925439D01*
X139084105Y-64893713D01*
X142649500Y-64893713D01*
X142649500Y-65106286D01*
X142682355Y-65313728D01*
X142682754Y-65316243D01*
X142740004Y-65492441D01*
X142748444Y-65518414D01*
X142844951Y-65707820D01*
X142969890Y-65879786D01*
X143120213Y-66030109D01*
X143292179Y-66155048D01*
X143292181Y-66155049D01*
X143292184Y-66155051D01*
X143481588Y-66251557D01*
X143683757Y-66317246D01*
X143893713Y-66350500D01*
X143893714Y-66350500D01*
X144106286Y-66350500D01*
X144106287Y-66350500D01*
X144316243Y-66317246D01*
X144518412Y-66251557D01*
X144707816Y-66155051D01*
X144781372Y-66101610D01*
X144879786Y-66030109D01*
X144879788Y-66030106D01*
X144879792Y-66030104D01*
X145030104Y-65879792D01*
X145030106Y-65879788D01*
X145030109Y-65879786D01*
X145155048Y-65707820D01*
X145155047Y-65707820D01*
X145155051Y-65707816D01*
X145251557Y-65518412D01*
X145317246Y-65316243D01*
X145350500Y-65106287D01*
X145350500Y-64893713D01*
X162649500Y-64893713D01*
X162649500Y-65106286D01*
X162682355Y-65313728D01*
X162682754Y-65316243D01*
X162740004Y-65492441D01*
X162748444Y-65518414D01*
X162844951Y-65707820D01*
X162969890Y-65879786D01*
X163120213Y-66030109D01*
X163292179Y-66155048D01*
X163292181Y-66155049D01*
X163292184Y-66155051D01*
X163481588Y-66251557D01*
X163683757Y-66317246D01*
X163893713Y-66350500D01*
X163893714Y-66350500D01*
X164106286Y-66350500D01*
X164106287Y-66350500D01*
X164316243Y-66317246D01*
X164518412Y-66251557D01*
X164707816Y-66155051D01*
X164781372Y-66101610D01*
X164879786Y-66030109D01*
X164879788Y-66030106D01*
X164879792Y-66030104D01*
X165030104Y-65879792D01*
X165030106Y-65879788D01*
X165030109Y-65879786D01*
X165155048Y-65707820D01*
X165155047Y-65707820D01*
X165155051Y-65707816D01*
X165251557Y-65518412D01*
X165316789Y-65317648D01*
X173699500Y-65317648D01*
X173699500Y-65522352D01*
X173699682Y-65523501D01*
X173731522Y-65724534D01*
X173794781Y-65919223D01*
X173835870Y-65999863D01*
X173869844Y-66066541D01*
X173887715Y-66101613D01*
X174008028Y-66267213D01*
X174152786Y-66411971D01*
X174285000Y-66508028D01*
X174318390Y-66532287D01*
X174434607Y-66591503D01*
X174500776Y-66625218D01*
X174500778Y-66625218D01*
X174500781Y-66625220D01*
X174605137Y-66659127D01*
X174695465Y-66688477D01*
X174796557Y-66704488D01*
X174897648Y-66720500D01*
X174897649Y-66720500D01*
X175102351Y-66720500D01*
X175102352Y-66720500D01*
X175304534Y-66688477D01*
X175499219Y-66625220D01*
X175681610Y-66532287D01*
X175774590Y-66464732D01*
X175847213Y-66411971D01*
X175847215Y-66411968D01*
X175847219Y-66411966D01*
X175991966Y-66267219D01*
X175991968Y-66267215D01*
X175991971Y-66267213D01*
X176073462Y-66155048D01*
X176112287Y-66101610D01*
X176205220Y-65919219D01*
X176268477Y-65724534D01*
X176300500Y-65522352D01*
X176300500Y-65317648D01*
X176282220Y-65202234D01*
X176268477Y-65115465D01*
X176230706Y-64999219D01*
X176205220Y-64920781D01*
X176205218Y-64920778D01*
X176205218Y-64920776D01*
X176133341Y-64779711D01*
X176112287Y-64738390D01*
X176104556Y-64727749D01*
X175991971Y-64572786D01*
X175847213Y-64428028D01*
X175681613Y-64307715D01*
X175681612Y-64307714D01*
X175681610Y-64307713D01*
X175624653Y-64278691D01*
X175499223Y-64214781D01*
X175304534Y-64151522D01*
X175129995Y-64123878D01*
X175102352Y-64119500D01*
X174897648Y-64119500D01*
X174873329Y-64123351D01*
X174695465Y-64151522D01*
X174500776Y-64214781D01*
X174318386Y-64307715D01*
X174152786Y-64428028D01*
X174008028Y-64572786D01*
X173887715Y-64738386D01*
X173794781Y-64920776D01*
X173731522Y-65115465D01*
X173703345Y-65293374D01*
X173699500Y-65317648D01*
X165316789Y-65317648D01*
X165317246Y-65316243D01*
X165350500Y-65106287D01*
X165350500Y-64893713D01*
X165317246Y-64683757D01*
X165251557Y-64481588D01*
X165155051Y-64292184D01*
X165155049Y-64292181D01*
X165155048Y-64292179D01*
X165030109Y-64120213D01*
X164879786Y-63969890D01*
X164707820Y-63844951D01*
X164518414Y-63748444D01*
X164518413Y-63748443D01*
X164518412Y-63748443D01*
X164316243Y-63682754D01*
X164316241Y-63682753D01*
X164316240Y-63682753D01*
X164154957Y-63657208D01*
X164106287Y-63649500D01*
X163893713Y-63649500D01*
X163845042Y-63657208D01*
X163683760Y-63682753D01*
X163481585Y-63748444D01*
X163292179Y-63844951D01*
X163120213Y-63969890D01*
X162969890Y-64120213D01*
X162844951Y-64292179D01*
X162748444Y-64481585D01*
X162682753Y-64683760D01*
X162649500Y-64893713D01*
X145350500Y-64893713D01*
X145317246Y-64683757D01*
X145251557Y-64481588D01*
X145155051Y-64292184D01*
X145155049Y-64292181D01*
X145155048Y-64292179D01*
X145030109Y-64120213D01*
X144879786Y-63969890D01*
X144707820Y-63844951D01*
X144518414Y-63748444D01*
X144518413Y-63748443D01*
X144518412Y-63748443D01*
X144316243Y-63682754D01*
X144316241Y-63682753D01*
X144316240Y-63682753D01*
X144154957Y-63657208D01*
X144106287Y-63649500D01*
X143893713Y-63649500D01*
X143845042Y-63657208D01*
X143683760Y-63682753D01*
X143481585Y-63748444D01*
X143292179Y-63844951D01*
X143120213Y-63969890D01*
X142969890Y-64120213D01*
X142844951Y-64292179D01*
X142748444Y-64481585D01*
X142682753Y-64683760D01*
X142649500Y-64893713D01*
X139084105Y-64893713D01*
X139099916Y-64814224D01*
X139132298Y-64752317D01*
X139133793Y-64750795D01*
X139250739Y-64633849D01*
X139312060Y-64600366D01*
X139314070Y-64599947D01*
X139425439Y-64577795D01*
X139564335Y-64520263D01*
X139571114Y-64517455D01*
X139571114Y-64517454D01*
X139571121Y-64517452D01*
X139702231Y-64429847D01*
X139813731Y-64318347D01*
X139901336Y-64187237D01*
X139961679Y-64041555D01*
X139992442Y-63886900D01*
X139992442Y-63729216D01*
X139992442Y-63729213D01*
X139992441Y-63729211D01*
X139961680Y-63574568D01*
X139961680Y-63574566D01*
X139961679Y-63574561D01*
X139934123Y-63508034D01*
X139901339Y-63428885D01*
X139901332Y-63428872D01*
X139813731Y-63297769D01*
X139813728Y-63297765D01*
X139702234Y-63186271D01*
X139702230Y-63186268D01*
X139571127Y-63098667D01*
X139571114Y-63098660D01*
X139425443Y-63038322D01*
X139425431Y-63038319D01*
X139270787Y-63007558D01*
X139270784Y-63007558D01*
X139113100Y-63007558D01*
X139113097Y-63007558D01*
X138958452Y-63038319D01*
X138958440Y-63038322D01*
X138812769Y-63098660D01*
X138812756Y-63098667D01*
X138681653Y-63186268D01*
X138681649Y-63186271D01*
X138570155Y-63297765D01*
X138570152Y-63297769D01*
X138482551Y-63428872D01*
X138482544Y-63428885D01*
X138422206Y-63574556D01*
X138422203Y-63574566D01*
X138400083Y-63685772D01*
X138367698Y-63747683D01*
X138366147Y-63749261D01*
X138249261Y-63866147D01*
X138187938Y-63899632D01*
X138185772Y-63900083D01*
X138074566Y-63922203D01*
X138074556Y-63922206D01*
X137928885Y-63982544D01*
X137928872Y-63982551D01*
X137797769Y-64070152D01*
X137797765Y-64070155D01*
X137686271Y-64181649D01*
X137686268Y-64181653D01*
X137598667Y-64312756D01*
X137598660Y-64312769D01*
X137538322Y-64458440D01*
X137538319Y-64458452D01*
X137507558Y-64613095D01*
X134613798Y-64613095D01*
X134615500Y-64602352D01*
X134615500Y-64397648D01*
X134601256Y-64307715D01*
X134583477Y-64195465D01*
X134542760Y-64070152D01*
X134520220Y-64000781D01*
X134520218Y-64000778D01*
X134520218Y-64000776D01*
X134480182Y-63922203D01*
X134427287Y-63818390D01*
X134419556Y-63807749D01*
X134306971Y-63652786D01*
X134162213Y-63508028D01*
X133996614Y-63387715D01*
X133990006Y-63384348D01*
X133903917Y-63340483D01*
X133853123Y-63292511D01*
X133836328Y-63224690D01*
X133858865Y-63158555D01*
X133903917Y-63119516D01*
X133996610Y-63072287D01*
X134085703Y-63007558D01*
X134162213Y-62951971D01*
X134162215Y-62951968D01*
X134162219Y-62951966D01*
X134306966Y-62807219D01*
X134427287Y-62641610D01*
X134520220Y-62459219D01*
X134583477Y-62264534D01*
X134615500Y-62062352D01*
X134615500Y-61857648D01*
X134583477Y-61655466D01*
X134520220Y-61460781D01*
X134520218Y-61460778D01*
X134520218Y-61460776D01*
X134443886Y-61310968D01*
X134427287Y-61278390D01*
X134419556Y-61267749D01*
X134306971Y-61112786D01*
X134162213Y-60968028D01*
X133996614Y-60847715D01*
X133990006Y-60844348D01*
X133903917Y-60800483D01*
X133853123Y-60752511D01*
X133836328Y-60684690D01*
X133858865Y-60618555D01*
X133903917Y-60579516D01*
X133996610Y-60532287D01*
X134083945Y-60468835D01*
X134162213Y-60411971D01*
X134162215Y-60411968D01*
X134162219Y-60411966D01*
X134306966Y-60267219D01*
X134306968Y-60267215D01*
X134306971Y-60267213D01*
X134415946Y-60117219D01*
X134427287Y-60101610D01*
X134520220Y-59919219D01*
X134583477Y-59724534D01*
X134615500Y-59522352D01*
X134615500Y-59317648D01*
X134583477Y-59115466D01*
X134520220Y-58920781D01*
X134520218Y-58920778D01*
X134520218Y-58920776D01*
X134486503Y-58854607D01*
X134427287Y-58738390D01*
X134419556Y-58727749D01*
X134306971Y-58572786D01*
X134162213Y-58428028D01*
X133996614Y-58307715D01*
X133990006Y-58304348D01*
X133903917Y-58260483D01*
X133853123Y-58212511D01*
X133836328Y-58144690D01*
X133858865Y-58078555D01*
X133903917Y-58039516D01*
X133996610Y-57992287D01*
X134017770Y-57976913D01*
X134162213Y-57871971D01*
X134162215Y-57871968D01*
X134162219Y-57871966D01*
X134306966Y-57727219D01*
X134306968Y-57727215D01*
X134306971Y-57727213D01*
X134415946Y-57577219D01*
X134427287Y-57561610D01*
X134520220Y-57379219D01*
X134583477Y-57184534D01*
X134615500Y-56982352D01*
X134615500Y-56777648D01*
X134583477Y-56575466D01*
X134520220Y-56380781D01*
X134520218Y-56380778D01*
X134520218Y-56380776D01*
X134486503Y-56314607D01*
X134427287Y-56198390D01*
X134419556Y-56187749D01*
X134306971Y-56032786D01*
X134162213Y-55888028D01*
X133996614Y-55767715D01*
X133990006Y-55764348D01*
X133903917Y-55720483D01*
X133853123Y-55672511D01*
X133836328Y-55604690D01*
X133858865Y-55538555D01*
X133903917Y-55499516D01*
X133996610Y-55452287D01*
X134034424Y-55424814D01*
X134162213Y-55331971D01*
X134162215Y-55331968D01*
X134162219Y-55331966D01*
X134306966Y-55187219D01*
X134306968Y-55187215D01*
X134306971Y-55187213D01*
X134359732Y-55114590D01*
X134427287Y-55021610D01*
X134520220Y-54839219D01*
X134583477Y-54644534D01*
X134615500Y-54442352D01*
X134615500Y-54237648D01*
X134583477Y-54035466D01*
X134520220Y-53840781D01*
X134520218Y-53840778D01*
X134520218Y-53840776D01*
X134468865Y-53739991D01*
X134427287Y-53658390D01*
X134377598Y-53589998D01*
X134306971Y-53492786D01*
X134162213Y-53348028D01*
X133996613Y-53227715D01*
X133996612Y-53227714D01*
X133996610Y-53227713D01*
X133936898Y-53197288D01*
X133814223Y-53134781D01*
X133619534Y-53071522D01*
X133444995Y-53043878D01*
X133417352Y-53039500D01*
X133212648Y-53039500D01*
X133188329Y-53043351D01*
X133010465Y-53071522D01*
X132815776Y-53134781D01*
X132633386Y-53227715D01*
X132467786Y-53348028D01*
X132323028Y-53492786D01*
X132202715Y-53658386D01*
X132109781Y-53840776D01*
X132046522Y-54035465D01*
X132014500Y-54237648D01*
X126995499Y-54237648D01*
X126995499Y-53739992D01*
X126984999Y-53637203D01*
X126929814Y-53470666D01*
X126837712Y-53321344D01*
X126713656Y-53197288D01*
X126564334Y-53105186D01*
X126397797Y-53050001D01*
X126397795Y-53050000D01*
X126295010Y-53039500D01*
X125094998Y-53039500D01*
X125094981Y-53039501D01*
X124992203Y-53050000D01*
X124992200Y-53050001D01*
X124825668Y-53105185D01*
X124825663Y-53105187D01*
X124676342Y-53197289D01*
X124552289Y-53321342D01*
X124460187Y-53470663D01*
X124460186Y-53470666D01*
X124405001Y-53637203D01*
X124405001Y-53637204D01*
X124405000Y-53637204D01*
X124394500Y-53739983D01*
X120500500Y-53739983D01*
X120500500Y-52361153D01*
X165699500Y-52361153D01*
X165699500Y-52518846D01*
X165730261Y-52673489D01*
X165730264Y-52673501D01*
X165790602Y-52819172D01*
X165790609Y-52819184D01*
X165853602Y-52913459D01*
X165874480Y-52980136D01*
X165874500Y-52982350D01*
X165874500Y-59457650D01*
X165854815Y-59524689D01*
X165853602Y-59526541D01*
X165790609Y-59620815D01*
X165790602Y-59620828D01*
X165730264Y-59766498D01*
X165730261Y-59766510D01*
X165699500Y-59921153D01*
X165699500Y-60078846D01*
X165730261Y-60233489D01*
X165730264Y-60233501D01*
X165790602Y-60379172D01*
X165790609Y-60379185D01*
X165878210Y-60510288D01*
X165878213Y-60510292D01*
X165989707Y-60621786D01*
X165989711Y-60621789D01*
X166120814Y-60709390D01*
X166120827Y-60709397D01*
X166266498Y-60769735D01*
X166266503Y-60769737D01*
X166421083Y-60800485D01*
X166421153Y-60800499D01*
X166421156Y-60800500D01*
X166421158Y-60800500D01*
X166578844Y-60800500D01*
X166578845Y-60800499D01*
X166733497Y-60769737D01*
X166846166Y-60723067D01*
X166879172Y-60709397D01*
X166879172Y-60709396D01*
X166879179Y-60709394D01*
X166958523Y-60656378D01*
X167025200Y-60635500D01*
X167092580Y-60653984D01*
X167139271Y-60705963D01*
X167141499Y-60717946D01*
X167833554Y-61410000D01*
X167827339Y-61410000D01*
X167725606Y-61437259D01*
X167634394Y-61489920D01*
X167559920Y-61564394D01*
X167507259Y-61655606D01*
X167480000Y-61757339D01*
X167480000Y-61763553D01*
X166800524Y-61084077D01*
X166800523Y-61084077D01*
X166768143Y-61128644D01*
X166675244Y-61310968D01*
X166612009Y-61505582D01*
X166580000Y-61707682D01*
X166580000Y-61912317D01*
X166612009Y-62114417D01*
X166675244Y-62309031D01*
X166768141Y-62491350D01*
X166768147Y-62491359D01*
X166800523Y-62535921D01*
X166800524Y-62535922D01*
X167480000Y-61856446D01*
X167480000Y-61862661D01*
X167507259Y-61964394D01*
X167559920Y-62055606D01*
X167634394Y-62130080D01*
X167725606Y-62182741D01*
X167827339Y-62210000D01*
X167833553Y-62210000D01*
X167154076Y-62889474D01*
X167198650Y-62921859D01*
X167380968Y-63014755D01*
X167575582Y-63077990D01*
X167777683Y-63110000D01*
X167982317Y-63110000D01*
X168184417Y-63077990D01*
X168379031Y-63014755D01*
X168561349Y-62921859D01*
X168605921Y-62889474D01*
X167926447Y-62210000D01*
X167932661Y-62210000D01*
X168034394Y-62182741D01*
X168125606Y-62130080D01*
X168200080Y-62055606D01*
X168252741Y-61964394D01*
X168280000Y-61862661D01*
X168280000Y-61856447D01*
X168959474Y-62535921D01*
X168991859Y-62491349D01*
X169084755Y-62309031D01*
X169147990Y-62114417D01*
X169180000Y-61912317D01*
X169180000Y-61707682D01*
X169147990Y-61505582D01*
X169084755Y-61310968D01*
X168991859Y-61128650D01*
X168959474Y-61084077D01*
X168959474Y-61084076D01*
X168280000Y-61763551D01*
X168280000Y-61757339D01*
X168252741Y-61655606D01*
X168200080Y-61564394D01*
X168125606Y-61489920D01*
X168034394Y-61437259D01*
X167932661Y-61410000D01*
X167926446Y-61410000D01*
X168605922Y-60730524D01*
X168605921Y-60730523D01*
X168561359Y-60698147D01*
X168561350Y-60698141D01*
X168468369Y-60650765D01*
X168417573Y-60602790D01*
X168400778Y-60534969D01*
X168423315Y-60468835D01*
X168468370Y-60429795D01*
X168561610Y-60382287D01*
X168611144Y-60346298D01*
X168727213Y-60261971D01*
X168727215Y-60261968D01*
X168727219Y-60261966D01*
X168871966Y-60117219D01*
X168871968Y-60117215D01*
X168871971Y-60117213D01*
X168924732Y-60044590D01*
X168992287Y-59951610D01*
X169085220Y-59769219D01*
X169148477Y-59574534D01*
X169180500Y-59372352D01*
X169180500Y-59167648D01*
X169148477Y-58965466D01*
X169133956Y-58920776D01*
X169085218Y-58770776D01*
X169051503Y-58704607D01*
X168992287Y-58588390D01*
X168980950Y-58572786D01*
X168871971Y-58422786D01*
X168727213Y-58278028D01*
X168561614Y-58157715D01*
X168536051Y-58144690D01*
X168468917Y-58110483D01*
X168418123Y-58062511D01*
X168401328Y-57994690D01*
X168423865Y-57928555D01*
X168468917Y-57889516D01*
X168561610Y-57842287D01*
X168634501Y-57789329D01*
X168727213Y-57721971D01*
X168727215Y-57721968D01*
X168727219Y-57721966D01*
X168871966Y-57577219D01*
X168871968Y-57577215D01*
X168871971Y-57577213D01*
X168924732Y-57504590D01*
X168992287Y-57411610D01*
X169085220Y-57229219D01*
X169148477Y-57034534D01*
X169180500Y-56832352D01*
X169180500Y-56627648D01*
X169148477Y-56425466D01*
X169133956Y-56380776D01*
X169085218Y-56230776D01*
X169051503Y-56164607D01*
X168992287Y-56048390D01*
X168980950Y-56032786D01*
X168871971Y-55882786D01*
X168727219Y-55738034D01*
X168683462Y-55706243D01*
X168633547Y-55669978D01*
X168590882Y-55614649D01*
X168584903Y-55545036D01*
X168617508Y-55483240D01*
X168667426Y-55451955D01*
X168749334Y-55424814D01*
X168898656Y-55332712D01*
X169022712Y-55208656D01*
X169114814Y-55059334D01*
X169169999Y-54892797D01*
X169180500Y-54790009D01*
X169180499Y-54087648D01*
X174199500Y-54087648D01*
X174199500Y-54292351D01*
X174231522Y-54494534D01*
X174294781Y-54689223D01*
X174387715Y-54871613D01*
X174508028Y-55037213D01*
X174652786Y-55181971D01*
X174807749Y-55294556D01*
X174818390Y-55302287D01*
X174909840Y-55348883D01*
X174911080Y-55349515D01*
X174961876Y-55397490D01*
X174978671Y-55465311D01*
X174956134Y-55531446D01*
X174911080Y-55570485D01*
X174818386Y-55617715D01*
X174652786Y-55738028D01*
X174508028Y-55882786D01*
X174387715Y-56048386D01*
X174294781Y-56230776D01*
X174231522Y-56425465D01*
X174199500Y-56627648D01*
X174199500Y-56832351D01*
X174231522Y-57034534D01*
X174294781Y-57229223D01*
X174387715Y-57411613D01*
X174508028Y-57577213D01*
X174652786Y-57721971D01*
X174807749Y-57834556D01*
X174818390Y-57842287D01*
X174909840Y-57888883D01*
X174911080Y-57889515D01*
X174961876Y-57937490D01*
X174978671Y-58005311D01*
X174956134Y-58071446D01*
X174911080Y-58110485D01*
X174818386Y-58157715D01*
X174652786Y-58278028D01*
X174508028Y-58422786D01*
X174387715Y-58588386D01*
X174294781Y-58770776D01*
X174231522Y-58965465D01*
X174199500Y-59167648D01*
X174199500Y-59372351D01*
X174231522Y-59574534D01*
X174294781Y-59769223D01*
X174358691Y-59894653D01*
X174372194Y-59921153D01*
X174387715Y-59951613D01*
X174508028Y-60117213D01*
X174652786Y-60261971D01*
X174818385Y-60382284D01*
X174818387Y-60382285D01*
X174818390Y-60382287D01*
X174911630Y-60429795D01*
X174962426Y-60477770D01*
X174979221Y-60545591D01*
X174956684Y-60611725D01*
X174911630Y-60650765D01*
X174818644Y-60698143D01*
X174774077Y-60730523D01*
X174774077Y-60730524D01*
X175453554Y-61410000D01*
X175447339Y-61410000D01*
X175345606Y-61437259D01*
X175254394Y-61489920D01*
X175179920Y-61564394D01*
X175127259Y-61655606D01*
X175100000Y-61757339D01*
X175100000Y-61763553D01*
X174420524Y-61084077D01*
X174420523Y-61084077D01*
X174388143Y-61128644D01*
X174295244Y-61310968D01*
X174232009Y-61505582D01*
X174200000Y-61707682D01*
X174200000Y-61912317D01*
X174232009Y-62114417D01*
X174295244Y-62309031D01*
X174388141Y-62491350D01*
X174388147Y-62491359D01*
X174420523Y-62535921D01*
X174420524Y-62535922D01*
X175100000Y-61856446D01*
X175100000Y-61862661D01*
X175127259Y-61964394D01*
X175179920Y-62055606D01*
X175254394Y-62130080D01*
X175345606Y-62182741D01*
X175447339Y-62210000D01*
X175453553Y-62210000D01*
X174774076Y-62889474D01*
X174818650Y-62921859D01*
X175000968Y-63014755D01*
X175195582Y-63077990D01*
X175397683Y-63110000D01*
X175602317Y-63110000D01*
X175804417Y-63077990D01*
X175999031Y-63014755D01*
X176181349Y-62921859D01*
X176225921Y-62889474D01*
X175546447Y-62210000D01*
X175552661Y-62210000D01*
X175654394Y-62182741D01*
X175745606Y-62130080D01*
X175820080Y-62055606D01*
X175872741Y-61964394D01*
X175900000Y-61862661D01*
X175900000Y-61856447D01*
X176579474Y-62535921D01*
X176611859Y-62491349D01*
X176704755Y-62309031D01*
X176767990Y-62114417D01*
X176800000Y-61912317D01*
X176800000Y-61707682D01*
X176767990Y-61505582D01*
X176704755Y-61310968D01*
X176611859Y-61128650D01*
X176579474Y-61084077D01*
X176579474Y-61084076D01*
X175900000Y-61763551D01*
X175900000Y-61757339D01*
X175872741Y-61655606D01*
X175820080Y-61564394D01*
X175745606Y-61489920D01*
X175654394Y-61437259D01*
X175552661Y-61410000D01*
X175546446Y-61410000D01*
X176225922Y-60730524D01*
X176225921Y-60730523D01*
X176181359Y-60698147D01*
X176181350Y-60698141D01*
X176088369Y-60650765D01*
X176037573Y-60602790D01*
X176020778Y-60534969D01*
X176043315Y-60468835D01*
X176088370Y-60429795D01*
X176181610Y-60382287D01*
X176231144Y-60346298D01*
X176347213Y-60261971D01*
X176347215Y-60261968D01*
X176347219Y-60261966D01*
X176491966Y-60117219D01*
X176491968Y-60117215D01*
X176491971Y-60117213D01*
X176544732Y-60044590D01*
X176612287Y-59951610D01*
X176705220Y-59769219D01*
X176768477Y-59574534D01*
X176800500Y-59372352D01*
X176800500Y-59167648D01*
X176768477Y-58965466D01*
X176753956Y-58920776D01*
X176705218Y-58770776D01*
X176671503Y-58704607D01*
X176612287Y-58588390D01*
X176600950Y-58572786D01*
X176491971Y-58422786D01*
X176347213Y-58278028D01*
X176181614Y-58157715D01*
X176156051Y-58144690D01*
X176088917Y-58110483D01*
X176038123Y-58062511D01*
X176021328Y-57994690D01*
X176043865Y-57928555D01*
X176088917Y-57889516D01*
X176181610Y-57842287D01*
X176254501Y-57789329D01*
X176347213Y-57721971D01*
X176347215Y-57721968D01*
X176347219Y-57721966D01*
X176491966Y-57577219D01*
X176491968Y-57577215D01*
X176491971Y-57577213D01*
X176544732Y-57504590D01*
X176612287Y-57411610D01*
X176705220Y-57229219D01*
X176768477Y-57034534D01*
X176800500Y-56832352D01*
X176800500Y-56627648D01*
X176768477Y-56425466D01*
X176753956Y-56380776D01*
X176705218Y-56230776D01*
X176671503Y-56164607D01*
X176612287Y-56048390D01*
X176600950Y-56032786D01*
X176491971Y-55882786D01*
X176347213Y-55738028D01*
X176181614Y-55617715D01*
X176150681Y-55601954D01*
X176088917Y-55570483D01*
X176038123Y-55522511D01*
X176021328Y-55454690D01*
X176043865Y-55388555D01*
X176088917Y-55349516D01*
X176181610Y-55302287D01*
X176202770Y-55286913D01*
X176347213Y-55181971D01*
X176347215Y-55181968D01*
X176347219Y-55181966D01*
X176491966Y-55037219D01*
X176491968Y-55037215D01*
X176491971Y-55037213D01*
X176562586Y-54940018D01*
X176612287Y-54871610D01*
X176705220Y-54689219D01*
X176768477Y-54494534D01*
X176800500Y-54292352D01*
X176800500Y-54087648D01*
X176768477Y-53885466D01*
X176753956Y-53840776D01*
X176739127Y-53795137D01*
X176705220Y-53690781D01*
X176705218Y-53690778D01*
X176705218Y-53690776D01*
X176653865Y-53589992D01*
X176612287Y-53508390D01*
X176600950Y-53492786D01*
X176491971Y-53342786D01*
X176347213Y-53198028D01*
X176181613Y-53077715D01*
X176181612Y-53077714D01*
X176181610Y-53077713D01*
X176106613Y-53039500D01*
X175999223Y-52984781D01*
X175804534Y-52921522D01*
X175629995Y-52893878D01*
X175602352Y-52889500D01*
X175397648Y-52889500D01*
X175373329Y-52893351D01*
X175195465Y-52921522D01*
X175000776Y-52984781D01*
X174818386Y-53077715D01*
X174652786Y-53198028D01*
X174508028Y-53342786D01*
X174387715Y-53508386D01*
X174294781Y-53690776D01*
X174231522Y-53885465D01*
X174199500Y-54087648D01*
X169180499Y-54087648D01*
X169180499Y-53589992D01*
X169169999Y-53487203D01*
X169114814Y-53320666D01*
X169022712Y-53171344D01*
X168898656Y-53047288D01*
X168749334Y-52955186D01*
X168582797Y-52900001D01*
X168582795Y-52900000D01*
X168480016Y-52889500D01*
X167365844Y-52889500D01*
X167298805Y-52869815D01*
X167253050Y-52817011D01*
X167243106Y-52747853D01*
X167251280Y-52718055D01*
X167269737Y-52673497D01*
X167300500Y-52518842D01*
X167300500Y-52361158D01*
X167300500Y-52361155D01*
X167300499Y-52361153D01*
X167269738Y-52206510D01*
X167269737Y-52206503D01*
X167269735Y-52206498D01*
X167209397Y-52060827D01*
X167209390Y-52060814D01*
X167121789Y-51929711D01*
X167121786Y-51929707D01*
X167010292Y-51818213D01*
X167010288Y-51818210D01*
X166879185Y-51730609D01*
X166879172Y-51730602D01*
X166733501Y-51670264D01*
X166733489Y-51670261D01*
X166578845Y-51639500D01*
X166578842Y-51639500D01*
X166421158Y-51639500D01*
X166421155Y-51639500D01*
X166266510Y-51670261D01*
X166266498Y-51670264D01*
X166120827Y-51730602D01*
X166120814Y-51730609D01*
X165989711Y-51818210D01*
X165989707Y-51818213D01*
X165878213Y-51929707D01*
X165878210Y-51929711D01*
X165790609Y-52060814D01*
X165790602Y-52060827D01*
X165730264Y-52206498D01*
X165730261Y-52206510D01*
X165699500Y-52361153D01*
X120500500Y-52361153D01*
X120500500Y-50397682D01*
X126200000Y-50397682D01*
X126200000Y-50602317D01*
X126232009Y-50804417D01*
X126295244Y-50999031D01*
X126388141Y-51181350D01*
X126388147Y-51181359D01*
X126420523Y-51225921D01*
X126420524Y-51225922D01*
X127100000Y-50546446D01*
X127100000Y-50552661D01*
X127127259Y-50654394D01*
X127179920Y-50745606D01*
X127254394Y-50820080D01*
X127345606Y-50872741D01*
X127447339Y-50900000D01*
X127453553Y-50900000D01*
X126774076Y-51579474D01*
X126818650Y-51611859D01*
X127000968Y-51704755D01*
X127195582Y-51767990D01*
X127397683Y-51800000D01*
X127602317Y-51800000D01*
X127804417Y-51767990D01*
X127999031Y-51704755D01*
X128181349Y-51611859D01*
X128225921Y-51579474D01*
X127546447Y-50900000D01*
X127552661Y-50900000D01*
X127654394Y-50872741D01*
X127745606Y-50820080D01*
X127820080Y-50745606D01*
X127872741Y-50654394D01*
X127900000Y-50552661D01*
X127900000Y-50546448D01*
X128579474Y-51225922D01*
X128579474Y-51225921D01*
X128611859Y-51181349D01*
X128704755Y-50999031D01*
X128767990Y-50804417D01*
X128800000Y-50602317D01*
X128800000Y-50397682D01*
X128799995Y-50397648D01*
X131199500Y-50397648D01*
X131199500Y-50602351D01*
X131231522Y-50804534D01*
X131294781Y-50999223D01*
X131358691Y-51124653D01*
X131387585Y-51181359D01*
X131387715Y-51181613D01*
X131508028Y-51347213D01*
X131652786Y-51491971D01*
X131773226Y-51579474D01*
X131818390Y-51612287D01*
X131902319Y-51655051D01*
X132000776Y-51705218D01*
X132000778Y-51705218D01*
X132000781Y-51705220D01*
X132105137Y-51739127D01*
X132195465Y-51768477D01*
X132296557Y-51784488D01*
X132397648Y-51800500D01*
X132397649Y-51800500D01*
X132602351Y-51800500D01*
X132602352Y-51800500D01*
X132804534Y-51768477D01*
X132999219Y-51705220D01*
X133181610Y-51612287D01*
X133294726Y-51530104D01*
X133347213Y-51491971D01*
X133347215Y-51491968D01*
X133347219Y-51491966D01*
X133491966Y-51347219D01*
X133491968Y-51347215D01*
X133491971Y-51347213D01*
X133544732Y-51274590D01*
X133612287Y-51181610D01*
X133705220Y-50999219D01*
X133768477Y-50804534D01*
X133800500Y-50602352D01*
X133800500Y-50397648D01*
X133799877Y-50393713D01*
X142649500Y-50393713D01*
X142649500Y-50606287D01*
X142682754Y-50816243D01*
X142709968Y-50900000D01*
X142748444Y-51018414D01*
X142844951Y-51207820D01*
X142969890Y-51379786D01*
X143120213Y-51530109D01*
X143292179Y-51655048D01*
X143292181Y-51655049D01*
X143292184Y-51655051D01*
X143481588Y-51751557D01*
X143683757Y-51817246D01*
X143893713Y-51850500D01*
X143893714Y-51850500D01*
X144106286Y-51850500D01*
X144106287Y-51850500D01*
X144316243Y-51817246D01*
X144518412Y-51751557D01*
X144707816Y-51655051D01*
X144811840Y-51579474D01*
X144879786Y-51530109D01*
X144879788Y-51530106D01*
X144879792Y-51530104D01*
X145030104Y-51379792D01*
X145030106Y-51379788D01*
X145030109Y-51379786D01*
X145155048Y-51207820D01*
X145155047Y-51207820D01*
X145155051Y-51207816D01*
X145251557Y-51018412D01*
X145317246Y-50816243D01*
X145350500Y-50606287D01*
X145350500Y-50393713D01*
X162149500Y-50393713D01*
X162149500Y-50606287D01*
X162182754Y-50816243D01*
X162209968Y-50900000D01*
X162248444Y-51018414D01*
X162344951Y-51207820D01*
X162469890Y-51379786D01*
X162620213Y-51530109D01*
X162792179Y-51655048D01*
X162792181Y-51655049D01*
X162792184Y-51655051D01*
X162981588Y-51751557D01*
X163183757Y-51817246D01*
X163393713Y-51850500D01*
X163393714Y-51850500D01*
X163606286Y-51850500D01*
X163606287Y-51850500D01*
X163816243Y-51817246D01*
X164018412Y-51751557D01*
X164207816Y-51655051D01*
X164311840Y-51579474D01*
X164379786Y-51530109D01*
X164379788Y-51530106D01*
X164379792Y-51530104D01*
X164530104Y-51379792D01*
X164530106Y-51379788D01*
X164530109Y-51379786D01*
X164655048Y-51207820D01*
X164655047Y-51207820D01*
X164655051Y-51207816D01*
X164751557Y-51018412D01*
X164817246Y-50816243D01*
X164850500Y-50606287D01*
X164850500Y-50393713D01*
X164817246Y-50183757D01*
X164751557Y-49981588D01*
X164655051Y-49792184D01*
X164655049Y-49792181D01*
X164655048Y-49792179D01*
X164530109Y-49620213D01*
X164379786Y-49469890D01*
X164207820Y-49344951D01*
X164018414Y-49248444D01*
X164018413Y-49248443D01*
X164018412Y-49248443D01*
X163816243Y-49182754D01*
X163816241Y-49182753D01*
X163816240Y-49182753D01*
X163654957Y-49157208D01*
X163606287Y-49149500D01*
X163393713Y-49149500D01*
X163345042Y-49157208D01*
X163183760Y-49182753D01*
X162981585Y-49248444D01*
X162792179Y-49344951D01*
X162620213Y-49469890D01*
X162469890Y-49620213D01*
X162344951Y-49792179D01*
X162248444Y-49981585D01*
X162182753Y-50183760D01*
X162180899Y-50195466D01*
X162149500Y-50393713D01*
X145350500Y-50393713D01*
X145317246Y-50183757D01*
X145251557Y-49981588D01*
X145155051Y-49792184D01*
X145155049Y-49792181D01*
X145155048Y-49792179D01*
X145030109Y-49620213D01*
X144879786Y-49469890D01*
X144707820Y-49344951D01*
X144518414Y-49248444D01*
X144518413Y-49248443D01*
X144518412Y-49248443D01*
X144316243Y-49182754D01*
X144316241Y-49182753D01*
X144316240Y-49182753D01*
X144154957Y-49157208D01*
X144106287Y-49149500D01*
X143893713Y-49149500D01*
X143845042Y-49157208D01*
X143683760Y-49182753D01*
X143481585Y-49248444D01*
X143292179Y-49344951D01*
X143120213Y-49469890D01*
X142969890Y-49620213D01*
X142844951Y-49792179D01*
X142748444Y-49981585D01*
X142682753Y-50183760D01*
X142680899Y-50195466D01*
X142649500Y-50393713D01*
X133799877Y-50393713D01*
X133792257Y-50345606D01*
X133768477Y-50195465D01*
X133737458Y-50100000D01*
X133705220Y-50000781D01*
X133705218Y-50000778D01*
X133705218Y-50000776D01*
X133612419Y-49818650D01*
X133612287Y-49818390D01*
X133604556Y-49807749D01*
X133491971Y-49652786D01*
X133347213Y-49508028D01*
X133181613Y-49387715D01*
X133181612Y-49387714D01*
X133181610Y-49387713D01*
X133097681Y-49344949D01*
X132999223Y-49294781D01*
X132804534Y-49231522D01*
X132629995Y-49203878D01*
X132602352Y-49199500D01*
X132397648Y-49199500D01*
X132373329Y-49203351D01*
X132195465Y-49231522D01*
X132000776Y-49294781D01*
X131818386Y-49387715D01*
X131652786Y-49508028D01*
X131508028Y-49652786D01*
X131387715Y-49818386D01*
X131294781Y-50000776D01*
X131231522Y-50195465D01*
X131199500Y-50397648D01*
X128799995Y-50397648D01*
X128767990Y-50195582D01*
X128704755Y-50000968D01*
X128611859Y-49818650D01*
X128579474Y-49774077D01*
X128579474Y-49774076D01*
X127900000Y-50453551D01*
X127900000Y-50447339D01*
X127872741Y-50345606D01*
X127820080Y-50254394D01*
X127745606Y-50179920D01*
X127654394Y-50127259D01*
X127552661Y-50100000D01*
X127546446Y-50100000D01*
X128225922Y-49420524D01*
X128225921Y-49420523D01*
X128181359Y-49388147D01*
X128181350Y-49388141D01*
X127999031Y-49295244D01*
X127804417Y-49232009D01*
X127602317Y-49200000D01*
X127397683Y-49200000D01*
X127195582Y-49232009D01*
X127000968Y-49295244D01*
X126818644Y-49388143D01*
X126774077Y-49420523D01*
X126774077Y-49420524D01*
X127453554Y-50100000D01*
X127447339Y-50100000D01*
X127345606Y-50127259D01*
X127254394Y-50179920D01*
X127179920Y-50254394D01*
X127127259Y-50345606D01*
X127100000Y-50447339D01*
X127100000Y-50453553D01*
X126420524Y-49774077D01*
X126420523Y-49774077D01*
X126388143Y-49818644D01*
X126295244Y-50000968D01*
X126232009Y-50195582D01*
X126200000Y-50397682D01*
X120500500Y-50397682D01*
X120500500Y-46052135D01*
X135324500Y-46052135D01*
X135324500Y-47947870D01*
X135324501Y-47947876D01*
X135330908Y-48007483D01*
X135381202Y-48142328D01*
X135381206Y-48142335D01*
X135467452Y-48257544D01*
X135467455Y-48257547D01*
X135582664Y-48343793D01*
X135582671Y-48343797D01*
X135717517Y-48394091D01*
X135717516Y-48394091D01*
X135724444Y-48394835D01*
X135777127Y-48400500D01*
X137672872Y-48400499D01*
X137732483Y-48394091D01*
X137867331Y-48343796D01*
X137982546Y-48257546D01*
X138068796Y-48142331D01*
X138096429Y-48068243D01*
X138098601Y-48062420D01*
X138140471Y-48006486D01*
X138205936Y-47982068D01*
X138274209Y-47996919D01*
X138302464Y-48018071D01*
X138352636Y-48068243D01*
X138352641Y-48068247D01*
X138454603Y-48142326D01*
X138530978Y-48197815D01*
X138659375Y-48263237D01*
X138727393Y-48297895D01*
X138727396Y-48297896D01*
X138832221Y-48331955D01*
X138937049Y-48366015D01*
X139154778Y-48400500D01*
X139154779Y-48400500D01*
X139375221Y-48400500D01*
X139375222Y-48400500D01*
X139592951Y-48366015D01*
X139802606Y-48297895D01*
X139999022Y-48197815D01*
X140177365Y-48068242D01*
X140333242Y-47912365D01*
X140462815Y-47734022D01*
X140562895Y-47537606D01*
X140631015Y-47327951D01*
X140665500Y-47110222D01*
X140665500Y-46996941D01*
X140685185Y-46929902D01*
X140737989Y-46884147D01*
X140807147Y-46874203D01*
X140870703Y-46903228D01*
X140877181Y-46909260D01*
X140989707Y-47021786D01*
X140989711Y-47021789D01*
X141120814Y-47109390D01*
X141120827Y-47109397D01*
X141266498Y-47169735D01*
X141266503Y-47169737D01*
X141421153Y-47200499D01*
X141421156Y-47200500D01*
X141421158Y-47200500D01*
X141578844Y-47200500D01*
X141578845Y-47200499D01*
X141733497Y-47169737D01*
X141877180Y-47110222D01*
X141879172Y-47109397D01*
X141879172Y-47109396D01*
X141879179Y-47109394D01*
X142010289Y-47021789D01*
X142121789Y-46910289D01*
X142209394Y-46779179D01*
X142269737Y-46633497D01*
X142300500Y-46478842D01*
X142300500Y-46321158D01*
X142300500Y-46321155D01*
X142300499Y-46321153D01*
X142289524Y-46265978D01*
X142269737Y-46166503D01*
X142222365Y-46052135D01*
X167059500Y-46052135D01*
X167059500Y-47947870D01*
X167059501Y-47947876D01*
X167065908Y-48007483D01*
X167116202Y-48142328D01*
X167116206Y-48142335D01*
X167202452Y-48257544D01*
X167202455Y-48257547D01*
X167317664Y-48343793D01*
X167317671Y-48343797D01*
X167452517Y-48394091D01*
X167452516Y-48394091D01*
X167459444Y-48394835D01*
X167512127Y-48400500D01*
X169407872Y-48400499D01*
X169467483Y-48394091D01*
X169602331Y-48343796D01*
X169717546Y-48257546D01*
X169803796Y-48142331D01*
X169831429Y-48068243D01*
X169833601Y-48062420D01*
X169875471Y-48006486D01*
X169940936Y-47982068D01*
X170009209Y-47996919D01*
X170037464Y-48018071D01*
X170087636Y-48068243D01*
X170087641Y-48068247D01*
X170189603Y-48142326D01*
X170265978Y-48197815D01*
X170394375Y-48263237D01*
X170462393Y-48297895D01*
X170462396Y-48297896D01*
X170567221Y-48331955D01*
X170672049Y-48366015D01*
X170889778Y-48400500D01*
X170889779Y-48400500D01*
X171110221Y-48400500D01*
X171110222Y-48400500D01*
X171327951Y-48366015D01*
X171537606Y-48297895D01*
X171734022Y-48197815D01*
X171912365Y-48068242D01*
X172068242Y-47912365D01*
X172197815Y-47734022D01*
X172297895Y-47537606D01*
X172366015Y-47327951D01*
X172400500Y-47110222D01*
X172400500Y-46889778D01*
X172366015Y-46672049D01*
X172331955Y-46567221D01*
X172297896Y-46462396D01*
X172297895Y-46462393D01*
X172244496Y-46357594D01*
X172197815Y-46265978D01*
X172079195Y-46102710D01*
X172068247Y-46087641D01*
X172068243Y-46087636D01*
X171912363Y-45931756D01*
X171912358Y-45931752D01*
X171734025Y-45802187D01*
X171734024Y-45802186D01*
X171734022Y-45802185D01*
X171616791Y-45742452D01*
X171537606Y-45702104D01*
X171537603Y-45702103D01*
X171327952Y-45633985D01*
X171219086Y-45616742D01*
X171110222Y-45599500D01*
X170889778Y-45599500D01*
X170817201Y-45610995D01*
X170672047Y-45633985D01*
X170462396Y-45702103D01*
X170462393Y-45702104D01*
X170265974Y-45802187D01*
X170087641Y-45931752D01*
X170087636Y-45931756D01*
X170037463Y-45981929D01*
X169976140Y-46015413D01*
X169906448Y-46010428D01*
X169850515Y-45968557D01*
X169833601Y-45937580D01*
X169803797Y-45857671D01*
X169803793Y-45857664D01*
X169717547Y-45742455D01*
X169717544Y-45742452D01*
X169602335Y-45656206D01*
X169602328Y-45656202D01*
X169467482Y-45605908D01*
X169467483Y-45605908D01*
X169407883Y-45599501D01*
X169407881Y-45599500D01*
X169407873Y-45599500D01*
X169407864Y-45599500D01*
X167512129Y-45599500D01*
X167512123Y-45599501D01*
X167452516Y-45605908D01*
X167317671Y-45656202D01*
X167317664Y-45656206D01*
X167202455Y-45742452D01*
X167202452Y-45742455D01*
X167116206Y-45857664D01*
X167116202Y-45857671D01*
X167065908Y-45992517D01*
X167059501Y-46052116D01*
X167059500Y-46052135D01*
X142222365Y-46052135D01*
X142209394Y-46020821D01*
X142143499Y-45922202D01*
X142140985Y-45917655D01*
X142134464Y-45888430D01*
X142125520Y-45859863D01*
X142125500Y-45857650D01*
X142125500Y-45692350D01*
X142145185Y-45625311D01*
X142146398Y-45623459D01*
X142146809Y-45622843D01*
X142209394Y-45529179D01*
X142269737Y-45383497D01*
X142300500Y-45228842D01*
X142300500Y-45071158D01*
X142300500Y-45071155D01*
X142300499Y-45071153D01*
X142269738Y-44916510D01*
X142269737Y-44916503D01*
X142269735Y-44916498D01*
X142209397Y-44770827D01*
X142209390Y-44770814D01*
X142121789Y-44639711D01*
X142121786Y-44639707D01*
X142010292Y-44528213D01*
X142010288Y-44528210D01*
X141879185Y-44440609D01*
X141879172Y-44440602D01*
X141733501Y-44380264D01*
X141733489Y-44380261D01*
X141578845Y-44349500D01*
X141578842Y-44349500D01*
X141421158Y-44349500D01*
X141421155Y-44349500D01*
X141266510Y-44380261D01*
X141266498Y-44380264D01*
X141120827Y-44440602D01*
X141120814Y-44440609D01*
X140989711Y-44528210D01*
X140989707Y-44528213D01*
X140878213Y-44639707D01*
X140878210Y-44639711D01*
X140790609Y-44770814D01*
X140790602Y-44770827D01*
X140730264Y-44916498D01*
X140730261Y-44916510D01*
X140699500Y-45071153D01*
X140699500Y-45228846D01*
X140730261Y-45383489D01*
X140730264Y-45383501D01*
X140790602Y-45529172D01*
X140790609Y-45529184D01*
X140853602Y-45623459D01*
X140874480Y-45690136D01*
X140874500Y-45692350D01*
X140874500Y-45857650D01*
X140854815Y-45924689D01*
X140853602Y-45926541D01*
X140790609Y-46020815D01*
X140790602Y-46020828D01*
X140730264Y-46166498D01*
X140730261Y-46166507D01*
X140710699Y-46264851D01*
X140678313Y-46326761D01*
X140617597Y-46361335D01*
X140547828Y-46357594D01*
X140491156Y-46316727D01*
X140478597Y-46296952D01*
X140462814Y-46265976D01*
X140333247Y-46087641D01*
X140333243Y-46087636D01*
X140177363Y-45931756D01*
X140177358Y-45931752D01*
X139999025Y-45802187D01*
X139999024Y-45802186D01*
X139999022Y-45802185D01*
X139881791Y-45742452D01*
X139802606Y-45702104D01*
X139802603Y-45702103D01*
X139592952Y-45633985D01*
X139484086Y-45616742D01*
X139375222Y-45599500D01*
X139154778Y-45599500D01*
X139082201Y-45610995D01*
X138937047Y-45633985D01*
X138727396Y-45702103D01*
X138727393Y-45702104D01*
X138530974Y-45802187D01*
X138352641Y-45931752D01*
X138352636Y-45931756D01*
X138302463Y-45981929D01*
X138241140Y-46015413D01*
X138171448Y-46010428D01*
X138115515Y-45968557D01*
X138098601Y-45937580D01*
X138068797Y-45857671D01*
X138068793Y-45857664D01*
X137982547Y-45742455D01*
X137982544Y-45742452D01*
X137867335Y-45656206D01*
X137867328Y-45656202D01*
X137732482Y-45605908D01*
X137732483Y-45605908D01*
X137672883Y-45599501D01*
X137672881Y-45599500D01*
X137672873Y-45599500D01*
X137672864Y-45599500D01*
X135777129Y-45599500D01*
X135777123Y-45599501D01*
X135717516Y-45605908D01*
X135582671Y-45656202D01*
X135582664Y-45656206D01*
X135467455Y-45742452D01*
X135467452Y-45742455D01*
X135381206Y-45857664D01*
X135381202Y-45857671D01*
X135330908Y-45992517D01*
X135324501Y-46052116D01*
X135324500Y-46052135D01*
X120500500Y-46052135D01*
X120500500Y-41897648D01*
X138539500Y-41897648D01*
X138539500Y-42102351D01*
X138571522Y-42304534D01*
X138634781Y-42499223D01*
X138727715Y-42681613D01*
X138848028Y-42847213D01*
X138992786Y-42991971D01*
X139147749Y-43104556D01*
X139158390Y-43112287D01*
X139274607Y-43171503D01*
X139340776Y-43205218D01*
X139340778Y-43205218D01*
X139340781Y-43205220D01*
X139445137Y-43239127D01*
X139535465Y-43268477D01*
X139636557Y-43284488D01*
X139737648Y-43300500D01*
X139737649Y-43300500D01*
X139942351Y-43300500D01*
X139942352Y-43300500D01*
X140144534Y-43268477D01*
X140339219Y-43205220D01*
X140521610Y-43112287D01*
X140614590Y-43044732D01*
X140687213Y-42991971D01*
X140687215Y-42991968D01*
X140687219Y-42991966D01*
X140831966Y-42847219D01*
X140831968Y-42847215D01*
X140831971Y-42847213D01*
X140884732Y-42774590D01*
X140952287Y-42681610D01*
X141045220Y-42499219D01*
X141108477Y-42304534D01*
X141140500Y-42102352D01*
X141140500Y-41897648D01*
X148699500Y-41897648D01*
X148699500Y-42102351D01*
X148731522Y-42304534D01*
X148794781Y-42499223D01*
X148887715Y-42681613D01*
X149008028Y-42847213D01*
X149152786Y-42991971D01*
X149307749Y-43104556D01*
X149318390Y-43112287D01*
X149434607Y-43171503D01*
X149500776Y-43205218D01*
X149500778Y-43205218D01*
X149500781Y-43205220D01*
X149605137Y-43239127D01*
X149695465Y-43268477D01*
X149796557Y-43284488D01*
X149897648Y-43300500D01*
X149897649Y-43300500D01*
X150102351Y-43300500D01*
X150102352Y-43300500D01*
X150304534Y-43268477D01*
X150499219Y-43205220D01*
X150681610Y-43112287D01*
X150774590Y-43044732D01*
X150847213Y-42991971D01*
X150847215Y-42991968D01*
X150847219Y-42991966D01*
X150991966Y-42847219D01*
X150991968Y-42847215D01*
X150991971Y-42847213D01*
X151044732Y-42774590D01*
X151112287Y-42681610D01*
X151205220Y-42499219D01*
X151268477Y-42304534D01*
X151300500Y-42102352D01*
X151300500Y-41897648D01*
X156199500Y-41897648D01*
X156199500Y-42102351D01*
X156231522Y-42304534D01*
X156294781Y-42499223D01*
X156387715Y-42681613D01*
X156508028Y-42847213D01*
X156652786Y-42991971D01*
X156807749Y-43104556D01*
X156818390Y-43112287D01*
X156934607Y-43171503D01*
X157000776Y-43205218D01*
X157000778Y-43205218D01*
X157000781Y-43205220D01*
X157105137Y-43239127D01*
X157195465Y-43268477D01*
X157296557Y-43284488D01*
X157397648Y-43300500D01*
X157397649Y-43300500D01*
X157602351Y-43300500D01*
X157602352Y-43300500D01*
X157804534Y-43268477D01*
X157999219Y-43205220D01*
X158181610Y-43112287D01*
X158274590Y-43044732D01*
X158347213Y-42991971D01*
X158347215Y-42991968D01*
X158347219Y-42991966D01*
X158491966Y-42847219D01*
X158491968Y-42847215D01*
X158491971Y-42847213D01*
X158544732Y-42774590D01*
X158612287Y-42681610D01*
X158705220Y-42499219D01*
X158768477Y-42304534D01*
X158800500Y-42102352D01*
X158800500Y-41897648D01*
X166359500Y-41897648D01*
X166359500Y-42102351D01*
X166391522Y-42304534D01*
X166454781Y-42499223D01*
X166547715Y-42681613D01*
X166668028Y-42847213D01*
X166812786Y-42991971D01*
X166967749Y-43104556D01*
X166978390Y-43112287D01*
X167094607Y-43171503D01*
X167160776Y-43205218D01*
X167160778Y-43205218D01*
X167160781Y-43205220D01*
X167265137Y-43239127D01*
X167355465Y-43268477D01*
X167456557Y-43284488D01*
X167557648Y-43300500D01*
X167557649Y-43300500D01*
X167762351Y-43300500D01*
X167762352Y-43300500D01*
X167964534Y-43268477D01*
X168159219Y-43205220D01*
X168341610Y-43112287D01*
X168434590Y-43044732D01*
X168507213Y-42991971D01*
X168507215Y-42991968D01*
X168507219Y-42991966D01*
X168651966Y-42847219D01*
X168651968Y-42847215D01*
X168651971Y-42847213D01*
X168704732Y-42774590D01*
X168772287Y-42681610D01*
X168865220Y-42499219D01*
X168928477Y-42304534D01*
X168960500Y-42102352D01*
X168960500Y-41897648D01*
X168928477Y-41695466D01*
X168865220Y-41500781D01*
X168865218Y-41500778D01*
X168865218Y-41500776D01*
X168831503Y-41434607D01*
X168772287Y-41318390D01*
X168764556Y-41307749D01*
X168651971Y-41152786D01*
X168507213Y-41008028D01*
X168341613Y-40887715D01*
X168341612Y-40887714D01*
X168341610Y-40887713D01*
X168284653Y-40858691D01*
X168159223Y-40794781D01*
X167964534Y-40731522D01*
X167789995Y-40703878D01*
X167762352Y-40699500D01*
X167557648Y-40699500D01*
X167533329Y-40703351D01*
X167355465Y-40731522D01*
X167160776Y-40794781D01*
X166978386Y-40887715D01*
X166812786Y-41008028D01*
X166668028Y-41152786D01*
X166547715Y-41318386D01*
X166454781Y-41500776D01*
X166391522Y-41695465D01*
X166359500Y-41897648D01*
X158800500Y-41897648D01*
X158768477Y-41695466D01*
X158705220Y-41500781D01*
X158705218Y-41500778D01*
X158705218Y-41500776D01*
X158671503Y-41434607D01*
X158612287Y-41318390D01*
X158604556Y-41307749D01*
X158491971Y-41152786D01*
X158347213Y-41008028D01*
X158181613Y-40887715D01*
X158181612Y-40887714D01*
X158181610Y-40887713D01*
X158124653Y-40858691D01*
X157999223Y-40794781D01*
X157804534Y-40731522D01*
X157629995Y-40703878D01*
X157602352Y-40699500D01*
X157397648Y-40699500D01*
X157373329Y-40703351D01*
X157195465Y-40731522D01*
X157000776Y-40794781D01*
X156818386Y-40887715D01*
X156652786Y-41008028D01*
X156508028Y-41152786D01*
X156387715Y-41318386D01*
X156294781Y-41500776D01*
X156231522Y-41695465D01*
X156199500Y-41897648D01*
X151300500Y-41897648D01*
X151268477Y-41695466D01*
X151205220Y-41500781D01*
X151205218Y-41500778D01*
X151205218Y-41500776D01*
X151171503Y-41434607D01*
X151112287Y-41318390D01*
X151104556Y-41307749D01*
X150991971Y-41152786D01*
X150847213Y-41008028D01*
X150681613Y-40887715D01*
X150681612Y-40887714D01*
X150681610Y-40887713D01*
X150624653Y-40858691D01*
X150499223Y-40794781D01*
X150304534Y-40731522D01*
X150129995Y-40703878D01*
X150102352Y-40699500D01*
X149897648Y-40699500D01*
X149873329Y-40703351D01*
X149695465Y-40731522D01*
X149500776Y-40794781D01*
X149318386Y-40887715D01*
X149152786Y-41008028D01*
X149008028Y-41152786D01*
X148887715Y-41318386D01*
X148794781Y-41500776D01*
X148731522Y-41695465D01*
X148699500Y-41897648D01*
X141140500Y-41897648D01*
X141108477Y-41695466D01*
X141045220Y-41500781D01*
X141045218Y-41500778D01*
X141045218Y-41500776D01*
X141011503Y-41434607D01*
X140952287Y-41318390D01*
X140944556Y-41307749D01*
X140831971Y-41152786D01*
X140687213Y-41008028D01*
X140521613Y-40887715D01*
X140521612Y-40887714D01*
X140521610Y-40887713D01*
X140464653Y-40858691D01*
X140339223Y-40794781D01*
X140144534Y-40731522D01*
X139969995Y-40703878D01*
X139942352Y-40699500D01*
X139737648Y-40699500D01*
X139713329Y-40703351D01*
X139535465Y-40731522D01*
X139340776Y-40794781D01*
X139158386Y-40887715D01*
X138992786Y-41008028D01*
X138848028Y-41152786D01*
X138727715Y-41318386D01*
X138634781Y-41500776D01*
X138571522Y-41695465D01*
X138539500Y-41897648D01*
X120500500Y-41897648D01*
X120500500Y-39878711D01*
X123149500Y-39878711D01*
X123149500Y-40121288D01*
X123181161Y-40361785D01*
X123243947Y-40596104D01*
X123300039Y-40731522D01*
X123336776Y-40820212D01*
X123458064Y-41030289D01*
X123458066Y-41030292D01*
X123458067Y-41030293D01*
X123605733Y-41222736D01*
X123605739Y-41222743D01*
X123777256Y-41394260D01*
X123777262Y-41394265D01*
X123969711Y-41541936D01*
X124179788Y-41663224D01*
X124403900Y-41756054D01*
X124638211Y-41818838D01*
X124818586Y-41842584D01*
X124878711Y-41850500D01*
X124878712Y-41850500D01*
X125121289Y-41850500D01*
X125169388Y-41844167D01*
X125361789Y-41818838D01*
X125596100Y-41756054D01*
X125820212Y-41663224D01*
X126030289Y-41541936D01*
X126222738Y-41394265D01*
X126394265Y-41222738D01*
X126541936Y-41030289D01*
X126663224Y-40820212D01*
X126756054Y-40596100D01*
X126818838Y-40361789D01*
X126850500Y-40121288D01*
X126850500Y-39878712D01*
X126850500Y-39878711D01*
X173649500Y-39878711D01*
X173649500Y-40121288D01*
X173681161Y-40361785D01*
X173743947Y-40596104D01*
X173800039Y-40731522D01*
X173836776Y-40820212D01*
X173958064Y-41030289D01*
X173958066Y-41030292D01*
X173958067Y-41030293D01*
X174105733Y-41222736D01*
X174105739Y-41222743D01*
X174277256Y-41394260D01*
X174277262Y-41394265D01*
X174469711Y-41541936D01*
X174679788Y-41663224D01*
X174903900Y-41756054D01*
X175138211Y-41818838D01*
X175318586Y-41842584D01*
X175378711Y-41850500D01*
X175378712Y-41850500D01*
X175621289Y-41850500D01*
X175669388Y-41844167D01*
X175861789Y-41818838D01*
X176096100Y-41756054D01*
X176320212Y-41663224D01*
X176530289Y-41541936D01*
X176722738Y-41394265D01*
X176894265Y-41222738D01*
X177041936Y-41030289D01*
X177163224Y-40820212D01*
X177256054Y-40596100D01*
X177318838Y-40361789D01*
X177350500Y-40121288D01*
X177350500Y-39878712D01*
X177318838Y-39638211D01*
X177256054Y-39403900D01*
X177163224Y-39179788D01*
X177041936Y-38969711D01*
X176894265Y-38777262D01*
X176894260Y-38777256D01*
X176722743Y-38605739D01*
X176722736Y-38605733D01*
X176530293Y-38458067D01*
X176530292Y-38458066D01*
X176530289Y-38458064D01*
X176320212Y-38336776D01*
X176320205Y-38336773D01*
X176096104Y-38243947D01*
X175861785Y-38181161D01*
X175621289Y-38149500D01*
X175621288Y-38149500D01*
X175378712Y-38149500D01*
X175378711Y-38149500D01*
X175138214Y-38181161D01*
X174903895Y-38243947D01*
X174679794Y-38336773D01*
X174679785Y-38336777D01*
X174469706Y-38458067D01*
X174277263Y-38605733D01*
X174277256Y-38605739D01*
X174105739Y-38777256D01*
X174105733Y-38777263D01*
X173958067Y-38969706D01*
X173836777Y-39179785D01*
X173836773Y-39179794D01*
X173743947Y-39403895D01*
X173681161Y-39638214D01*
X173649500Y-39878711D01*
X126850500Y-39878711D01*
X126818838Y-39638211D01*
X126756054Y-39403900D01*
X126663224Y-39179788D01*
X126541936Y-38969711D01*
X126394265Y-38777262D01*
X126394260Y-38777256D01*
X126222743Y-38605739D01*
X126222736Y-38605733D01*
X126030293Y-38458067D01*
X126030292Y-38458066D01*
X126030289Y-38458064D01*
X125820212Y-38336776D01*
X125820205Y-38336773D01*
X125596104Y-38243947D01*
X125361785Y-38181161D01*
X125121289Y-38149500D01*
X125121288Y-38149500D01*
X124878712Y-38149500D01*
X124878711Y-38149500D01*
X124638214Y-38181161D01*
X124403895Y-38243947D01*
X124179794Y-38336773D01*
X124179785Y-38336777D01*
X123969706Y-38458067D01*
X123777263Y-38605733D01*
X123777256Y-38605739D01*
X123605739Y-38777256D01*
X123605733Y-38777263D01*
X123458067Y-38969706D01*
X123336777Y-39179785D01*
X123336773Y-39179794D01*
X123243947Y-39403895D01*
X123181161Y-39638214D01*
X123149500Y-39878711D01*
X120500500Y-39878711D01*
X120500500Y-38003750D01*
X120500726Y-37996263D01*
X120518271Y-37706205D01*
X120520076Y-37691340D01*
X120557752Y-37485750D01*
X120560548Y-37470489D01*
X120591994Y-37408098D01*
X120594775Y-37405224D01*
X122405166Y-35594833D01*
X122466485Y-35561351D01*
X122470460Y-35560554D01*
X122691344Y-35520075D01*
X122706201Y-35518271D01*
X122996264Y-35500726D01*
X123003751Y-35500500D01*
X123065892Y-35500500D01*
X177434108Y-35500500D01*
X177496249Y-35500500D01*
X177503736Y-35500726D01*
G37*
%TD.AperFunction*%
%TD*%
M02*
