%TF.GenerationSoftware,KiCad,Pcbnew,10.0.6*%
%TF.CreationDate,2026-09-02T15:33:40-05:00*%
%TF.ProjectId,Line-Sensor-Board,4c696e65-2d53-4656-9e73-6f722d426f61,rev?*%
%TF.SameCoordinates,Original*%
%TF.FileFunction,Copper,L1,Top*%
%TF.FilePolarity,Positive*%
%FSLAX46Y46*%
G04 Gerber Fmt 4.6, Leading zero omitted, Abs format (unit mm)*
G04 Created by KiCad (PCBNEW 10.0.6) date 2026-09-02 15:33:40*
%MOMM*%
%LPD*%
G01*
G04 APERTURE LIST*
G04 Aperture macros list*
%AMRoundRect*
0 Rectangle with rounded corners*
0 $1 Rounding radius*
0 $2 $3 $4 $5 $6 $7 $8 $9 X,Y pos of 4 corners*
0 Add a 4 corners polygon primitive as box body*
4,1,4,$2,$3,$4,$5,$6,$7,$8,$9,$2,$3,0*
0 Add four circle primitives for the rounded corners*
1,1,$1+$1,$2,$3*
1,1,$1+$1,$4,$5*
1,1,$1+$1,$6,$7*
1,1,$1+$1,$8,$9*
0 Add four rect primitives between the rounded corners*
20,1,$1+$1,$2,$3,$4,$5,0*
20,1,$1+$1,$4,$5,$6,$7,0*
20,1,$1+$1,$6,$7,$8,$9,0*
20,1,$1+$1,$8,$9,$2,$3,0*%
%AMFreePoly0*
4,1,37,0.800000,0.796148,0.878414,0.796148,1.032228,0.765552,1.177117,0.705537,1.307515,0.618408,1.418408,0.507515,1.505537,0.377117,1.565552,0.232228,1.596148,0.078414,1.596148,-0.078414,1.565552,-0.232228,1.505537,-0.377117,1.418408,-0.507515,1.307515,-0.618408,1.177117,-0.705537,1.032228,-0.765552,0.878414,-0.796148,0.800000,-0.796148,0.800000,-0.800000,-1.400000,-0.800000,
-1.403843,-0.796157,-1.439018,-0.796157,-1.511114,-0.766294,-1.566294,-0.711114,-1.596157,-0.639018,-1.596157,-0.603843,-1.600000,-0.600000,-1.600000,0.600000,-1.596157,0.603843,-1.596157,0.639018,-1.566294,0.711114,-1.511114,0.766294,-1.439018,0.796157,-1.403843,0.796157,-1.400000,0.800000,0.800000,0.800000,0.800000,0.796148,0.800000,0.796148,$1*%
%AMFreePoly1*
4,1,37,1.403843,0.796157,1.439018,0.796157,1.511114,0.766294,1.566294,0.711114,1.596157,0.639018,1.596157,0.603843,1.600000,0.600000,1.600000,-0.600000,1.596157,-0.603843,1.596157,-0.639018,1.566294,-0.711114,1.511114,-0.766294,1.439018,-0.796157,1.403843,-0.796157,1.400000,-0.800000,-0.800000,-0.800000,-0.800000,-0.796148,-0.878414,-0.796148,-1.032228,-0.765552,-1.177117,-0.705537,
-1.307515,-0.618408,-1.418408,-0.507515,-1.505537,-0.377117,-1.565552,-0.232228,-1.596148,-0.078414,-1.596148,0.078414,-1.565552,0.232228,-1.505537,0.377117,-1.418408,0.507515,-1.307515,0.618408,-1.177117,0.705537,-1.032228,0.765552,-0.878414,0.796148,-0.800000,0.796148,-0.800000,0.800000,1.400000,0.800000,1.403843,0.796157,1.403843,0.796157,$1*%
%AMFreePoly2*
4,1,37,1.600000,0.796148,1.678414,0.796148,1.832228,0.765552,1.977117,0.705537,2.107515,0.618408,2.218408,0.507515,2.305537,0.377117,2.365552,0.232228,2.396148,0.078414,2.396148,-0.078414,2.365552,-0.232228,2.305537,-0.377117,2.218408,-0.507515,2.107515,-0.618408,1.977117,-0.705537,1.832228,-0.765552,1.678414,-0.796148,1.600000,-0.796148,1.600000,-0.800000,-0.600000,-0.800000,
-0.603843,-0.796157,-0.639018,-0.796157,-0.711114,-0.766294,-0.766294,-0.711114,-0.796157,-0.639018,-0.796157,-0.603843,-0.800000,-0.600000,-0.800000,0.600000,-0.796157,0.603843,-0.796157,0.639018,-0.766294,0.711114,-0.711114,0.766294,-0.639018,0.796157,-0.603843,0.796157,-0.600000,0.800000,1.600000,0.800000,1.600000,0.796148,1.600000,0.796148,$1*%
G04 Aperture macros list end*
%TA.AperFunction,ComponentPad*%
%ADD10C,1.600000*%
%TD*%
%TA.AperFunction,SMDPad,CuDef*%
%ADD11RoundRect,0.200000X0.200000X0.600000X-0.200000X0.600000X-0.200000X-0.600000X0.200000X-0.600000X0*%
%TD*%
%TA.AperFunction,SMDPad,CuDef*%
%ADD12R,0.800000X1.600000*%
%TD*%
%TA.AperFunction,ComponentPad*%
%ADD13RoundRect,0.250000X-0.550000X-0.550000X0.550000X-0.550000X0.550000X0.550000X-0.550000X0.550000X0*%
%TD*%
%TA.AperFunction,SMDPad,CuDef*%
%ADD14FreePoly0,270.000000*%
%TD*%
%TA.AperFunction,SMDPad,CuDef*%
%ADD15RoundRect,0.800000X-0.000010X0.800000X-0.000010X-0.800000X0.000010X-0.800000X0.000010X0.800000X0*%
%TD*%
%TA.AperFunction,SMDPad,CuDef*%
%ADD16FreePoly1,270.000000*%
%TD*%
%TA.AperFunction,SMDPad,CuDef*%
%ADD17RoundRect,0.800000X-0.800000X-0.000010X0.800000X-0.000010X0.800000X0.000010X-0.800000X0.000010X0*%
%TD*%
%TA.AperFunction,SMDPad,CuDef*%
%ADD18FreePoly2,180.000000*%
%TD*%
%TA.AperFunction,ComponentPad*%
%ADD19R,1.050000X1.500000*%
%TD*%
%TA.AperFunction,ComponentPad*%
%ADD20O,1.050000X1.500000*%
%TD*%
%TA.AperFunction,ComponentPad*%
%ADD21R,1.800000X1.800000*%
%TD*%
%TA.AperFunction,ComponentPad*%
%ADD22C,1.800000*%
%TD*%
%TA.AperFunction,ViaPad*%
%ADD23C,0.600000*%
%TD*%
%TA.AperFunction,Conductor*%
%ADD24C,0.250000*%
%TD*%
G04 APERTURE END LIST*
D10*
%TO.P,C2,2*%
%TO.N,GND*%
X153000000Y-67500000D03*
%TO.P,C2,1*%
%TO.N,+3.3V*%
X148000000Y-67500000D03*
%TD*%
D11*
%TO.P,U4,14,NC_14*%
%TO.N,unconnected-(U4-NC-Pad14)*%
X155960000Y-54500000D03*
%TO.P,U4,12,NC_12*%
%TO.N,unconnected-(U4-NC-Pad12)*%
X153420000Y-54500000D03*
%TO.P,U4,10,NC_10*%
%TO.N,unconnected-(U4-NC-Pad10)*%
X150880000Y-54500000D03*
%TO.P,U4,9,NC_9*%
%TO.N,unconnected-(U4-NC-Pad9)*%
X149610000Y-54500000D03*
%TO.P,U4,11,NC_11*%
%TO.N,unconnected-(U4-NC-Pad11)*%
X152150000Y-54500000D03*
%TO.P,U4,13,NC_13*%
%TO.N,unconnected-(U4-NC-Pad13)*%
X154690000Y-54500000D03*
%TO.P,U4,15,NC_15*%
%TO.N,unconnected-(U4-NC-Pad15)*%
X157230000Y-54500000D03*
%TO.P,U4,16,NC_16*%
%TO.N,unconnected-(U4-NC-Pad16)*%
X158500000Y-54500000D03*
D12*
%TO.P,U4,1,OS_1*%
%TO.N,/CCD_OS*%
X158500000Y-61100000D03*
D11*
%TO.P,U4,2,SS_2*%
%TO.N,GND*%
X157230000Y-61100000D03*
%TO.P,U4,3,VAD_3*%
%TO.N,+3.3V*%
X155960000Y-61100000D03*
%TO.P,U4,4,VDD_4*%
X154690000Y-61100000D03*
%TO.P,U4,5,PHIM_5*%
%TO.N,/PHIM*%
X153420000Y-61100000D03*
%TO.P,U4,6,ICG_6*%
%TO.N,/ICG*%
X152150000Y-61100000D03*
%TO.P,U4,7,SH_7*%
%TO.N,/SH*%
X150880000Y-61100000D03*
%TO.P,U4,8,NC_8*%
%TO.N,unconnected-(U4-NC-Pad8)*%
X149610000Y-61100000D03*
%TD*%
D10*
%TO.P,U1,8,V+_8*%
%TO.N,+3.3V*%
X175500000Y-54190000D03*
%TO.P,U1,7*%
%TO.N,Net-(U1B--)*%
X175500000Y-56730000D03*
%TO.P,U1,6,-_6*%
X175500000Y-59270000D03*
%TO.P,U1,5,+_5*%
%TO.N,GND*%
X175500000Y-61810000D03*
%TO.P,U1,4,V-_4*%
X167880000Y-61810000D03*
%TO.P,U1,3,+_3*%
%TO.N,/CCD_OS*%
X167880000Y-59270000D03*
%TO.P,U1,2,-_2*%
%TO.N,Net-(U1A--)*%
X167880000Y-56730000D03*
D13*
%TO.P,U1,1*%
X167880000Y-54190000D03*
%TD*%
D14*
%TO.P,A1,1,GPIO0_1*%
%TO.N,unconnected-(A1-GPIO0-Pad1)*%
X178780000Y-89200000D03*
D15*
%TO.P,A1,2,GPIO1_2*%
%TO.N,unconnected-(A1-GPIO1-Pad2)*%
X176240000Y-89200000D03*
D16*
%TO.P,A1,3,GND_3*%
%TO.N,GND*%
X173700000Y-89200000D03*
D15*
%TO.P,A1,4,GPIO2_4*%
%TO.N,/GP2*%
X171160000Y-89200000D03*
%TO.P,A1,5,GPIO3_5*%
%TO.N,/GP3*%
X168620000Y-89200000D03*
%TO.P,A1,6,GPIO4_6*%
%TO.N,/GP4*%
X166080000Y-89200000D03*
%TO.P,A1,7,GPIO5_7*%
%TO.N,/LED_ENABLE*%
X163540000Y-89200000D03*
D16*
%TO.P,A1,8,GND_8*%
%TO.N,GND*%
X161000000Y-89200000D03*
D15*
%TO.P,A1,9,GPIO6_9*%
%TO.N,unconnected-(A1-GPIO6-Pad9)*%
X158460000Y-89200000D03*
%TO.P,A1,10,GPIO7_10*%
%TO.N,unconnected-(A1-GPIO7-Pad10)*%
X155920000Y-89200000D03*
%TO.P,A1,11,GPIO8_11*%
%TO.N,unconnected-(A1-GPIO8-Pad11)*%
X153380000Y-89200000D03*
%TO.P,A1,12,GPIO9_12*%
%TO.N,unconnected-(A1-GPIO9-Pad12)*%
X150840000Y-89200000D03*
D16*
%TO.P,A1,13,GND_13*%
%TO.N,GND*%
X148300000Y-89200000D03*
D15*
%TO.P,A1,14,GPIO10_14*%
%TO.N,unconnected-(A1-GPIO10-Pad14)*%
X145760000Y-89200000D03*
%TO.P,A1,15,GPIO11_15*%
%TO.N,unconnected-(A1-GPIO11-Pad15)*%
X143220000Y-89200000D03*
%TO.P,A1,16,GPIO12_16*%
%TO.N,unconnected-(A1-GPIO12-Pad16)*%
X140680000Y-89200000D03*
%TO.P,A1,17,GPIO13_17*%
%TO.N,unconnected-(A1-GPIO13-Pad17)*%
X138140000Y-89200000D03*
D16*
%TO.P,A1,18,GND_18*%
%TO.N,GND*%
X135600000Y-89200000D03*
D15*
%TO.P,A1,19,GPIO14_19*%
%TO.N,unconnected-(A1-GPIO14-Pad19)*%
X133060000Y-89200000D03*
%TO.P,A1,20,GPIO15_20*%
%TO.N,unconnected-(A1-GPIO15-Pad20)*%
X130520000Y-89200000D03*
%TO.P,A1,21,GPIO16_21*%
%TO.N,unconnected-(A1-GPIO16-Pad21)*%
X130520000Y-108580000D03*
%TO.P,A1,22,GPIO17_22*%
%TO.N,unconnected-(A1-GPIO17-Pad22)*%
X133060000Y-108580000D03*
D14*
%TO.P,A1,23,GND_23*%
%TO.N,GND*%
X135600000Y-108580000D03*
D15*
%TO.P,A1,24,GPIO18_24*%
%TO.N,unconnected-(A1-GPIO18-Pad24)*%
X138140000Y-108580000D03*
%TO.P,A1,25,GPIO19_25*%
%TO.N,unconnected-(A1-GPIO19-Pad25)*%
X140680000Y-108580000D03*
%TO.P,A1,26,GPIO20_26*%
%TO.N,unconnected-(A1-GPIO20-Pad26)*%
X143220000Y-108580000D03*
%TO.P,A1,27,GPIO21_27*%
%TO.N,unconnected-(A1-GPIO21-Pad27)*%
X145760000Y-108580000D03*
D14*
%TO.P,A1,28,GND_28*%
%TO.N,GND*%
X148300000Y-108580000D03*
D15*
%TO.P,A1,29,GPIO22_29*%
%TO.N,unconnected-(A1-GPIO22-Pad29)*%
X150840000Y-108580000D03*
%TO.P,A1,30,RUN_30*%
%TO.N,unconnected-(A1-RUN-Pad30)*%
X153380000Y-108580000D03*
%TO.P,A1,31,GPIO26_ADC0_31*%
%TO.N,/CCD_ADC*%
X155920000Y-108580000D03*
%TO.P,A1,32,GPIO27_ADC1_32*%
%TO.N,unconnected-(A1-GPIO27_ADC1-Pad32)*%
X158460000Y-108580000D03*
D14*
%TO.P,A1,33,AGND_33*%
%TO.N,unconnected-(A1-AGND-Pad33)*%
X161000000Y-108580000D03*
D15*
%TO.P,A1,34,GPIO28_ADC2_34*%
%TO.N,unconnected-(A1-GPIO28_ADC2-Pad34)*%
X163540000Y-108580000D03*
%TO.P,A1,35,ADC_VREF_35*%
%TO.N,unconnected-(A1-ADC_VREF-Pad35)*%
X166080000Y-108580000D03*
%TO.P,A1,36,3V3_36*%
%TO.N,+3.3V*%
X168620000Y-108580000D03*
%TO.P,A1,37,3V3_EN_37*%
%TO.N,unconnected-(A1-3V3_EN-Pad37)*%
X171160000Y-108580000D03*
D14*
%TO.P,A1,38,GND_38*%
%TO.N,GND*%
X173700000Y-108580000D03*
D15*
%TO.P,A1,39,VSYS_39*%
%TO.N,unconnected-(A1-VSYS-Pad39)*%
X176240000Y-108580000D03*
%TO.P,A1,40,VBUS_40*%
%TO.N,/LED_5V*%
X178780000Y-108580000D03*
D17*
%TO.P,A1,D1*%
%TO.N,N/C*%
X129950000Y-96350000D03*
D18*
%TO.P,A1,D2*%
X130750000Y-98890000D03*
D17*
%TO.P,A1,D3*%
X129950000Y-101430000D03*
%TD*%
D13*
%TO.P,U2,1*%
%TO.N,/GP2*%
X125695000Y-54340000D03*
D10*
%TO.P,U2,2*%
%TO.N,Net-(U2-Pad2)*%
X125695000Y-56880000D03*
%TO.P,U2,3*%
X125695000Y-59420000D03*
%TO.P,U2,4*%
%TO.N,/PHIM*%
X125695000Y-61960000D03*
%TO.P,U2,5*%
%TO.N,Net-(U2-Pad5)*%
X125695000Y-64500000D03*
%TO.P,U2,6*%
%TO.N,/ICG*%
X125695000Y-67040000D03*
%TO.P,U2,7,GND_7*%
%TO.N,GND*%
X125695000Y-69580000D03*
%TO.P,U2,8*%
%TO.N,Net-(U2-Pad5)*%
X133315000Y-69580000D03*
%TO.P,U2,9*%
%TO.N,/GP3*%
X133315000Y-67040000D03*
%TO.P,U2,10*%
%TO.N,Net-(U2-Pad10)*%
X133315000Y-64500000D03*
%TO.P,U2,11*%
%TO.N,/GP4*%
X133315000Y-61960000D03*
%TO.P,U2,12*%
%TO.N,/SH*%
X133315000Y-59420000D03*
%TO.P,U2,13*%
%TO.N,Net-(U2-Pad10)*%
X133315000Y-56880000D03*
%TO.P,U2,14,VCC_14*%
%TO.N,+3.3V*%
X133315000Y-54340000D03*
%TD*%
%TO.P,R7,1*%
%TO.N,Net-(Q1-B)*%
X171080000Y-84500000D03*
%TO.P,R7,2*%
%TO.N,GND*%
X160920000Y-84500000D03*
%TD*%
%TO.P,R6,1*%
%TO.N,/LED_ENABLE*%
X171080000Y-80500000D03*
%TO.P,R6,2*%
%TO.N,Net-(Q1-B)*%
X160920000Y-80500000D03*
%TD*%
%TO.P,R5,1*%
%TO.N,/LED_5V*%
X160840000Y-76500000D03*
%TO.P,R5,2*%
%TO.N,Net-(D4-A)*%
X171000000Y-76500000D03*
%TD*%
%TO.P,R4,1*%
%TO.N,/LED_5V*%
X147580000Y-75500000D03*
%TO.P,R4,2*%
%TO.N,Net-(D3-A)*%
X137420000Y-75500000D03*
%TD*%
%TO.P,R3,1*%
%TO.N,/LED_5V*%
X157500000Y-42000000D03*
%TO.P,R3,2*%
%TO.N,Net-(D2-A)*%
X167660000Y-42000000D03*
%TD*%
%TO.P,R2,1*%
%TO.N,/LED_5V*%
X150000000Y-42000000D03*
%TO.P,R2,2*%
%TO.N,Net-(D1-A)*%
X139840000Y-42000000D03*
%TD*%
%TO.P,R1,1*%
%TO.N,Net-(U1A--)*%
X175000000Y-65420000D03*
%TO.P,R1,2*%
%TO.N,/CCD_ADC*%
X175000000Y-75580000D03*
%TD*%
D19*
%TO.P,Q1,1,E_1*%
%TO.N,GND*%
X153230000Y-73860000D03*
D20*
%TO.P,Q1,2,B_2*%
%TO.N,Net-(Q1-B)*%
X154500000Y-73860000D03*
%TO.P,Q1,3,C_3*%
%TO.N,/LED_CATHODES*%
X155770000Y-73860000D03*
%TD*%
D21*
%TO.P,D4,1,K_1*%
%TO.N,/LED_CATHODES*%
X168460000Y-69500000D03*
D22*
%TO.P,D4,2,A_2*%
%TO.N,Net-(D4-A)*%
X171000000Y-69500000D03*
%TD*%
D21*
%TO.P,D3,1,K_1*%
%TO.N,/LED_CATHODES*%
X136725000Y-69500000D03*
D22*
%TO.P,D3,2,A_2*%
%TO.N,Net-(D3-A)*%
X139265000Y-69500000D03*
%TD*%
D21*
%TO.P,D2,1,K_1*%
%TO.N,/LED_CATHODES*%
X168460000Y-47000000D03*
D22*
%TO.P,D2,2,A_2*%
%TO.N,Net-(D2-A)*%
X171000000Y-47000000D03*
%TD*%
D21*
%TO.P,D1,1,K_1*%
%TO.N,/LED_CATHODES*%
X136725000Y-47000000D03*
D22*
%TO.P,D1,2,A_2*%
%TO.N,Net-(D1-A)*%
X139265000Y-47000000D03*
%TD*%
D13*
%TO.P,C7,1*%
%TO.N,/LED_5V*%
X137544888Y-81500000D03*
D10*
%TO.P,C7,2*%
%TO.N,GND*%
X139544888Y-81500000D03*
%TD*%
%TO.P,C6,1*%
%TO.N,+3.3V*%
X155500000Y-67500000D03*
%TO.P,C6,2*%
%TO.N,GND*%
X160500000Y-67500000D03*
%TD*%
%TO.P,C5,1*%
%TO.N,+3.3V*%
X132500000Y-50500000D03*
%TO.P,C5,2*%
%TO.N,GND*%
X127500000Y-50500000D03*
%TD*%
%TO.P,C4,1*%
%TO.N,+3.3V*%
X130500000Y-74500000D03*
%TO.P,C4,2*%
%TO.N,GND*%
X125500000Y-74500000D03*
%TD*%
D13*
%TO.P,C3,1*%
%TO.N,+3.3V*%
X130000000Y-81500000D03*
D10*
%TO.P,C3,2*%
%TO.N,GND*%
X132000000Y-81500000D03*
%TD*%
%TO.P,C1,1*%
%TO.N,/CCD_ADC*%
X156500000Y-79000000D03*
%TO.P,C1,2*%
%TO.N,GND*%
X151500000Y-79000000D03*
%TD*%
D23*
%TO.N,GND*%
X160500000Y-91500000D03*
X173500000Y-91500000D03*
X173500000Y-106000000D03*
X148000000Y-106000000D03*
X135500000Y-106000000D03*
X134500000Y-87000000D03*
X148500000Y-86500000D03*
X157500000Y-63000000D03*
%TO.N,Net-(U2-Pad5)*%
X129500000Y-65290000D03*
X129500000Y-66540000D03*
%TO.N,GND*%
X125500000Y-71500000D03*
X161000000Y-83000000D03*
X176500000Y-63500000D03*
X168000000Y-63500000D03*
X151000000Y-74000000D03*
X150000000Y-79000000D03*
X134000000Y-81500000D03*
X141500000Y-81500000D03*
X124500000Y-76000000D03*
X126000000Y-50500000D03*
%TO.N,Net-(D3-A)*%
X139500000Y-71816942D03*
X140500000Y-70500000D03*
%TO.N,Net-(D4-A)*%
X171000000Y-72925000D03*
X171000000Y-74625000D03*
%TO.N,Net-(D1-A)*%
X141500000Y-45150000D03*
X141500000Y-46400000D03*
%TO.N,Net-(Q1-B)*%
X169731942Y-82731942D03*
X165978058Y-82521942D03*
X159651942Y-79500000D03*
X158401942Y-79500000D03*
X157125000Y-77000000D03*
X155875000Y-77000000D03*
%TO.N,/LED_CATHODES*%
X144808058Y-71191942D03*
X146191942Y-70808058D03*
X158808058Y-71691942D03*
X159941942Y-71058058D03*
X166500000Y-52440000D03*
X166500000Y-60000000D03*
%TO.N,/LED_5V*%
X173080860Y-87000000D03*
X171830860Y-87000000D03*
X168000000Y-84500000D03*
X167348058Y-83348058D03*
X159026942Y-83473058D03*
X156420000Y-84500000D03*
%TO.N,+3.3V*%
X163040000Y-99000000D03*
X156420000Y-98500000D03*
X140500000Y-98000000D03*
X138640000Y-98000000D03*
%TO.N,/ICG*%
X139191942Y-63808058D03*
X138308058Y-64691942D03*
%TO.N,/LED_ENABLE*%
X164780000Y-89001942D03*
X165000000Y-87000000D03*
%TO.N,/GP4*%
X156000000Y-83000000D03*
X157670000Y-83000000D03*
%TO.N,GND*%
X153000000Y-69000000D03*
X160500000Y-69000000D03*
%TD*%
%TO.N,GND*%
D24*
X160500000Y-89700000D02*
X161000000Y-89200000D01*
X160500000Y-91500000D02*
X160500000Y-89700000D01*
X173700000Y-106200000D02*
X173700000Y-108580000D01*
X173500000Y-106000000D02*
X173700000Y-106200000D01*
X173500000Y-89400000D02*
X173700000Y-89200000D01*
X173500000Y-91500000D02*
X173500000Y-89400000D01*
X134500000Y-88100000D02*
X135600000Y-89200000D01*
X134500000Y-87000000D02*
X134500000Y-88100000D01*
X135600000Y-106100000D02*
X135600000Y-108580000D01*
X135500000Y-106000000D02*
X135600000Y-106100000D01*
X148300000Y-106800000D02*
X148300000Y-108580000D01*
X148000000Y-106500000D02*
X148300000Y-106800000D01*
X148000000Y-106000000D02*
X148000000Y-106500000D01*
X148300000Y-86700000D02*
X148300000Y-89200000D01*
X148500000Y-86500000D02*
X148300000Y-86700000D01*
%TO.N,Net-(U1B--)*%
X175500000Y-56730000D02*
X175500000Y-59270000D01*
%TO.N,Net-(U1A--)*%
X167880000Y-54190000D02*
X167880000Y-56730000D01*
%TO.N,GND*%
X157500000Y-61370000D02*
X157230000Y-61100000D01*
X157500000Y-63000000D02*
X157500000Y-61370000D01*
%TO.N,Net-(U2-Pad2)*%
X125695000Y-59420000D02*
X125695000Y-56880000D01*
%TO.N,Net-(U2-Pad5)*%
X128500000Y-64500000D02*
X125695000Y-64500000D01*
X129290000Y-65290000D02*
X128500000Y-64500000D01*
X129500000Y-65290000D02*
X129290000Y-65290000D01*
X130275000Y-66540000D02*
X129500000Y-66540000D01*
X133315000Y-69580000D02*
X130275000Y-66540000D01*
%TO.N,/LED_5V*%
X177950000Y-83550000D02*
X174199032Y-87300968D01*
X177950000Y-55049009D02*
X177950000Y-83550000D01*
X169685000Y-48185000D02*
X174115000Y-52615000D01*
X169685000Y-45775000D02*
X169685000Y-48185000D01*
X175515991Y-52615000D02*
X177950000Y-55049009D01*
X165910000Y-42000000D02*
X169685000Y-45775000D01*
X174115000Y-52615000D02*
X175515991Y-52615000D01*
X150000000Y-42000000D02*
X165910000Y-42000000D01*
X174199032Y-87300968D02*
X174830000Y-87931936D01*
X150000000Y-42000000D02*
X157500000Y-42000000D01*
%TO.N,GND*%
X168000000Y-61930000D02*
X167880000Y-61810000D01*
X168000000Y-63500000D02*
X168000000Y-61930000D01*
X176500000Y-62810000D02*
X175500000Y-61810000D01*
X176500000Y-63500000D02*
X176500000Y-62810000D01*
X126000000Y-50500000D02*
X127500000Y-50500000D01*
X125500000Y-69775000D02*
X125695000Y-69580000D01*
X125500000Y-71500000D02*
X125500000Y-69775000D01*
X124500000Y-76000000D02*
X124500000Y-75500000D01*
X124500000Y-75500000D02*
X125500000Y-74500000D01*
X161000000Y-84420000D02*
X160920000Y-84500000D01*
X161000000Y-83000000D02*
X161000000Y-84420000D01*
X153090000Y-74000000D02*
X153230000Y-73860000D01*
X151000000Y-74000000D02*
X153090000Y-74000000D01*
X150000000Y-79000000D02*
X151500000Y-79000000D01*
X134000000Y-81500000D02*
X132000000Y-81500000D01*
X141500000Y-81500000D02*
X139544888Y-81500000D01*
%TO.N,Net-(D3-A)*%
X139265000Y-70331942D02*
X139265000Y-69500000D01*
X139433058Y-70500000D02*
X139265000Y-70331942D01*
X140500000Y-70500000D02*
X139433058Y-70500000D01*
X137420000Y-73896942D02*
X137420000Y-75500000D01*
X139500000Y-71816942D02*
X137420000Y-73896942D01*
%TO.N,Net-(D4-A)*%
X171000000Y-74625000D02*
X171000000Y-76500000D01*
X171000000Y-69500000D02*
X171000000Y-72925000D01*
%TO.N,Net-(D2-A)*%
X171000000Y-45340000D02*
X167660000Y-42000000D01*
X171000000Y-47000000D02*
X171000000Y-45340000D01*
%TO.N,Net-(D1-A)*%
X139840000Y-43340000D02*
X139840000Y-42000000D01*
X141500000Y-45000000D02*
X139840000Y-43340000D01*
X141500000Y-45150000D02*
X141500000Y-45000000D01*
X140900000Y-47000000D02*
X141500000Y-46400000D01*
X139265000Y-47000000D02*
X140900000Y-47000000D01*
%TO.N,Net-(Q1-B)*%
X169731942Y-82731942D02*
X169731942Y-83151942D01*
X169731942Y-83151942D02*
X171080000Y-84500000D01*
X163956116Y-80500000D02*
X165978058Y-82521942D01*
X160920000Y-80500000D02*
X163956116Y-80500000D01*
X159920000Y-79500000D02*
X160920000Y-80500000D01*
X159651942Y-79500000D02*
X159920000Y-79500000D01*
X158401942Y-78276942D02*
X158401942Y-79500000D01*
X154500000Y-75625000D02*
X155875000Y-77000000D01*
X157125000Y-77000000D02*
X158401942Y-78276942D01*
X154500000Y-73860000D02*
X154500000Y-75625000D01*
%TO.N,/LED_CATHODES*%
X138416942Y-71191942D02*
X136725000Y-69500000D01*
X144808058Y-71191942D02*
X138416942Y-71191942D01*
X153391942Y-70808058D02*
X146191942Y-70808058D01*
X155770000Y-73186116D02*
X153391942Y-70808058D01*
X155770000Y-73860000D02*
X155770000Y-73186116D01*
X156640000Y-73860000D02*
X155770000Y-73860000D01*
X158808058Y-71691942D02*
X156640000Y-73860000D01*
X161500000Y-69500000D02*
X159941942Y-71058058D01*
X168460000Y-69500000D02*
X161500000Y-69500000D01*
X166500000Y-60000000D02*
X166500000Y-67540000D01*
X166500000Y-67540000D02*
X168460000Y-69500000D01*
X166500000Y-48960000D02*
X166500000Y-52440000D01*
X168460000Y-47000000D02*
X166500000Y-48960000D01*
X167235000Y-45775000D02*
X168460000Y-47000000D01*
X137950000Y-45775000D02*
X167235000Y-45775000D01*
X136725000Y-47000000D02*
X137950000Y-45775000D01*
%TO.N,/LED_5V*%
X174320000Y-104120000D02*
X178780000Y-108580000D01*
X174320000Y-95926522D02*
X174320000Y-104120000D01*
X174830000Y-95416522D02*
X174320000Y-95926522D01*
X174830000Y-87931936D02*
X174830000Y-95416522D01*
X173898064Y-87000000D02*
X174199032Y-87300968D01*
X173080860Y-87000000D02*
X173898064Y-87000000D01*
X169330860Y-84500000D02*
X171830860Y-87000000D01*
X168000000Y-84500000D02*
X169330860Y-84500000D01*
X167348058Y-83008058D02*
X167348058Y-83348058D01*
X160840000Y-76500000D02*
X167348058Y-83008058D01*
X159026942Y-78313058D02*
X160840000Y-76500000D01*
X159026942Y-83473058D02*
X159026942Y-78313058D01*
X140544888Y-84500000D02*
X156420000Y-84500000D01*
X137544888Y-81500000D02*
X140544888Y-84500000D01*
X143544888Y-75500000D02*
X137544888Y-81500000D01*
X147580000Y-75500000D02*
X143544888Y-75500000D01*
%TO.N,+3.3V*%
X168620000Y-104580000D02*
X168620000Y-108580000D01*
X163040000Y-99000000D02*
X168620000Y-104580000D01*
X141000000Y-98500000D02*
X156420000Y-98500000D01*
X140500000Y-98000000D02*
X141000000Y-98500000D01*
X137015000Y-88216936D02*
X137015000Y-96375000D01*
X137015000Y-96375000D02*
X138640000Y-98000000D01*
X130298064Y-81500000D02*
X137015000Y-88216936D01*
X130000000Y-81500000D02*
X130298064Y-81500000D01*
X130000000Y-75000000D02*
X130500000Y-74500000D01*
X130000000Y-81500000D02*
X130000000Y-75000000D01*
X177500000Y-75455860D02*
X172455860Y-80500000D01*
X177500000Y-56190000D02*
X177500000Y-75455860D01*
X175500000Y-54190000D02*
X177500000Y-56190000D01*
X172455860Y-80500000D02*
X172455860Y-94859140D01*
X174375000Y-53065000D02*
X175500000Y-54190000D01*
X135065000Y-53065000D02*
X174375000Y-53065000D01*
X132500000Y-50500000D02*
X135065000Y-53065000D01*
X133315000Y-51315000D02*
X132500000Y-50500000D01*
X133315000Y-54340000D02*
X133315000Y-51315000D01*
%TO.N,/ICG*%
X152150000Y-62350000D02*
X152150000Y-61100000D01*
X151825000Y-62675000D02*
X152150000Y-62350000D01*
X140325000Y-62675000D02*
X151825000Y-62675000D01*
X139191942Y-63808058D02*
X140325000Y-62675000D01*
X137085000Y-65915000D02*
X138308058Y-64691942D01*
X126820000Y-65915000D02*
X137085000Y-65915000D01*
X125695000Y-67040000D02*
X126820000Y-65915000D01*
%TO.N,/SH*%
X150880000Y-61900000D02*
X150880000Y-61100000D01*
X149186996Y-62225000D02*
X150555000Y-62225000D01*
X148461996Y-61500000D02*
X149186996Y-62225000D01*
X135395000Y-61500000D02*
X148461996Y-61500000D01*
X133315000Y-59420000D02*
X135395000Y-61500000D01*
X150555000Y-62225000D02*
X150880000Y-61900000D01*
%TO.N,Net-(U2-Pad10)*%
X131500000Y-62685000D02*
X133315000Y-64500000D01*
X131500000Y-57500000D02*
X131500000Y-62685000D01*
X132120000Y-56880000D02*
X131500000Y-57500000D01*
X133315000Y-56880000D02*
X132120000Y-56880000D01*
%TO.N,/PHIM*%
X126820000Y-63085000D02*
X125695000Y-61960000D01*
X128415000Y-63085000D02*
X126820000Y-63085000D01*
X130000000Y-61500000D02*
X128415000Y-63085000D01*
X133780991Y-55755000D02*
X130245000Y-55755000D01*
X130000000Y-56000000D02*
X130000000Y-61500000D01*
X134440000Y-56414009D02*
X133780991Y-55755000D01*
X136890991Y-59975000D02*
X134440000Y-57524009D01*
X130245000Y-55755000D02*
X130000000Y-56000000D01*
X134440000Y-57524009D02*
X134440000Y-56414009D01*
X153095000Y-59975000D02*
X136890991Y-59975000D01*
X153420000Y-60300000D02*
X153095000Y-59975000D01*
X153420000Y-61100000D02*
X153420000Y-60300000D01*
%TO.N,/LED_ENABLE*%
X165500000Y-86080000D02*
X171080000Y-80500000D01*
X165000000Y-87000000D02*
X165500000Y-86500000D01*
X164581942Y-89200000D02*
X164780000Y-89001942D01*
X163540000Y-89200000D02*
X164581942Y-89200000D01*
X165500000Y-86500000D02*
X165500000Y-86080000D01*
%TO.N,/GP4*%
X133356193Y-62001193D02*
X133315000Y-61960000D01*
X136501193Y-62001193D02*
X133356193Y-62001193D01*
X156000000Y-81500000D02*
X136501193Y-62001193D01*
X156000000Y-83000000D02*
X156000000Y-81500000D01*
X161940000Y-87270000D02*
X157670000Y-83000000D01*
X166080000Y-89200000D02*
X164150000Y-87270000D01*
X164150000Y-87270000D02*
X161940000Y-87270000D01*
%TO.N,/GP3*%
X158000000Y-99000000D02*
X158000000Y-105729010D01*
X158908072Y-98091928D02*
X158000000Y-99000000D01*
X164875000Y-91125000D02*
X158908072Y-97091928D01*
X158000000Y-105729010D02*
X158135495Y-105864505D01*
X166545990Y-91125000D02*
X164875000Y-91125000D01*
X168470990Y-89200000D02*
X166545990Y-91125000D01*
X158908072Y-97091928D02*
X158908072Y-98091928D01*
X168620000Y-89200000D02*
X168470990Y-89200000D01*
X157994010Y-105723020D02*
X158135495Y-105864505D01*
X134440000Y-68165000D02*
X133315000Y-67040000D01*
X134440000Y-80315212D02*
X134440000Y-68165000D01*
X139265000Y-109555990D02*
X139265000Y-85140212D01*
X139265000Y-85140212D02*
X134440000Y-80315212D01*
X140259010Y-110550000D02*
X139265000Y-109555990D01*
X158880990Y-110550000D02*
X140259010Y-110550000D01*
X159585000Y-109845990D02*
X158880990Y-110550000D01*
X159585000Y-107314010D02*
X159585000Y-109845990D01*
X158135495Y-105864505D02*
X159585000Y-107314010D01*
%TO.N,/GP2*%
X124500000Y-55535000D02*
X125695000Y-54340000D01*
X124500000Y-71909009D02*
X124500000Y-55535000D01*
X126625000Y-74034009D02*
X124500000Y-71909009D01*
X126625000Y-100495990D02*
X126625000Y-74034009D01*
X131645000Y-105515990D02*
X126625000Y-100495990D01*
X131645000Y-109645000D02*
X131645000Y-105515990D01*
X133000000Y-111000000D02*
X131645000Y-109645000D01*
X161179010Y-111000000D02*
X133000000Y-111000000D01*
X162415000Y-109764010D02*
X161179010Y-111000000D01*
X162415000Y-97844141D02*
X162415000Y-109764010D01*
X171059141Y-89200000D02*
X162415000Y-97844141D01*
X171160000Y-89200000D02*
X171059141Y-89200000D01*
%TO.N,/CCD_ADC*%
X157045000Y-107455000D02*
X155920000Y-108580000D01*
X157045000Y-79545000D02*
X157045000Y-107455000D01*
X156500000Y-79000000D02*
X157045000Y-79545000D01*
%TO.N,+3.3V*%
X150750000Y-70250000D02*
X158250000Y-70250000D01*
X148000000Y-67500000D02*
X150750000Y-70250000D01*
X158250000Y-70250000D02*
X161550000Y-73550000D01*
%TO.N,GND*%
X153000000Y-69000000D02*
X153000000Y-67500000D01*
X160500000Y-69000000D02*
X160500000Y-67500000D01*
%TO.N,+3.3V*%
X149090000Y-67500000D02*
X148000000Y-67500000D01*
X154690000Y-61900000D02*
X149090000Y-67500000D01*
X154690000Y-61100000D02*
X154690000Y-61900000D01*
X173225000Y-103975000D02*
X168620000Y-108580000D01*
X173225000Y-95628280D02*
X173225000Y-103975000D01*
X172455860Y-94859140D02*
X173225000Y-95628280D01*
X172455860Y-79715131D02*
X172455860Y-80500000D01*
X176125000Y-76045991D02*
X172455860Y-79715131D01*
X176125000Y-75114009D02*
X176125000Y-76045991D01*
X174560991Y-73550000D02*
X176125000Y-75114009D01*
X161550000Y-73550000D02*
X174560991Y-73550000D01*
X155500000Y-67500000D02*
X158250000Y-70250000D01*
X155960000Y-67040000D02*
X155500000Y-67500000D01*
X155960000Y-61100000D02*
X155960000Y-67040000D01*
%TO.N,/CCD_ADC*%
X156500000Y-76000000D02*
X156500000Y-79000000D01*
X158500000Y-74000000D02*
X156500000Y-76000000D01*
X173420000Y-74000000D02*
X158500000Y-74000000D01*
X175000000Y-75580000D02*
X173420000Y-74000000D01*
%TO.N,/CCD_OS*%
X161400000Y-61100000D02*
X163230000Y-59270000D01*
X163230000Y-59270000D02*
X167880000Y-59270000D01*
X158500000Y-61100000D02*
X161400000Y-61100000D01*
%TO.N,Net-(U1A--)*%
X175000000Y-63850000D02*
X175000000Y-65420000D01*
X167880000Y-56730000D02*
X175000000Y-63850000D01*
%TD*%
M02*
