%TF.GenerationSoftware,KiCad,Pcbnew,10.0.6*%
%TF.CreationDate,2026-09-02T15:33:41-05:00*%
%TF.ProjectId,Line-Sensor-Board,4c696e65-2d53-4656-9e73-6f722d426f61,rev?*%
%TF.SameCoordinates,Original*%
%TF.FileFunction,Soldermask,Top*%
%TF.FilePolarity,Negative*%
%FSLAX46Y46*%
G04 Gerber Fmt 4.6, Leading zero omitted, Abs format (unit mm)*
G04 Created by KiCad (PCBNEW 10.0.6) date 2026-09-02 15:33:41*
%MOMM*%
%LPD*%
G01*
G04 APERTURE LIST*
G04 Aperture macros list*
%AMRoundRect*
0 Rectangle with rounded corners*
0 $1 Rounding radius*
0 $2 $3 $4 $5 $6 $7 $8 $9 X,Y pos of 4 corners*
0 Add a 4 corners polygon primitive as box body*
4,1,4,$2,$3,$4,$5,$6,$7,$8,$9,$2,$3,0*
0 Add four circle primitives for the rounded corners*
1,1,$1+$1,$2,$3*
1,1,$1+$1,$4,$5*
1,1,$1+$1,$6,$7*
1,1,$1+$1,$8,$9*
0 Add four rect primitives between the rounded corners*
20,1,$1+$1,$2,$3,$4,$5,0*
20,1,$1+$1,$4,$5,$6,$7,0*
20,1,$1+$1,$6,$7,$8,$9,0*
20,1,$1+$1,$8,$9,$2,$3,0*%
%AMFreePoly0*
4,1,37,0.800000,0.796148,0.878414,0.796148,1.032228,0.765552,1.177117,0.705537,1.307515,0.618408,1.418408,0.507515,1.505537,0.377117,1.565552,0.232228,1.596148,0.078414,1.596148,-0.078414,1.565552,-0.232228,1.505537,-0.377117,1.418408,-0.507515,1.307515,-0.618408,1.177117,-0.705537,1.032228,-0.765552,0.878414,-0.796148,0.800000,-0.796148,0.800000,-0.800000,-1.400000,-0.800000,
-1.403843,-0.796157,-1.439018,-0.796157,-1.511114,-0.766294,-1.566294,-0.711114,-1.596157,-0.639018,-1.596157,-0.603843,-1.600000,-0.600000,-1.600000,0.600000,-1.596157,0.603843,-1.596157,0.639018,-1.566294,0.711114,-1.511114,0.766294,-1.439018,0.796157,-1.403843,0.796157,-1.400000,0.800000,0.800000,0.800000,0.800000,0.796148,0.800000,0.796148,$1*%
%AMFreePoly1*
4,1,37,1.403843,0.796157,1.439018,0.796157,1.511114,0.766294,1.566294,0.711114,1.596157,0.639018,1.596157,0.603843,1.600000,0.600000,1.600000,-0.600000,1.596157,-0.603843,1.596157,-0.639018,1.566294,-0.711114,1.511114,-0.766294,1.439018,-0.796157,1.403843,-0.796157,1.400000,-0.800000,-0.800000,-0.800000,-0.800000,-0.796148,-0.878414,-0.796148,-1.032228,-0.765552,-1.177117,-0.705537,
-1.307515,-0.618408,-1.418408,-0.507515,-1.505537,-0.377117,-1.565552,-0.232228,-1.596148,-0.078414,-1.596148,0.078414,-1.565552,0.232228,-1.505537,0.377117,-1.418408,0.507515,-1.307515,0.618408,-1.177117,0.705537,-1.032228,0.765552,-0.878414,0.796148,-0.800000,0.796148,-0.800000,0.800000,1.400000,0.800000,1.403843,0.796157,1.403843,0.796157,$1*%
%AMFreePoly2*
4,1,37,1.600000,0.796148,1.678414,0.796148,1.832228,0.765552,1.977117,0.705537,2.107515,0.618408,2.218408,0.507515,2.305537,0.377117,2.365552,0.232228,2.396148,0.078414,2.396148,-0.078414,2.365552,-0.232228,2.305537,-0.377117,2.218408,-0.507515,2.107515,-0.618408,1.977117,-0.705537,1.832228,-0.765552,1.678414,-0.796148,1.600000,-0.796148,1.600000,-0.800000,-0.600000,-0.800000,
-0.603843,-0.796157,-0.639018,-0.796157,-0.711114,-0.766294,-0.766294,-0.711114,-0.796157,-0.639018,-0.796157,-0.603843,-0.800000,-0.600000,-0.800000,0.600000,-0.796157,0.603843,-0.796157,0.639018,-0.766294,0.711114,-0.711114,0.766294,-0.639018,0.796157,-0.603843,0.796157,-0.600000,0.800000,1.600000,0.800000,1.600000,0.796148,1.600000,0.796148,$1*%
G04 Aperture macros list end*
%ADD10C,1.600000*%
%ADD11RoundRect,0.200000X0.200000X0.600000X-0.200000X0.600000X-0.200000X-0.600000X0.200000X-0.600000X0*%
%ADD12R,0.800000X1.600000*%
%ADD13C,3.200000*%
%ADD14C,2.200000*%
%ADD15RoundRect,0.250000X-0.550000X-0.550000X0.550000X-0.550000X0.550000X0.550000X-0.550000X0.550000X0*%
%ADD16C,1.850000*%
%ADD17FreePoly0,270.000000*%
%ADD18RoundRect,0.800000X-0.000010X0.800000X-0.000010X-0.800000X0.000010X-0.800000X0.000010X0.800000X0*%
%ADD19FreePoly1,270.000000*%
%ADD20RoundRect,0.800000X-0.800000X-0.000010X0.800000X-0.000010X0.800000X0.000010X-0.800000X0.000010X0*%
%ADD21FreePoly2,180.000000*%
%ADD22R,1.050000X1.500000*%
%ADD23O,1.050000X1.500000*%
%ADD24R,1.800000X1.800000*%
%ADD25C,1.800000*%
G04 APERTURE END LIST*
D10*
%TO.C,C2*%
X153000000Y-67500000D03*
X148000000Y-67500000D03*
%TD*%
D11*
%TO.C,U4*%
X155960000Y-54500000D03*
X153420000Y-54500000D03*
X150880000Y-54500000D03*
X149610000Y-54500000D03*
X152150000Y-54500000D03*
X154690000Y-54500000D03*
X157230000Y-54500000D03*
X158500000Y-54500000D03*
D12*
X158500000Y-61100000D03*
D11*
X157230000Y-61100000D03*
X155960000Y-61100000D03*
X154690000Y-61100000D03*
X153420000Y-61100000D03*
X152150000Y-61100000D03*
X150880000Y-61100000D03*
X149610000Y-61100000D03*
%TD*%
D13*
%TO.C,REF\u002A\u002A*%
X175500000Y-40000000D03*
%TD*%
%TO.C,REF\u002A\u002A*%
X125000000Y-40000000D03*
%TD*%
%TO.C,REF\u002A\u002A*%
X125000000Y-115500000D03*
%TD*%
%TO.C,REF\u002A\u002A*%
X175500000Y-115500000D03*
%TD*%
D14*
%TO.C,REF\u002A\u002A*%
X164000000Y-65000000D03*
%TD*%
%TO.C,REF\u002A\u002A*%
X144000000Y-50500000D03*
%TD*%
%TO.C,REF\u002A\u002A*%
X144000000Y-65000000D03*
%TD*%
%TO.C,REF\u002A\u002A*%
X163500000Y-50500000D03*
%TD*%
D10*
%TO.C,U1*%
X175500000Y-54190000D03*
X175500000Y-56730000D03*
X175500000Y-59270000D03*
X175500000Y-61810000D03*
X167880000Y-61810000D03*
X167880000Y-59270000D03*
X167880000Y-56730000D03*
D15*
X167880000Y-54190000D03*
%TD*%
D14*
%TO.C,A1*%
X178650000Y-96165000D03*
D16*
X175620000Y-96465000D03*
X175620000Y-101315000D03*
D14*
X178650000Y-101615000D03*
D17*
X178780000Y-89200000D03*
D18*
X176240000Y-89200000D03*
D19*
X173700000Y-89200000D03*
D18*
X171160000Y-89200000D03*
X168620000Y-89200000D03*
X166080000Y-89200000D03*
X163540000Y-89200000D03*
D19*
X161000000Y-89200000D03*
D18*
X158460000Y-89200000D03*
X155920000Y-89200000D03*
X153380000Y-89200000D03*
X150840000Y-89200000D03*
D19*
X148300000Y-89200000D03*
D18*
X145760000Y-89200000D03*
X143220000Y-89200000D03*
X140680000Y-89200000D03*
X138140000Y-89200000D03*
D19*
X135600000Y-89200000D03*
D18*
X133060000Y-89200000D03*
X130520000Y-89200000D03*
X130520000Y-108580000D03*
X133060000Y-108580000D03*
D17*
X135600000Y-108580000D03*
D18*
X138140000Y-108580000D03*
X140680000Y-108580000D03*
X143220000Y-108580000D03*
X145760000Y-108580000D03*
D17*
X148300000Y-108580000D03*
D18*
X150840000Y-108580000D03*
X153380000Y-108580000D03*
X155920000Y-108580000D03*
X158460000Y-108580000D03*
D17*
X161000000Y-108580000D03*
D18*
X163540000Y-108580000D03*
X166080000Y-108580000D03*
X168620000Y-108580000D03*
X171160000Y-108580000D03*
D17*
X173700000Y-108580000D03*
D18*
X176240000Y-108580000D03*
X178780000Y-108580000D03*
D20*
X129950000Y-96350000D03*
D21*
X130750000Y-98890000D03*
D20*
X129950000Y-101430000D03*
%TD*%
D15*
%TO.C,U2*%
X125695000Y-54340000D03*
D10*
X125695000Y-56880000D03*
X125695000Y-59420000D03*
X125695000Y-61960000D03*
X125695000Y-64500000D03*
X125695000Y-67040000D03*
X125695000Y-69580000D03*
X133315000Y-69580000D03*
X133315000Y-67040000D03*
X133315000Y-64500000D03*
X133315000Y-61960000D03*
X133315000Y-59420000D03*
X133315000Y-56880000D03*
X133315000Y-54340000D03*
%TD*%
%TO.C,R7*%
X171080000Y-84500000D03*
X160920000Y-84500000D03*
%TD*%
%TO.C,R6*%
X171080000Y-80500000D03*
X160920000Y-80500000D03*
%TD*%
%TO.C,R5*%
X160840000Y-76500000D03*
X171000000Y-76500000D03*
%TD*%
%TO.C,R4*%
X147580000Y-75500000D03*
X137420000Y-75500000D03*
%TD*%
%TO.C,R3*%
X157500000Y-42000000D03*
X167660000Y-42000000D03*
%TD*%
%TO.C,R2*%
X150000000Y-42000000D03*
X139840000Y-42000000D03*
%TD*%
%TO.C,R1*%
X175000000Y-65420000D03*
X175000000Y-75580000D03*
%TD*%
D22*
%TO.C,Q1*%
X153230000Y-73860000D03*
D23*
X154500000Y-73860000D03*
X155770000Y-73860000D03*
%TD*%
D24*
%TO.C,D4*%
X168460000Y-69500000D03*
D25*
X171000000Y-69500000D03*
%TD*%
D24*
%TO.C,D3*%
X136725000Y-69500000D03*
D25*
X139265000Y-69500000D03*
%TD*%
D24*
%TO.C,D2*%
X168460000Y-47000000D03*
D25*
X171000000Y-47000000D03*
%TD*%
D24*
%TO.C,D1*%
X136725000Y-47000000D03*
D25*
X139265000Y-47000000D03*
%TD*%
D15*
%TO.C,C7*%
X137544888Y-81500000D03*
D10*
X139544888Y-81500000D03*
%TD*%
%TO.C,C6*%
X155500000Y-67500000D03*
X160500000Y-67500000D03*
%TD*%
%TO.C,C5*%
X132500000Y-50500000D03*
X127500000Y-50500000D03*
%TD*%
%TO.C,C4*%
X130500000Y-74500000D03*
X125500000Y-74500000D03*
%TD*%
D15*
%TO.C,C3*%
X130000000Y-81500000D03*
D10*
X132000000Y-81500000D03*
%TD*%
%TO.C,C1*%
X156500000Y-79000000D03*
X151500000Y-79000000D03*
%TD*%
M02*
