%TF.GenerationSoftware,KiCad,Pcbnew,10.0.6*%
%TF.CreationDate,2026-09-02T15:33:41-05:00*%
%TF.ProjectId,Line-Sensor-Board,4c696e65-2d53-4656-9e73-6f722d426f61,rev?*%
%TF.SameCoordinates,Original*%
%TF.FileFunction,Soldermask,Bot*%
%TF.FilePolarity,Negative*%
%FSLAX46Y46*%
G04 Gerber Fmt 4.6, Leading zero omitted, Abs format (unit mm)*
G04 Created by KiCad (PCBNEW 10.0.6) date 2026-09-02 15:33:41*
%MOMM*%
%LPD*%
G01*
G04 APERTURE LIST*
G04 Aperture macros list*
%AMRoundRect*
0 Rectangle with rounded corners*
0 $1 Rounding radius*
0 $2 $3 $4 $5 $6 $7 $8 $9 X,Y pos of 4 corners*
0 Add a 4 corners polygon primitive as box body*
4,1,4,$2,$3,$4,$5,$6,$7,$8,$9,$2,$3,0*
0 Add four circle primitives for the rounded corners*
1,1,$1+$1,$2,$3*
1,1,$1+$1,$4,$5*
1,1,$1+$1,$6,$7*
1,1,$1+$1,$8,$9*
0 Add four rect primitives between the rounded corners*
20,1,$1+$1,$2,$3,$4,$5,0*
20,1,$1+$1,$4,$5,$6,$7,0*
20,1,$1+$1,$6,$7,$8,$9,0*
20,1,$1+$1,$8,$9,$2,$3,0*%
G04 Aperture macros list end*
%ADD10C,1.600000*%
%ADD11C,3.200000*%
%ADD12C,2.200000*%
%ADD13RoundRect,0.250000X-0.550000X-0.550000X0.550000X-0.550000X0.550000X0.550000X-0.550000X0.550000X0*%
%ADD14C,1.850000*%
%ADD15R,1.050000X1.500000*%
%ADD16O,1.050000X1.500000*%
%ADD17R,1.800000X1.800000*%
%ADD18C,1.800000*%
G04 APERTURE END LIST*
D10*
%TO.C,C2*%
X153000000Y-67500000D03*
X148000000Y-67500000D03*
%TD*%
D11*
%TO.C,REF\u002A\u002A*%
X175500000Y-40000000D03*
%TD*%
%TO.C,REF\u002A\u002A*%
X125000000Y-40000000D03*
%TD*%
%TO.C,REF\u002A\u002A*%
X125000000Y-115500000D03*
%TD*%
%TO.C,REF\u002A\u002A*%
X175500000Y-115500000D03*
%TD*%
D12*
%TO.C,REF\u002A\u002A*%
X164000000Y-65000000D03*
%TD*%
%TO.C,REF\u002A\u002A*%
X144000000Y-50500000D03*
%TD*%
%TO.C,REF\u002A\u002A*%
X144000000Y-65000000D03*
%TD*%
%TO.C,REF\u002A\u002A*%
X163500000Y-50500000D03*
%TD*%
D10*
%TO.C,U1*%
X175500000Y-54190000D03*
X175500000Y-56730000D03*
X175500000Y-59270000D03*
X175500000Y-61810000D03*
X167880000Y-61810000D03*
X167880000Y-59270000D03*
X167880000Y-56730000D03*
D13*
X167880000Y-54190000D03*
%TD*%
D12*
%TO.C,A1*%
X178650000Y-96165000D03*
D14*
X175620000Y-96465000D03*
X175620000Y-101315000D03*
D12*
X178650000Y-101615000D03*
%TD*%
D13*
%TO.C,U2*%
X125695000Y-54340000D03*
D10*
X125695000Y-56880000D03*
X125695000Y-59420000D03*
X125695000Y-61960000D03*
X125695000Y-64500000D03*
X125695000Y-67040000D03*
X125695000Y-69580000D03*
X133315000Y-69580000D03*
X133315000Y-67040000D03*
X133315000Y-64500000D03*
X133315000Y-61960000D03*
X133315000Y-59420000D03*
X133315000Y-56880000D03*
X133315000Y-54340000D03*
%TD*%
%TO.C,R7*%
X171080000Y-84500000D03*
X160920000Y-84500000D03*
%TD*%
%TO.C,R6*%
X171080000Y-80500000D03*
X160920000Y-80500000D03*
%TD*%
%TO.C,R5*%
X160840000Y-76500000D03*
X171000000Y-76500000D03*
%TD*%
%TO.C,R4*%
X147580000Y-75500000D03*
X137420000Y-75500000D03*
%TD*%
%TO.C,R3*%
X157500000Y-42000000D03*
X167660000Y-42000000D03*
%TD*%
%TO.C,R2*%
X150000000Y-42000000D03*
X139840000Y-42000000D03*
%TD*%
%TO.C,R1*%
X175000000Y-65420000D03*
X175000000Y-75580000D03*
%TD*%
D15*
%TO.C,Q1*%
X153230000Y-73860000D03*
D16*
X154500000Y-73860000D03*
X155770000Y-73860000D03*
%TD*%
D17*
%TO.C,D4*%
X168460000Y-69500000D03*
D18*
X171000000Y-69500000D03*
%TD*%
D17*
%TO.C,D3*%
X136725000Y-69500000D03*
D18*
X139265000Y-69500000D03*
%TD*%
D17*
%TO.C,D2*%
X168460000Y-47000000D03*
D18*
X171000000Y-47000000D03*
%TD*%
D17*
%TO.C,D1*%
X136725000Y-47000000D03*
D18*
X139265000Y-47000000D03*
%TD*%
D13*
%TO.C,C7*%
X137544888Y-81500000D03*
D10*
X139544888Y-81500000D03*
%TD*%
%TO.C,C6*%
X155500000Y-67500000D03*
X160500000Y-67500000D03*
%TD*%
%TO.C,C5*%
X132500000Y-50500000D03*
X127500000Y-50500000D03*
%TD*%
%TO.C,C4*%
X130500000Y-74500000D03*
X125500000Y-74500000D03*
%TD*%
D13*
%TO.C,C3*%
X130000000Y-81500000D03*
D10*
X132000000Y-81500000D03*
%TD*%
%TO.C,C1*%
X156500000Y-79000000D03*
X151500000Y-79000000D03*
%TD*%
M02*
